SplineFontDB: 3.0
FontName: Auvaiyar-BoldItalic
FullName: Auvaiyar Bold Italic
FamilyName: Auvaiyar
Weight: Bold
Copyright: Copyright (c) 1995-2015, NLCI (http://www.nlci.in/fonts/) Derived from TAM Auvaiyar Bold Italic by ttfbuilder v0.33
Version: 1.0 Wed Feb 01 17:08:28 1995
ItalicAngle: 12
UnderlinePosition: -310
UnderlineWidth: 20
Ascent: 800
Descent: 200
InvalidEm: 0
sfntRevision: 0x00010000
LayerCount: 2
Layer: 0 1 "Back" 1
Layer: 1 1 "Fore" 0
XUID: [1021 884 -357555734 6798378]
StyleMap: 0x0021
FSType: 0
OS2Version: 1
OS2_WeightWidthSlopeOnly: 0
OS2_UseTypoMetrics: 0
CreationTime: 1534550734
ModificationTime: 1534550770
PfmFamily: 17
TTFWeight: 700
TTFWidth: 5
LineGap: 0
VLineGap: 0
Panose: 2 0 0 3 0 0 0 0 0 0
OS2TypoAscent: 750
OS2TypoAOffset: 0
OS2TypoDescent: -329
OS2TypoDOffset: 0
OS2TypoLinegap: 0
OS2WinAscent: 750
OS2WinAOffset: 0
OS2WinDescent: 329
OS2WinDOffset: 0
HheadAscent: 750
HheadAOffset: 0
HheadDescent: -329
HheadDOffset: 0
OS2SubXSize: 700
OS2SubYSize: 650
OS2SubXOff: 0
OS2SubYOff: 143
OS2SupXSize: 700
OS2SupYSize: 650
OS2SupXOff: 0
OS2SupYOff: 453
OS2StrikeYSize: 50
OS2StrikeYPos: 259
OS2Vendor: 'Phsc'
OS2CodePages: 20000001.00000000
OS2UnicodeRanges: a01080ff.520021cb.08000028.00000000
Lookup: 260 0 0 "_holdAnchorsbase" { "_someAnchorsbase"  } []
DEI: 91125
ShortTable: maxp 16
  1
  0
  339
  249
  12
  365
  16
  1
  0
  0
  0
  0
  134
  0
  3
  2
EndShort

StartChar: .notdef
Encoding: 0 -1 0
Width: 500
Flags: W
LayerCount: 2
Fore
SplineSet
31 0 m 1,0,-1
 31 750 l 1,1,-1
 469 750 l 1,2,-1
 469 0 l 1,3,-1
 31 0 l 1,0,-1
438 31 m 1,4,-1
 438 719 l 1,5,-1
 62 719 l 1,6,-1
 62 31 l 1,7,-1
 438 31 l 1,4,-1
EndSplineSet
EndChar

StartChar: exclam
Encoding: 4 33 4
Width: 379
VWidth: 488
Flags: W
LayerCount: 2
Fore
SplineSet
338.8671875 616.2109375 m 0,0,1
 313.4765625 538.57421875 313.4765625 538.57421875 289.0625 464.35546875 c 0,2,3
 278.80859375 432.6171875 278.80859375 432.6171875 267.333984375 398.4375 c 0,4,5
 255.859375 364.2578125 255.859375 364.2578125 244.873046875 330.56640625 c 0,6,7
 233.88671875 296.875 233.88671875 296.875 223.388671875 265.380859375 c 0,8,9
 212.890625 233.88671875 212.890625 233.88671875 204.1015625 208.0078125 c 0,10,-1
 149.90234375 208.0078125 l 0,11,-1
 172.8515625 592.7734375 l 0,12,13
 172.8515625 613.76953125 172.8515625 613.76953125 181.15234375 631.103515625 c 0,14,15
 189.453125 648.4375 189.453125 648.4375 203.125 660.888671875 c 0,16,17
 216.796875 673.33984375 216.796875 673.33984375 234.619140625 680.17578125 c 0,18,19
 252.44140625 687.01171875 252.44140625 687.01171875 270.99609375 687.01171875 c 0,20,21
 307.6171875 687.01171875 307.6171875 687.01171875 323.2421875 669.921875 c 0,22,23
 338.8671875 652.83203125 338.8671875 652.83203125 338.8671875 616.2109375 c 0,0,1
240.234375 64.94140625 m 0,24,25
 240.234375 48.33984375 240.234375 48.33984375 233.642578125 34.1796875 c 0,26,27
 227.05078125 20.01953125 227.05078125 20.01953125 215.8203125 9.765625 c 0,28,29
 204.58984375 -0.48828125 204.58984375 -0.48828125 189.697265625 -6.34765625 c 0,30,31
 174.8046875 -12.20703125 174.8046875 -12.20703125 158.203125 -12.20703125 c 0,32,33
 142.08984375 -12.20703125 142.08984375 -12.20703125 128.41796875 -5.615234375 c 0,34,35
 114.74609375 0.9765625 114.74609375 0.9765625 104.4921875 12.20703125 c 0,36,37
 94.23828125 23.4375 94.23828125 23.4375 88.623046875 38.0859375 c 0,38,39
 83.0078125 52.734375 83.0078125 52.734375 83.0078125 68.84765625 c 0,40,41
 83.0078125 85.44921875 83.0078125 85.44921875 88.8671875 99.853515625 c 0,42,43
 94.7265625 114.2578125 94.7265625 114.2578125 104.98046875 125.244140625 c 0,44,45
 115.234375 136.23046875 115.234375 136.23046875 129.150390625 142.578125 c 0,46,47
 143.06640625 148.92578125 143.06640625 148.92578125 159.1796875 148.92578125 c 0,48,49
 177.24609375 148.92578125 177.24609375 148.92578125 192.138671875 142.08984375 c 0,50,51
 207.03125 135.25390625 207.03125 135.25390625 217.7734375 123.779296875 c 0,52,53
 228.515625 112.3046875 228.515625 112.3046875 234.375 96.923828125 c 0,54,55
 240.234375 81.54296875 240.234375 81.54296875 240.234375 64.94140625 c 0,24,25
EndSplineSet
EndChar

StartChar: quotedbl
Encoding: 5 34 5
Width: 375
VWidth: 488
Flags: W
LayerCount: 2
Fore
SplineSet
420.8984375 668.9453125 m 0,0,1
 420.8984375 664.0625 420.8984375 664.0625 415.52734375 646.484375 c 0,2,3
 410.15625 628.90625 410.15625 628.90625 401.611328125 604.4921875 c 0,4,5
 393.06640625 580.078125 393.06640625 580.078125 382.568359375 551.513671875 c 0,6,7
 372.0703125 522.94921875 372.0703125 522.94921875 362.3046875 496.58203125 c 0,8,9
 352.5390625 470.21484375 352.5390625 470.21484375 344.7265625 448.73046875 c 0,10,11
 336.9140625 427.24609375 336.9140625 427.24609375 333.0078125 416.9921875 c 0,12,-1
 295.8984375 416.9921875 l 0,13,-1
 304.19921875 650.87890625 l 0,14,15
 304.6875 664.55078125 304.6875 664.55078125 310.546875 676.025390625 c 0,16,17
 316.40625 687.5 316.40625 687.5 326.171875 695.80078125 c 0,18,19
 335.9375 704.1015625 335.9375 704.1015625 348.14453125 708.984375 c 0,20,21
 360.3515625 713.8671875 360.3515625 713.8671875 373.046875 713.8671875 c 0,22,23
 395.01953125 713.8671875 395.01953125 713.8671875 407.958984375 703.125 c 0,24,25
 420.8984375 692.3828125 420.8984375 692.3828125 420.8984375 668.9453125 c 0,0,1
225.09765625 668.9453125 m 0,26,27
 225.09765625 664.0625 225.09765625 664.0625 219.7265625 646.484375 c 0,28,29
 214.35546875 628.90625 214.35546875 628.90625 205.810546875 604.4921875 c 0,30,31
 197.265625 580.078125 197.265625 580.078125 186.767578125 551.513671875 c 0,32,33
 176.26953125 522.94921875 176.26953125 522.94921875 166.50390625 496.58203125 c 0,34,35
 156.73828125 470.21484375 156.73828125 470.21484375 148.681640625 448.73046875 c 0,36,37
 140.625 427.24609375 140.625 427.24609375 137.20703125 416.9921875 c 0,38,-1
 100.09765625 416.9921875 l 0,39,-1
 106.93359375 650.87890625 l 0,40,41
 107.421875 664.55078125 107.421875 664.55078125 113.76953125 676.025390625 c 0,42,43
 120.1171875 687.5 120.1171875 687.5 129.8828125 695.80078125 c 0,44,45
 139.6484375 704.1015625 139.6484375 704.1015625 151.85546875 708.984375 c 0,46,47
 164.0625 713.8671875 164.0625 713.8671875 176.7578125 713.8671875 c 0,48,49
 198.73046875 713.8671875 198.73046875 713.8671875 211.9140625 703.125 c 0,50,51
 225.09765625 692.3828125 225.09765625 692.3828125 225.09765625 668.9453125 c 0,26,27
EndSplineSet
EndChar

StartChar: numbersign
Encoding: 6 35 6
Width: 741
VWidth: 488
Flags: W
LayerCount: 2
Fore
SplineSet
526.85546875 414.0625 m 0,0,-1
 483.88671875 282.2265625 l 0,1,-1
 639.16015625 282.2265625 l 0,2,-1
 639.16015625 219.23828125 l 0,3,-1
 461.9140625 219.23828125 l 0,4,-1
 386.23046875 -23.92578125 l 0,5,-1
 316.89453125 -6.8359375 l 0,6,-1
 391.11328125 219.23828125 l 0,7,-1
 266.11328125 219.23828125 l 0,8,-1
 187.98828125 -23.92578125 l 0,9,-1
 121.09375 -5.859375 l 0,10,-1
 195.80078125 219.23828125 l 0,11,-1
 62.01171875 219.23828125 l 0,12,-1
 62.01171875 282.2265625 l 0,13,-1
 215.8203125 282.2265625 l 0,14,-1
 258.7890625 414.0625 l 0,15,-1
 110.83984375 414.0625 l 0,16,-1
 110.83984375 479.98046875 l 0,17,-1
 279.78515625 479.98046875 l 0,18,-1
 356.93359375 709.9609375 l 0,19,-1
 423.828125 691.89453125 l 0,20,-1
 350.09765625 479.98046875 l 0,21,-1
 479.98046875 479.98046875 l 0,22,-1
 554.19921875 709.9609375 l 0,23,-1
 623.046875 690.91796875 l 0,24,-1
 547.8515625 479.98046875 l 0,25,-1
 679.19921875 479.98046875 l 0,26,-1
 679.19921875 414.0625 l 0,27,-1
 526.85546875 414.0625 l 0,0,-1
331.0546875 414.0625 m 0,28,-1
 287.109375 282.2265625 l 0,29,-1
 411.1328125 282.2265625 l 0,30,-1
 457.03125 414.0625 l 0,31,-1
 331.0546875 414.0625 l 0,28,-1
EndSplineSet
EndChar

StartChar: dollar
Encoding: 7 36 7
Width: 598
VWidth: 488
Flags: W
LayerCount: 2
Fore
SplineSet
338.8671875 604.00390625 m 0,0,1
 318.359375 601.07421875 318.359375 601.07421875 300.29296875 590.8203125 c 0,2,3
 284.66796875 581.54296875 284.66796875 581.54296875 270.01953125 563.4765625 c 0,4,5
 255.37109375 545.41015625 255.37109375 545.41015625 249.0234375 513.18359375 c 0,6,7
 246.09375 498.046875 246.09375 498.046875 246.58203125 485.595703125 c 0,8,9
 247.0703125 473.14453125 247.0703125 473.14453125 250.48828125 463.37890625 c 0,10,11
 253.90625 453.61328125 253.90625 453.61328125 258.7890625 446.2890625 c 0,12,13
 263.671875 438.96484375 263.671875 438.96484375 269.53125 433.59375 c 0,14,15
 282.71484375 420.8984375 282.71484375 420.8984375 301.7578125 415.0390625 c 0,16,-1
 338.8671875 604.00390625 l 0,0,1
400.87890625 168.9453125 m 0,17,18
 405.76171875 193.84765625 405.76171875 193.84765625 400.146484375 210.9375 c 0,19,20
 394.53125 228.02734375 394.53125 228.02734375 383.30078125 239.2578125 c 0,21,22
 372.0703125 250.48828125 372.0703125 250.48828125 357.91015625 257.080078125 c 0,23,24
 343.75 263.671875 343.75 263.671875 332.03125 267.08984375 c 0,25,-1
 291.9921875 64.94140625 l 0,26,27
 317.3828125 68.359375 317.3828125 68.359375 339.35546875 80.56640625 c 0,28,29
 348.6328125 85.44921875 348.6328125 85.44921875 358.154296875 93.26171875 c 0,30,31
 367.67578125 101.07421875 367.67578125 101.07421875 375.9765625 111.572265625 c 0,32,33
 384.27734375 122.0703125 384.27734375 122.0703125 390.625 136.23046875 c 0,34,35
 396.97265625 150.390625 396.97265625 150.390625 400.87890625 168.9453125 c 0,17,18
553.22265625 472.16796875 m 0,36,-1
 483.88671875 472.16796875 l 0,37,-1
 485.83984375 577.1484375 l 0,38,39
 486.81640625 583.0078125 486.81640625 583.0078125 484.375 585.205078125 c 0,40,41
 481.93359375 587.40234375 481.93359375 587.40234375 478.02734375 588.8671875 c 0,42,43
 470.703125 592.28515625 470.703125 592.28515625 458.984375 595.458984375 c 0,44,45
 447.265625 598.6328125 447.265625 598.6328125 435.546875 601.318359375 c 0,46,47
 423.828125 604.00390625 423.828125 604.00390625 413.57421875 605.46875 c 0,48,49
 403.3203125 606.93359375 403.3203125 606.93359375 398.92578125 606.93359375 c 0,50,-1
 357.91015625 400.87890625 l 0,51,52
 373.53515625 396.484375 373.53515625 396.484375 394.53125 389.892578125 c 0,53,54
 415.52734375 383.30078125 415.52734375 383.30078125 437.5 373.291015625 c 0,55,56
 459.47265625 363.28125 459.47265625 363.28125 480.224609375 348.876953125 c 0,57,58
 500.9765625 334.47265625 500.9765625 334.47265625 515.380859375 314.208984375 c 0,59,60
 529.78515625 293.9453125 529.78515625 293.9453125 535.888671875 267.08984375 c 0,61,62
 541.9921875 240.234375 541.9921875 240.234375 535.15625 205.078125 c 0,63,64
 526.85546875 162.109375 526.85546875 162.109375 504.150390625 127.44140625 c 0,65,66
 481.4453125 92.7734375 481.4453125 92.7734375 447.75390625 66.89453125 c 0,67,68
 414.0625 41.015625 414.0625 41.015625 370.849609375 24.4140625 c 0,69,70
 327.63671875 7.8125 327.63671875 7.8125 278.80859375 0.9765625 c 0,71,-1
 258.7890625 -102.05078125 l 0,72,-1
 200.1953125 -102.05078125 l 0,73,-1
 220.21484375 0 l 0,74,75
 185.05859375 1.46484375 185.05859375 1.46484375 150.390625 5.859375 c 0,76,77
 120.1171875 9.765625 120.1171875 9.765625 85.693359375 16.11328125 c 0,78,79
 51.26953125 22.4609375 51.26953125 22.4609375 20.99609375 33.203125 c 0,80,-1
 55.17578125 206.0546875 l 0,81,-1
 126.953125 206.0546875 l 0,82,-1
 124.0234375 98.14453125 l 0,83,-1
 124.0234375 91.30859375 l 0,84,85
 124.0234375 89.35546875 124.0234375 89.35546875 124.755859375 88.37890625 c 0,86,87
 125.48828125 87.40234375 125.48828125 87.40234375 126.953125 86.669921875 c 0,88,89
 128.41796875 85.9375 128.41796875 85.9375 131.8359375 83.984375 c 0,90,91
 145.99609375 75.68359375 145.99609375 75.68359375 163.330078125 71.533203125 c 0,92,93
 180.6640625 67.3828125 180.6640625 67.3828125 196.2890625 64.94140625 c 0,94,95
 213.8671875 62.5 213.8671875 62.5 231.93359375 62.01171875 c 0,96,-1
 274.90234375 282.2265625 l 0,97,98
 257.32421875 287.59765625 257.32421875 287.59765625 236.81640625 294.921875 c 0,99,100
 216.30859375 302.24609375 216.30859375 302.24609375 196.2890625 312.5 c 0,101,102
 176.26953125 322.75390625 176.26953125 322.75390625 158.69140625 337.158203125 c 0,103,104
 141.11328125 351.5625 141.11328125 351.5625 129.150390625 371.337890625 c 0,105,106
 117.1875 391.11328125 117.1875 391.11328125 112.79296875 417.236328125 c 0,107,108
 108.3984375 443.359375 108.3984375 443.359375 115.234375 477.05078125 c 0,109,110
 121.58203125 511.23046875 121.58203125 511.23046875 135.498046875 537.59765625 c 0,111,112
 149.4140625 563.96484375 149.4140625 563.96484375 167.236328125 583.984375 c 0,113,114
 185.05859375 604.00390625 185.05859375 604.00390625 205.810546875 617.919921875 c 0,115,116
 226.5625 631.8359375 226.5625 631.8359375 247.0703125 641.11328125 c 0,117,118
 295.41015625 663.0859375 295.41015625 663.0859375 352.05078125 667.96875 c 0,119,-1
 367.1875 742.1875 l 0,120,-1
 425.78125 742.1875 l 0,121,-1
 411.1328125 667.96875 l 0,122,123
 441.89453125 667.96875 441.89453125 667.96875 472.900390625 663.330078125 c 0,124,125
 503.90625 658.69140625 503.90625 658.69140625 529.296875 653.3203125 c 0,126,127
 558.59375 646.97265625 558.59375 646.97265625 585.9375 639.16015625 c 0,128,-1
 553.22265625 472.16796875 l 0,36,-1
EndSplineSet
EndChar

StartChar: percent
Encoding: 8 37 8
Width: 899
VWidth: 488
Flags: W
LayerCount: 2
Fore
SplineSet
860.83984375 261.23046875 m 0,0,1
 860.83984375 228.02734375 860.83984375 228.02734375 854.98046875 194.580078125 c 0,2,3
 849.12109375 161.1328125 849.12109375 161.1328125 837.158203125 130.126953125 c 0,4,5
 825.1953125 99.12109375 825.1953125 99.12109375 806.884765625 72.509765625 c 0,6,7
 788.57421875 45.8984375 788.57421875 45.8984375 764.16015625 26.123046875 c 0,8,9
 739.74609375 6.34765625 739.74609375 6.34765625 708.984375 -4.8828125 c 0,10,11
 678.22265625 -16.11328125 678.22265625 -16.11328125 641.11328125 -16.11328125 c 0,12,13
 572.265625 -16.11328125 572.265625 -16.11328125 538.57421875 20.01953125 c 0,14,15
 504.8828125 56.15234375 504.8828125 56.15234375 504.8828125 124.0234375 c 0,16,17
 504.8828125 156.73828125 504.8828125 156.73828125 510.7421875 190.185546875 c 0,18,19
 516.6015625 223.6328125 516.6015625 223.6328125 528.3203125 254.638671875 c 0,20,21
 540.0390625 285.64453125 540.0390625 285.64453125 558.10546875 312.5 c 0,22,23
 576.171875 339.35546875 576.171875 339.35546875 600.5859375 359.130859375 c 0,24,25
 625 378.90625 625 378.90625 655.76171875 390.380859375 c 0,26,27
 686.5234375 401.85546875 686.5234375 401.85546875 724.12109375 401.85546875 c 0,28,29
 792.48046875 401.85546875 792.48046875 401.85546875 826.66015625 365.478515625 c 0,30,31
 860.83984375 329.1015625 860.83984375 329.1015625 860.83984375 261.23046875 c 0,0,1
226.07421875 0 m 0,32,-1
 153.80859375 0 l 0,33,-1
 702.1484375 670.8984375 l 0,34,-1
 774.90234375 670.8984375 l 0,35,-1
 226.07421875 0 l 0,32,-1
423.828125 545.8984375 m 0,36,37
 423.828125 512.6953125 423.828125 512.6953125 417.96875 479.4921875 c 0,38,39
 412.109375 446.2890625 412.109375 446.2890625 400.146484375 415.283203125 c 0,40,41
 388.18359375 384.27734375 388.18359375 384.27734375 370.1171875 357.421875 c 0,42,43
 352.05078125 330.56640625 352.05078125 330.56640625 327.880859375 310.791015625 c 0,44,45
 303.7109375 291.015625 303.7109375 291.015625 272.94921875 279.541015625 c 0,46,47
 242.1875 268.06640625 242.1875 268.06640625 205.078125 268.06640625 c 0,48,49
 135.7421875 268.06640625 135.7421875 268.06640625 101.318359375 305.17578125 c 0,50,51
 66.89453125 342.28515625 66.89453125 342.28515625 66.89453125 410.15625 c 0,52,53
 66.89453125 459.47265625 66.89453125 459.47265625 80.322265625 509.033203125 c 0,54,55
 93.75 558.59375 93.75 558.59375 121.09375 598.14453125 c 0,56,57
 148.4375 637.6953125 148.4375 637.6953125 189.94140625 662.353515625 c 0,58,59
 231.4453125 687.01171875 231.4453125 687.01171875 287.109375 687.01171875 c 0,60,61
 355.46875 687.01171875 355.46875 687.01171875 389.6484375 650.634765625 c 0,62,63
 423.828125 614.2578125 423.828125 614.2578125 423.828125 545.8984375 c 0,36,37
755.859375 285.15625 m 0,64,65
 755.859375 295.41015625 755.859375 295.41015625 754.39453125 307.6171875 c 0,66,67
 752.9296875 319.82421875 752.9296875 319.82421875 748.53515625 330.322265625 c 0,68,69
 744.140625 340.8203125 744.140625 340.8203125 735.83984375 347.900390625 c 0,70,71
 727.5390625 354.98046875 727.5390625 354.98046875 713.8671875 354.98046875 c 0,72,73
 693.359375 354.98046875 693.359375 354.98046875 677.490234375 340.8203125 c 0,74,75
 661.62109375 326.66015625 661.62109375 326.66015625 649.4140625 304.443359375 c 0,76,77
 637.20703125 282.2265625 637.20703125 282.2265625 628.662109375 254.39453125 c 0,78,79
 620.1171875 226.5625 620.1171875 226.5625 614.501953125 199.21875 c 0,80,81
 608.88671875 171.875 608.88671875 171.875 606.4453125 147.94921875 c 0,82,83
 604.00390625 124.0234375 604.00390625 124.0234375 604.00390625 108.88671875 c 0,84,85
 604.00390625 97.16796875 604.00390625 97.16796875 605.46875 83.49609375 c 0,86,87
 606.93359375 69.82421875 606.93359375 69.82421875 611.81640625 58.10546875 c 0,88,89
 616.69921875 46.38671875 616.69921875 46.38671875 625.732421875 38.57421875 c 0,90,91
 634.765625 30.76171875 634.765625 30.76171875 649.90234375 30.76171875 c 0,92,93
 669.43359375 30.76171875 669.43359375 30.76171875 684.814453125 45.654296875 c 0,94,95
 700.1953125 60.546875 700.1953125 60.546875 711.9140625 83.984375 c 0,96,97
 723.6328125 107.421875 723.6328125 107.421875 732.177734375 136.474609375 c 0,98,99
 740.72265625 165.52734375 740.72265625 165.52734375 745.849609375 193.84765625 c 0,100,101
 750.9765625 222.16796875 750.9765625 222.16796875 753.41796875 246.58203125 c 0,102,103
 755.859375 270.99609375 755.859375 270.99609375 755.859375 285.15625 c 0,64,65
319.82421875 568.84765625 m 0,104,105
 319.82421875 579.58984375 319.82421875 579.58984375 318.359375 592.28515625 c 0,106,107
 316.89453125 604.98046875 316.89453125 604.98046875 312.5 615.478515625 c 0,108,109
 308.10546875 625.9765625 308.10546875 625.9765625 299.8046875 633.056640625 c 0,110,111
 291.50390625 640.13671875 291.50390625 640.13671875 277.83203125 640.13671875 c 0,112,113
 257.32421875 640.13671875 257.32421875 640.13671875 241.2109375 626.220703125 c 0,114,115
 225.09765625 612.3046875 225.09765625 612.3046875 212.646484375 590.087890625 c 0,116,117
 200.1953125 567.87109375 200.1953125 567.87109375 191.650390625 540.283203125 c 0,118,119
 183.10546875 512.6953125 183.10546875 512.6953125 177.490234375 485.595703125 c 0,120,121
 171.875 458.49609375 171.875 458.49609375 169.43359375 434.5703125 c 0,122,123
 166.9921875 410.64453125 166.9921875 410.64453125 166.9921875 395.99609375 c 0,124,125
 166.9921875 383.7890625 166.9921875 383.7890625 168.45703125 369.62890625 c 0,126,127
 169.921875 355.46875 169.921875 355.46875 175.048828125 343.26171875 c 0,128,129
 180.17578125 331.0546875 180.17578125 331.0546875 189.208984375 322.998046875 c 0,130,131
 198.2421875 314.94140625 198.2421875 314.94140625 213.8671875 314.94140625 c 0,132,133
 232.91015625 314.94140625 232.91015625 314.94140625 248.291015625 329.833984375 c 0,134,135
 263.671875 344.7265625 263.671875 344.7265625 275.634765625 368.408203125 c 0,136,137
 287.59765625 392.08984375 287.59765625 392.08984375 295.8984375 421.142578125 c 0,138,139
 304.19921875 450.1953125 304.19921875 450.1953125 309.5703125 478.271484375 c 0,140,141
 314.94140625 506.34765625 314.94140625 506.34765625 317.3828125 530.76171875 c 0,142,143
 319.82421875 555.17578125 319.82421875 555.17578125 319.82421875 568.84765625 c 0,104,105
EndSplineSet
EndChar

StartChar: ampersand
Encoding: 9 38 9
Width: 745
VWidth: 488
Flags: W
LayerCount: 2
Fore
SplineSet
639.16015625 305.17578125 m 0,0,1
 617.67578125 262.20703125 617.67578125 262.20703125 586.181640625 216.796875 c 0,2,3
 554.6875 171.38671875 554.6875 171.38671875 517.08984375 131.8359375 c 0,4,5
 535.15625 108.3984375 535.15625 108.3984375 551.7578125 93.26171875 c 0,6,7
 568.359375 78.125 568.359375 78.125 587.158203125 69.3359375 c 0,8,9
 605.95703125 60.546875 605.95703125 60.546875 628.173828125 57.373046875 c 0,10,11
 650.390625 54.19921875 650.390625 54.19921875 679.19921875 54.19921875 c 0,12,-1
 679.19921875 1.953125 l 0,13,14
 643.06640625 0.48828125 643.06640625 0.48828125 623.046875 -0.9765625 c 0,15,16
 603.02734375 -2.44140625 603.02734375 -2.44140625 588.8671875 -2.9296875 c 0,17,18
 550.78125 -5.859375 550.78125 -5.859375 513.18359375 0 c 0,19,20
 488.28125 5.37109375 488.28125 5.37109375 467.529296875 17.578125 c 0,21,22
 446.77734375 29.78515625 446.77734375 29.78515625 424.8046875 53.22265625 c 0,23,24
 405.2734375 40.0390625 405.2734375 40.0390625 383.056640625 28.3203125 c 0,25,26
 360.83984375 16.6015625 360.83984375 16.6015625 334.47265625 7.8125 c 0,27,28
 308.10546875 -0.9765625 308.10546875 -0.9765625 277.587890625 -6.103515625 c 0,29,30
 247.0703125 -11.23046875 247.0703125 -11.23046875 210.9375 -11.23046875 c 0,31,32
 164.0625 -11.23046875 164.0625 -11.23046875 127.197265625 1.220703125 c 0,33,34
 90.33203125 13.671875 90.33203125 13.671875 64.697265625 35.888671875 c 0,35,36
 39.0625 58.10546875 39.0625 58.10546875 25.634765625 89.111328125 c 0,37,38
 12.20703125 120.1171875 12.20703125 120.1171875 12.20703125 157.2265625 c 0,39,40
 12.20703125 193.84765625 12.20703125 193.84765625 25.634765625 224.365234375 c 0,41,42
 39.0625 254.8828125 39.0625 254.8828125 62.01171875 280.76171875 c 0,43,44
 84.9609375 306.640625 84.9609375 306.640625 116.2109375 328.125 c 0,45,46
 147.4609375 349.609375 147.4609375 349.609375 183.10546875 368.1640625 c 0,47,48
 160.15625 398.92578125 160.15625 398.92578125 145.01953125 429.443359375 c 0,49,50
 129.8828125 459.9609375 129.8828125 459.9609375 129.8828125 495.1171875 c 0,51,52
 129.8828125 533.69140625 129.8828125 533.69140625 146.484375 568.115234375 c 0,53,54
 163.0859375 602.5390625 163.0859375 602.5390625 194.580078125 628.173828125 c 0,55,56
 226.07421875 653.80859375 226.07421875 653.80859375 270.99609375 668.9453125 c 0,57,58
 315.91796875 684.08203125 315.91796875 684.08203125 373.046875 684.08203125 c 0,59,60
 415.52734375 684.08203125 415.52734375 684.08203125 447.998046875 672.607421875 c 0,61,62
 480.46875 661.1328125 480.46875 661.1328125 502.197265625 642.08984375 c 0,63,64
 523.92578125 623.046875 523.92578125 623.046875 534.912109375 598.6328125 c 0,65,66
 545.8984375 574.21875 545.8984375 574.21875 545.8984375 548.828125 c 0,67,68
 545.8984375 513.671875 545.8984375 513.671875 531.25 485.107421875 c 0,69,70
 516.6015625 456.54296875 516.6015625 456.54296875 489.990234375 433.10546875 c 0,71,72
 463.37890625 409.66796875 463.37890625 409.66796875 426.513671875 390.869140625 c 0,73,74
 389.6484375 372.0703125 389.6484375 372.0703125 345.21484375 356.93359375 c 0,75,-1
 464.84375 202.1484375 l 0,76,77
 482.91015625 225.5859375 482.91015625 225.5859375 497.0703125 250 c 0,78,79
 511.23046875 274.4140625 511.23046875 274.4140625 520.99609375 293.9453125 c 0,80,81
 521.97265625 295.41015625 521.97265625 295.41015625 520.99609375 299.31640625 c 0,82,83
 520.01953125 303.22265625 520.01953125 303.22265625 519.04296875 303.22265625 c 0,84,-1
 459.9609375 312.98828125 l 0,85,-1
 459.9609375 367.1875 l 0,86,-1
 712.890625 367.1875 l 0,87,-1
 712.890625 312.98828125 l 0,88,-1
 639.16015625 305.17578125 l 0,0,1
408.203125 541.015625 m 0,89,90
 408.203125 557.12890625 408.203125 557.12890625 406.005859375 572.265625 c 0,91,92
 403.80859375 587.40234375 403.80859375 587.40234375 397.705078125 599.12109375 c 0,93,94
 391.6015625 610.83984375 391.6015625 610.83984375 380.859375 617.919921875 c 0,95,96
 370.1171875 625 370.1171875 625 353.02734375 625 c 0,97,98
 344.23828125 625 344.23828125 625 328.857421875 619.62890625 c 0,99,100
 313.4765625 614.2578125 313.4765625 614.2578125 298.583984375 602.05078125 c 0,101,102
 283.69140625 589.84375 283.69140625 589.84375 272.4609375 569.82421875 c 0,103,104
 261.23046875 549.8046875 261.23046875 549.8046875 261.23046875 520.99609375 c 0,105,106
 261.23046875 505.37109375 261.23046875 505.37109375 264.892578125 489.990234375 c 0,107,108
 268.5546875 474.609375 268.5546875 474.609375 274.658203125 459.9609375 c 0,109,110
 280.76171875 445.3125 280.76171875 445.3125 289.0625 431.640625 c 0,111,112
 297.36328125 417.96875 297.36328125 417.96875 306.15234375 405.76171875 c 0,113,114
 329.1015625 416.50390625 329.1015625 416.50390625 347.900390625 429.931640625 c 0,115,116
 366.69921875 443.359375 366.69921875 443.359375 380.126953125 459.716796875 c 0,117,118
 393.5546875 476.07421875 393.5546875 476.07421875 400.87890625 496.09375 c 0,119,120
 408.203125 516.11328125 408.203125 516.11328125 408.203125 541.015625 c 0,89,90
226.07421875 309.08203125 m 0,121,122
 194.3359375 284.1796875 194.3359375 284.1796875 176.7578125 253.90625 c 0,123,124
 159.1796875 223.6328125 159.1796875 223.6328125 159.1796875 186.03515625 c 0,125,126
 159.1796875 155.2734375 159.1796875 155.2734375 169.677734375 132.080078125 c 0,127,128
 180.17578125 108.88671875 180.17578125 108.88671875 195.80078125 93.26171875 c 0,129,130
 211.42578125 77.63671875 211.42578125 77.63671875 229.248046875 69.82421875 c 0,131,132
 247.0703125 62.01171875 247.0703125 62.01171875 262.20703125 62.01171875 c 0,133,134
 277.83203125 62.01171875 277.83203125 62.01171875 291.015625 64.94140625 c 0,135,136
 304.19921875 67.87109375 304.19921875 67.87109375 317.138671875 73.73046875 c 0,137,138
 330.078125 79.58984375 330.078125 79.58984375 344.23828125 88.8671875 c 0,139,140
 358.3984375 98.14453125 358.3984375 98.14453125 375.9765625 110.83984375 c 0,141,-1
 226.07421875 309.08203125 l 0,121,122
EndSplineSet
EndChar

StartChar: quotesingle
Encoding: 10 39 10
Width: 174
VWidth: 488
Flags: W
LayerCount: 2
Fore
SplineSet
225.09765625 668.9453125 m 0,0,1
 225.09765625 661.1328125 225.09765625 661.1328125 219.7265625 642.333984375 c 0,2,3
 214.35546875 623.53515625 214.35546875 623.53515625 205.810546875 598.876953125 c 0,4,5
 197.265625 574.21875 197.265625 574.21875 186.767578125 546.630859375 c 0,6,7
 176.26953125 519.04296875 176.26953125 519.04296875 166.50390625 493.896484375 c 0,8,9
 156.73828125 468.75 156.73828125 468.75 148.681640625 447.998046875 c 0,10,11
 140.625 427.24609375 140.625 427.24609375 137.20703125 416.9921875 c 0,12,-1
 100.09765625 416.9921875 l 0,13,-1
 106.93359375 650.87890625 l 0,14,15
 107.421875 664.55078125 107.421875 664.55078125 113.76953125 676.025390625 c 0,16,17
 120.1171875 687.5 120.1171875 687.5 129.8828125 695.80078125 c 0,18,19
 139.6484375 704.1015625 139.6484375 704.1015625 151.85546875 708.984375 c 0,20,21
 164.0625 713.8671875 164.0625 713.8671875 176.7578125 713.8671875 c 0,22,23
 198.73046875 713.8671875 198.73046875 713.8671875 211.9140625 703.125 c 0,24,25
 225.09765625 692.3828125 225.09765625 692.3828125 225.09765625 668.9453125 c 0,0,1
EndSplineSet
EndChar

StartChar: parenleft
Encoding: 11 40 11
Width: 423
VWidth: 488
Flags: W
LayerCount: 2
Fore
SplineSet
460.9375 663.0859375 m 0,0,1
 422.8515625 658.203125 422.8515625 658.203125 391.357421875 638.427734375 c 0,2,3
 359.86328125 618.65234375 359.86328125 618.65234375 333.740234375 588.37890625 c 0,4,5
 307.6171875 558.10546875 307.6171875 558.10546875 286.865234375 519.04296875 c 0,6,7
 266.11328125 479.98046875 266.11328125 479.98046875 250.48828125 436.279296875 c 0,8,9
 234.86328125 392.578125 234.86328125 392.578125 223.6328125 346.6796875 c 0,10,11
 212.40234375 300.78125 212.40234375 300.78125 205.322265625 256.103515625 c 0,12,13
 198.2421875 211.42578125 198.2421875 211.42578125 195.068359375 170.654296875 c 0,14,15
 191.89453125 129.8828125 191.89453125 129.8828125 191.89453125 97.16796875 c 0,16,17
 191.89453125 64.453125 191.89453125 64.453125 196.77734375 33.203125 c 0,18,19
 201.66015625 1.953125 201.66015625 1.953125 215.087890625 -23.4375 c 0,20,21
 228.515625 -48.828125 228.515625 -48.828125 252.197265625 -65.91796875 c 0,22,23
 275.87890625 -83.0078125 275.87890625 -83.0078125 312.98828125 -87.890625 c 0,24,-1
 301.7578125 -142.08984375 l 0,25,26
 238.76953125 -140.625 238.76953125 -140.625 194.82421875 -118.408203125 c 0,27,28
 150.87890625 -96.19140625 150.87890625 -96.19140625 123.291015625 -58.837890625 c 0,29,30
 95.703125 -21.484375 95.703125 -21.484375 83.251953125 28.564453125 c 0,31,32
 70.80078125 78.61328125 70.80078125 78.61328125 70.80078125 136.23046875 c 0,33,34
 70.80078125 195.80078125 70.80078125 195.80078125 81.0546875 261.23046875 c 0,35,36
 91.30859375 326.66015625 91.30859375 326.66015625 112.3046875 390.625 c 0,37,38
 133.30078125 454.58984375 133.30078125 454.58984375 165.771484375 512.6953125 c 0,39,40
 198.2421875 570.80078125 198.2421875 570.80078125 242.67578125 615.478515625 c 0,41,42
 287.109375 660.15625 287.109375 660.15625 344.482421875 687.5 c 0,43,44
 401.85546875 714.84375 401.85546875 714.84375 472.16796875 716.796875 c 0,45,-1
 460.9375 663.0859375 l 0,0,1
EndSplineSet
EndChar

StartChar: parenright
Encoding: 12 41 12
Width: 423
VWidth: 488
Flags: W
LayerCount: 2
Fore
SplineSet
353.02734375 438.96484375 m 0,0,1
 353.02734375 379.8828125 353.02734375 379.8828125 343.017578125 314.453125 c 0,2,3
 333.0078125 249.0234375 333.0078125 249.0234375 311.767578125 185.05859375 c 0,4,5
 290.52734375 121.09375 290.52734375 121.09375 258.30078125 62.744140625 c 0,6,7
 226.07421875 4.39453125 226.07421875 4.39453125 181.396484375 -40.52734375 c 0,8,9
 136.71875 -85.44921875 136.71875 -85.44921875 79.58984375 -112.79296875 c 0,10,11
 22.4609375 -140.13671875 22.4609375 -140.13671875 -47.8515625 -142.08984375 c 0,12,-1
 -38.0859375 -87.890625 l 0,13,14
 0 -83.0078125 0 -83.0078125 31.73828125 -63.232421875 c 0,15,16
 63.4765625 -43.45703125 63.4765625 -43.45703125 89.35546875 -12.939453125 c 0,17,18
 115.234375 17.578125 115.234375 17.578125 135.986328125 56.884765625 c 0,19,20
 156.73828125 96.19140625 156.73828125 96.19140625 172.607421875 139.892578125 c 0,21,22
 188.4765625 183.59375 188.4765625 183.59375 199.70703125 229.736328125 c 0,23,24
 210.9375 275.87890625 210.9375 275.87890625 218.017578125 320.3125 c 0,25,26
 225.09765625 364.74609375 225.09765625 364.74609375 228.515625 405.517578125 c 0,27,28
 231.93359375 446.2890625 231.93359375 446.2890625 231.93359375 479.00390625 c 0,29,30
 231.93359375 511.71875 231.93359375 511.71875 227.05078125 542.724609375 c 0,31,32
 222.16796875 573.73046875 222.16796875 573.73046875 208.740234375 598.876953125 c 0,33,34
 195.3125 624.0234375 195.3125 624.0234375 171.630859375 641.11328125 c 0,35,36
 147.94921875 658.203125 147.94921875 658.203125 110.83984375 663.0859375 c 0,37,-1
 122.0703125 716.796875 l 0,38,39
 184.5703125 714.84375 184.5703125 714.84375 228.515625 692.87109375 c 0,40,41
 272.4609375 670.8984375 272.4609375 670.8984375 300.048828125 633.7890625 c 0,42,43
 327.63671875 596.6796875 327.63671875 596.6796875 340.33203125 546.630859375 c 0,44,45
 353.02734375 496.58203125 353.02734375 496.58203125 353.02734375 438.96484375 c 0,0,1
EndSplineSet
EndChar

StartChar: asterisk
Encoding: 13 42 13
Width: 500
VWidth: 488
Flags: W
LayerCount: 2
Fore
SplineSet
465.8203125 505.859375 m 0,0,-1
 336.9140625 506.8359375 l 0,1,-1
 331.0546875 521.97265625 l 0,2,-1
 437.01171875 600.09765625 l 0,3,-1
 509.765625 570.80078125 l 0,4,-1
 465.8203125 505.859375 l 0,0,-1
320.80078125 533.203125 m 0,5,-1
 305.17578125 533.203125 l 0,6,-1
 264.16015625 658.203125 l 0,7,-1
 312.98828125 717.7734375 l 0,8,-1
 362.79296875 658.203125 l 0,9,-1
 320.80078125 533.203125 l 0,5,-1
436.03515625 337.890625 m 0,10,-1
 358.88671875 357.91015625 l 0,11,-1
 318.84765625 481.93359375 l 0,12,-1
 332.03125 494.140625 l 0,13,-1
 437.98828125 416.015625 l 0,14,-1
 436.03515625 337.890625 l 0,10,-1
290.0390625 506.8359375 m 0,15,-1
 160.15625 505.859375 l 0,16,-1
 117.1875 570.80078125 l 0,17,-1
 187.98828125 600.09765625 l 0,18,-1
 294.921875 520.99609375 l 0,19,-1
 290.0390625 506.8359375 l 0,15,-1
268.06640625 357.91015625 m 0,20,-1
 190.91796875 337.890625 l 0,21,-1
 187.98828125 416.015625 l 0,22,-1
 294.921875 494.140625 l 0,23,-1
 308.10546875 481.93359375 l 0,24,-1
 268.06640625 357.91015625 l 0,20,-1
EndSplineSet
EndChar

StartChar: plus
Encoding: 14 43 14
Width: 1000
VWidth: 488
Flags: W
LayerCount: 2
Fore
SplineSet
530.76171875 269.04296875 m 0,0,-1
 530.76171875 0 l 0,1,-1
 469.23828125 0 l 0,2,-1
 469.23828125 269.04296875 l 0,3,-1
 200.1953125 269.04296875 l 0,4,-1
 200.1953125 331.0546875 l 0,5,-1
 469.23828125 331.0546875 l 0,6,-1
 469.23828125 600.09765625 l 0,7,-1
 530.76171875 600.09765625 l 0,8,-1
 530.76171875 331.0546875 l 0,9,-1
 799.8046875 331.0546875 l 0,10,-1
 799.8046875 269.04296875 l 0,11,-1
 530.76171875 269.04296875 l 0,0,-1
EndSplineSet
EndChar

StartChar: comma
Encoding: 15 44 15
Width: 320
VWidth: 488
Flags: W
LayerCount: 2
Fore
SplineSet
200.1953125 83.984375 m 0,0,1
 200.1953125 54.6875 200.1953125 54.6875 189.208984375 24.90234375 c 0,2,3
 178.22265625 -4.8828125 178.22265625 -4.8828125 159.1796875 -33.203125 c 0,4,5
 140.13671875 -61.5234375 140.13671875 -61.5234375 114.990234375 -86.669921875 c 0,6,7
 89.84375 -111.81640625 89.84375 -111.81640625 61.5234375 -130.859375 c 0,8,9
 33.203125 -149.90234375 33.203125 -149.90234375 3.173828125 -161.865234375 c 0,10,11
 -26.85546875 -173.828125 -26.85546875 -173.828125 -55.17578125 -175.78125 c 0,12,-1
 -45.8984375 -126.953125 l 0,13,14
 -18.06640625 -123.046875 -18.06640625 -123.046875 6.591796875 -112.3046875 c 0,15,16
 31.25 -101.5625 31.25 -101.5625 50.78125 -84.716796875 c 0,17,18
 70.3125 -67.87109375 70.3125 -67.87109375 83.49609375 -44.921875 c 0,19,20
 96.6796875 -21.97265625 96.6796875 -21.97265625 101.07421875 6.8359375 c 0,21,-1
 40.0390625 6.8359375 l 0,22,23
 30.2734375 16.11328125 30.2734375 16.11328125 25.146484375 28.3203125 c 0,24,25
 20.01953125 40.52734375 20.01953125 40.52734375 20.01953125 54.19921875 c 0,26,27
 20.01953125 74.21875 20.01953125 74.21875 28.564453125 92.529296875 c 0,28,29
 37.109375 110.83984375 37.109375 110.83984375 51.26953125 124.755859375 c 0,30,31
 65.4296875 138.671875 65.4296875 138.671875 83.984375 146.728515625 c 0,32,33
 102.5390625 154.78515625 102.5390625 154.78515625 123.046875 154.78515625 c 0,34,35
 156.73828125 154.78515625 156.73828125 154.78515625 178.466796875 137.451171875 c 0,36,37
 200.1953125 120.1171875 200.1953125 120.1171875 200.1953125 83.984375 c 0,0,1
EndSplineSet
EndChar

StartChar: hyphen
Encoding: 16 45 16
Width: 348
VWidth: 488
Flags: W
LayerCount: 2
Fore
SplineSet
291.9921875 187.98828125 m 0,0,-1
 29.78515625 187.98828125 l 0,1,-1
 50.78125 293.9453125 l 0,2,-1
 312.98828125 293.9453125 l 0,3,-1
 291.9921875 187.98828125 l 0,0,-1
EndSplineSet
EndChar

StartChar: period
Encoding: 17 46 17
Width: 317
VWidth: 488
Flags: W
LayerCount: 2
Fore
SplineSet
190.91796875 70.80078125 m 0,0,1
 190.91796875 53.7109375 190.91796875 53.7109375 184.326171875 38.57421875 c 0,2,3
 177.734375 23.4375 177.734375 23.4375 166.50390625 12.20703125 c 0,4,5
 155.2734375 0.9765625 155.2734375 0.9765625 140.13671875 -5.615234375 c 0,6,7
 125 -12.20703125 125 -12.20703125 107.91015625 -12.20703125 c 0,8,9
 90.8203125 -12.20703125 90.8203125 -12.20703125 75.439453125 -5.615234375 c 0,10,11
 60.05859375 0.9765625 60.05859375 0.9765625 48.583984375 12.20703125 c 0,12,13
 37.109375 23.4375 37.109375 23.4375 30.517578125 38.57421875 c 0,14,15
 23.92578125 53.7109375 23.92578125 53.7109375 23.92578125 70.80078125 c 0,16,17
 23.92578125 88.37890625 23.92578125 88.37890625 30.517578125 103.515625 c 0,18,19
 37.109375 118.65234375 37.109375 118.65234375 48.583984375 130.126953125 c 0,20,21
 60.05859375 141.6015625 60.05859375 141.6015625 75.439453125 148.193359375 c 0,22,23
 90.8203125 154.78515625 90.8203125 154.78515625 107.91015625 154.78515625 c 0,24,25
 125 154.78515625 125 154.78515625 140.13671875 148.193359375 c 0,26,27
 155.2734375 141.6015625 155.2734375 141.6015625 166.50390625 130.126953125 c 0,28,29
 177.734375 118.65234375 177.734375 118.65234375 184.326171875 103.515625 c 0,30,31
 190.91796875 88.37890625 190.91796875 88.37890625 190.91796875 70.80078125 c 0,0,1
EndSplineSet
EndChar

StartChar: slash
Encoding: 18 47 18
Width: 500
VWidth: 488
Flags: W
LayerCount: 2
Fore
SplineSet
78.125 -92.7734375 m 0,0,-1
 0 -92.7734375 l 0,1,-1
 421.875 670.8984375 l 0,2,-1
 500.9765625 670.8984375 l 0,3,-1
 78.125 -92.7734375 l 0,0,-1
EndSplineSet
EndChar

StartChar: zero
Encoding: 19 48 19
Width: 598
VWidth: 488
Flags: W
LayerCount: 2
Fore
SplineSet
592.7734375 459.9609375 m 0,0,1
 592.7734375 403.3203125 592.7734375 403.3203125 583.0078125 346.19140625 c 0,2,3
 573.2421875 289.0625 573.2421875 289.0625 553.7109375 236.083984375 c 0,4,5
 534.1796875 183.10546875 534.1796875 183.10546875 505.37109375 137.20703125 c 0,6,7
 476.5625 91.30859375 476.5625 91.30859375 438.232421875 57.12890625 c 0,8,9
 399.90234375 22.94921875 399.90234375 22.94921875 352.5390625 3.41796875 c 0,10,11
 305.17578125 -16.11328125 305.17578125 -16.11328125 249.0234375 -16.11328125 c 0,12,13
 192.3828125 -16.11328125 192.3828125 -16.11328125 151.85546875 0 c 0,14,15
 111.328125 16.11328125 111.328125 16.11328125 85.205078125 45.8984375 c 0,16,17
 59.08203125 75.68359375 59.08203125 75.68359375 46.630859375 117.431640625 c 0,18,19
 34.1796875 159.1796875 34.1796875 159.1796875 34.1796875 209.9609375 c 0,20,21
 34.1796875 260.7421875 34.1796875 260.7421875 42.96875 315.91796875 c 0,22,23
 51.7578125 371.09375 51.7578125 371.09375 69.82421875 424.072265625 c 0,24,25
 87.890625 477.05078125 87.890625 477.05078125 115.72265625 524.658203125 c 0,26,27
 143.5546875 572.265625 143.5546875 572.265625 181.884765625 608.3984375 c 0,28,29
 220.21484375 644.53125 220.21484375 644.53125 269.53125 665.771484375 c 0,30,31
 318.84765625 687.01171875 318.84765625 687.01171875 379.8828125 687.01171875 c 0,32,33
 439.453125 687.01171875 439.453125 687.01171875 480.224609375 668.45703125 c 0,34,35
 520.99609375 649.90234375 520.99609375 649.90234375 545.8984375 618.896484375 c 0,36,37
 570.80078125 587.890625 570.80078125 587.890625 581.787109375 546.630859375 c 0,38,39
 592.7734375 505.37109375 592.7734375 505.37109375 592.7734375 459.9609375 c 0,0,1
442.87109375 478.02734375 m 0,40,41
 442.87109375 520.01953125 442.87109375 520.01953125 435.05859375 548.33984375 c 0,42,43
 427.24609375 576.66015625 427.24609375 576.66015625 415.771484375 593.994140625 c 0,44,45
 404.296875 611.328125 404.296875 611.328125 391.845703125 618.65234375 c 0,46,47
 379.39453125 625.9765625 379.39453125 625.9765625 370.1171875 625.9765625 c 0,48,49
 346.19140625 625.9765625 346.19140625 625.9765625 322.998046875 607.177734375 c 0,50,51
 299.8046875 588.37890625 299.8046875 588.37890625 279.296875 556.15234375 c 0,52,53
 258.7890625 523.92578125 258.7890625 523.92578125 241.455078125 481.201171875 c 0,54,55
 224.12109375 438.4765625 224.12109375 438.4765625 211.669921875 390.380859375 c 0,56,57
 199.21875 342.28515625 199.21875 342.28515625 192.138671875 291.748046875 c 0,58,59
 185.05859375 241.2109375 185.05859375 241.2109375 185.05859375 193.84765625 c 0,60,61
 185.05859375 159.1796875 185.05859375 159.1796875 189.94140625 134.765625 c 0,62,63
 194.82421875 110.3515625 194.82421875 110.3515625 202.1484375 93.994140625 c 0,64,65
 209.47265625 77.63671875 209.47265625 77.63671875 218.26171875 67.87109375 c 0,66,67
 227.05078125 58.10546875 227.05078125 58.10546875 235.3515625 53.22265625 c 0,68,69
 243.65234375 48.33984375 243.65234375 48.33984375 250 47.119140625 c 0,70,71
 256.34765625 45.8984375 256.34765625 45.8984375 258.7890625 45.8984375 c 0,72,73
 281.25 45.8984375 281.25 45.8984375 303.7109375 64.697265625 c 0,74,75
 326.171875 83.49609375 326.171875 83.49609375 346.6796875 115.478515625 c 0,76,77
 367.1875 147.4609375 367.1875 147.4609375 384.765625 190.185546875 c 0,78,79
 402.34375 232.91015625 402.34375 232.91015625 415.283203125 280.76171875 c 0,80,81
 428.22265625 328.61328125 428.22265625 328.61328125 435.546875 379.39453125 c 0,82,83
 442.87109375 430.17578125 442.87109375 430.17578125 442.87109375 478.02734375 c 0,40,41
EndSplineSet
EndChar

StartChar: one
Encoding: 20 49 20
Width: 598
VWidth: 488
Flags: W
LayerCount: 2
Fore
SplineSet
346.19140625 76.171875 m 0,0,1
 344.7265625 69.82421875 344.7265625 69.82421875 350.341796875 66.40625 c 0,2,3
 355.95703125 62.98828125 355.95703125 62.98828125 365.234375 62.01171875 c 0,4,-1
 439.94140625 55.17578125 l 0,5,-1
 439.94140625 0 l 0,6,-1
 83.984375 0 l 0,7,-1
 83.984375 56.15234375 l 0,8,-1
 187.01171875 62.01171875 l 0,9,10
 192.87109375 62.01171875 192.87109375 62.01171875 197.998046875 66.40625 c 0,11,12
 203.125 70.80078125 203.125 70.80078125 204.1015625 76.171875 c 0,13,-1
 304.19921875 583.0078125 l 0,14,-1
 148.92578125 562.01171875 l 0,15,-1
 148.92578125 618.1640625 l 0,16,-1
 397.94921875 687.01171875 l 0,17,-1
 465.8203125 687.01171875 l 0,18,-1
 346.19140625 76.171875 l 0,0,1
EndSplineSet
EndChar

StartChar: two
Encoding: 21 50 21
Width: 598
VWidth: 488
Flags: W
LayerCount: 2
Fore
SplineSet
577.1484375 535.15625 m 0,0,1
 577.1484375 500.9765625 577.1484375 500.9765625 565.185546875 467.529296875 c 0,2,3
 553.22265625 434.08203125 553.22265625 434.08203125 532.2265625 401.85546875 c 0,4,5
 511.23046875 369.62890625 511.23046875 369.62890625 483.154296875 338.8671875 c 0,6,7
 455.078125 308.10546875 455.078125 308.10546875 422.8515625 279.78515625 c 0,8,9
 368.65234375 232.421875 368.65234375 232.421875 301.7578125 186.03515625 c 0,10,11
 234.86328125 139.6484375 234.86328125 139.6484375 166.9921875 92.7734375 c 0,12,-1
 421.875 92.7734375 l 0,13,-1
 456.0546875 175.78125 l 0,14,-1
 533.203125 175.78125 l 0,15,-1
 500 0 l 0,16,-1
 -20.99609375 0 l 0,17,-1
 -7.8125 70.80078125 l 0,18,19
 101.07421875 146.97265625 101.07421875 146.97265625 181.396484375 207.03125 c 0,20,21
 261.71875 267.08984375 261.71875 267.08984375 314.697265625 319.3359375 c 0,22,23
 367.67578125 371.58203125 367.67578125 371.58203125 393.798828125 420.41015625 c 0,24,25
 419.921875 469.23828125 419.921875 469.23828125 419.921875 522.94921875 c 0,26,27
 419.921875 552.24609375 419.921875 552.24609375 411.62109375 571.533203125 c 0,28,29
 403.3203125 590.8203125 403.3203125 590.8203125 391.11328125 602.294921875 c 0,30,31
 378.90625 613.76953125 378.90625 613.76953125 364.74609375 618.408203125 c 0,32,33
 350.5859375 623.046875 350.5859375 623.046875 338.8671875 623.046875 c 0,34,35
 328.125 623.046875 328.125 623.046875 317.3828125 620.849609375 c 0,36,37
 306.640625 618.65234375 306.640625 618.65234375 297.119140625 615.72265625 c 0,38,39
 287.59765625 612.79296875 287.59765625 612.79296875 279.78515625 609.375 c 0,40,41
 271.97265625 605.95703125 271.97265625 605.95703125 267.08984375 604.00390625 c 0,42,-1
 247.0703125 500 l 0,43,44
 242.1875 497.0703125 242.1875 497.0703125 237.3046875 492.431640625 c 0,45,46
 232.421875 487.79296875 232.421875 487.79296875 225.09765625 483.642578125 c 0,47,48
 217.7734375 479.4921875 217.7734375 479.4921875 206.787109375 476.318359375 c 0,49,50
 195.80078125 473.14453125 195.80078125 473.14453125 179.19921875 473.14453125 c 0,51,52
 161.62109375 473.14453125 161.62109375 473.14453125 147.705078125 478.271484375 c 0,53,54
 133.7890625 483.3984375 133.7890625 483.3984375 123.779296875 491.943359375 c 0,55,56
 113.76953125 500.48828125 113.76953125 500.48828125 108.3984375 511.962890625 c 0,57,58
 103.02734375 523.4375 103.02734375 523.4375 103.02734375 536.1328125 c 0,59,60
 103.02734375 570.3125 103.02734375 570.3125 122.55859375 598.388671875 c 0,61,62
 142.08984375 626.46484375 142.08984375 626.46484375 177.734375 645.99609375 c 0,63,64
 213.37890625 665.52734375 213.37890625 665.52734375 262.451171875 676.26953125 c 0,65,66
 311.5234375 687.01171875 311.5234375 687.01171875 371.09375 687.01171875 c 0,67,68
 419.43359375 687.01171875 419.43359375 687.01171875 457.763671875 677.734375 c 0,69,70
 496.09375 668.45703125 496.09375 668.45703125 522.4609375 649.658203125 c 0,71,72
 548.828125 630.859375 548.828125 630.859375 562.98828125 602.294921875 c 0,73,74
 577.1484375 573.73046875 577.1484375 573.73046875 577.1484375 535.15625 c 0,0,1
EndSplineSet
EndChar

StartChar: three
Encoding: 22 51 22
Width: 598
VWidth: 488
Flags: W
LayerCount: 2
Fore
SplineSet
575.1953125 541.9921875 m 0,0,1
 575.1953125 517.08984375 575.1953125 517.08984375 564.94140625 490.966796875 c 0,2,3
 554.6875 464.84375 554.6875 464.84375 533.203125 440.673828125 c 0,4,5
 511.71875 416.50390625 511.71875 416.50390625 478.271484375 395.263671875 c 0,6,7
 444.82421875 374.0234375 444.82421875 374.0234375 398.92578125 358.88671875 c 0,8,9
 464.35546875 346.19140625 464.35546875 346.19140625 499.267578125 315.185546875 c 0,10,11
 534.1796875 284.1796875 534.1796875 284.1796875 534.1796875 229.98046875 c 0,12,13
 534.1796875 199.21875 534.1796875 199.21875 523.92578125 169.189453125 c 0,14,15
 513.671875 139.16015625 513.671875 139.16015625 494.384765625 111.81640625 c 0,16,17
 475.09765625 84.47265625 475.09765625 84.47265625 447.021484375 61.03515625 c 0,18,19
 418.9453125 37.59765625 418.9453125 37.59765625 383.056640625 20.5078125 c 0,20,21
 347.16796875 3.41796875 347.16796875 3.41796875 303.7109375 -6.34765625 c 0,22,23
 260.25390625 -16.11328125 260.25390625 -16.11328125 210.9375 -16.11328125 c 0,24,25
 156.73828125 -16.11328125 156.73828125 -16.11328125 118.896484375 -4.8828125 c 0,26,27
 81.0546875 6.34765625 81.0546875 6.34765625 57.12890625 23.4375 c 0,28,29
 33.203125 40.52734375 33.203125 40.52734375 22.216796875 60.546875 c 0,30,31
 11.23046875 80.56640625 11.23046875 80.56640625 11.23046875 98.14453125 c 0,32,33
 11.23046875 105.46875 11.23046875 105.46875 16.11328125 117.67578125 c 0,34,35
 20.99609375 129.8828125 20.99609375 129.8828125 30.76171875 141.6015625 c 0,36,37
 40.52734375 153.3203125 40.52734375 153.3203125 54.931640625 161.62109375 c 0,38,39
 69.3359375 169.921875 69.3359375 169.921875 88.8671875 169.921875 c 0,40,41
 100.5859375 169.921875 100.5859375 169.921875 109.375 167.236328125 c 0,42,43
 118.1640625 164.55078125 118.1640625 164.55078125 125.244140625 160.64453125 c 0,44,45
 132.32421875 156.73828125 132.32421875 156.73828125 137.6953125 152.83203125 c 0,46,47
 143.06640625 148.92578125 143.06640625 148.92578125 147.94921875 146.97265625 c 0,48,-1
 164.0625 62.98828125 l 0,49,50
 166.9921875 61.03515625 166.9921875 61.03515625 173.583984375 58.10546875 c 0,51,52
 180.17578125 55.17578125 180.17578125 55.17578125 188.720703125 52.24609375 c 0,53,54
 197.265625 49.31640625 197.265625 49.31640625 206.298828125 47.119140625 c 0,55,56
 215.33203125 44.921875 215.33203125 44.921875 223.14453125 44.921875 c 0,57,58
 249.51171875 44.921875 249.51171875 44.921875 277.099609375 57.373046875 c 0,59,60
 304.6875 69.82421875 304.6875 69.82421875 327.63671875 92.28515625 c 0,61,62
 350.5859375 114.74609375 350.5859375 114.74609375 365.234375 146.240234375 c 0,63,64
 379.8828125 177.734375 379.8828125 177.734375 379.8828125 215.8203125 c 0,65,66
 379.8828125 239.2578125 379.8828125 239.2578125 374.0234375 255.859375 c 0,67,68
 368.1640625 272.4609375 368.1640625 272.4609375 359.130859375 283.69140625 c 0,69,70
 350.09765625 294.921875 350.09765625 294.921875 339.111328125 301.513671875 c 0,71,72
 328.125 308.10546875 328.125 308.10546875 318.115234375 311.5234375 c 0,73,74
 308.10546875 314.94140625 308.10546875 314.94140625 300.29296875 315.91796875 c 0,75,76
 292.48046875 316.89453125 292.48046875 316.89453125 290.0390625 316.89453125 c 0,77,78
 282.71484375 316.89453125 282.71484375 316.89453125 275.390625 316.40625 c 0,79,80
 268.06640625 315.91796875 268.06640625 315.91796875 257.8125 314.453125 c 0,81,82
 247.55859375 312.98828125 247.55859375 312.98828125 232.91015625 310.791015625 c 0,83,84
 218.26171875 308.59375 218.26171875 308.59375 196.77734375 305.17578125 c 0,85,-1
 208.0078125 382.8125 l 0,86,87
 253.90625 380.37109375 253.90625 380.37109375 292.48046875 389.6484375 c 0,88,89
 331.0546875 398.92578125 331.0546875 398.92578125 359.130859375 417.96875 c 0,90,91
 387.20703125 437.01171875 387.20703125 437.01171875 403.076171875 465.087890625 c 0,92,93
 418.9453125 493.1640625 418.9453125 493.1640625 418.9453125 528.80859375 c 0,94,95
 418.9453125 558.59375 418.9453125 558.59375 408.447265625 577.63671875 c 0,96,97
 397.94921875 596.6796875 397.94921875 596.6796875 384.27734375 607.421875 c 0,98,99
 370.60546875 618.1640625 370.60546875 618.1640625 357.666015625 622.0703125 c 0,100,101
 344.7265625 625.9765625 344.7265625 625.9765625 339.84375 625.9765625 c 0,102,103
 326.66015625 625.9765625 326.66015625 625.9765625 314.94140625 623.291015625 c 0,104,105
 303.22265625 620.60546875 303.22265625 620.60546875 293.9453125 616.455078125 c 0,106,107
 284.66796875 612.3046875 284.66796875 612.3046875 277.83203125 608.154296875 c 0,108,109
 270.99609375 604.00390625 270.99609375 604.00390625 267.08984375 601.07421875 c 0,110,-1
 250.9765625 505.859375 l 0,111,112
 245.60546875 503.41796875 245.60546875 503.41796875 237.3046875 500 c 0,113,114
 229.00390625 496.58203125 229.00390625 496.58203125 219.482421875 493.1640625 c 0,115,116
 209.9609375 489.74609375 209.9609375 489.74609375 199.951171875 487.3046875 c 0,117,118
 189.94140625 484.86328125 189.94140625 484.86328125 181.15234375 484.86328125 c 0,119,120
 169.921875 484.86328125 169.921875 484.86328125 157.958984375 490.234375 c 0,121,122
 145.99609375 495.60546875 145.99609375 495.60546875 135.986328125 505.126953125 c 0,123,124
 125.9765625 514.6484375 125.9765625 514.6484375 119.384765625 526.85546875 c 0,125,126
 112.79296875 539.0625 112.79296875 539.0625 112.79296875 553.22265625 c 0,127,128
 112.79296875 582.51953125 112.79296875 582.51953125 133.30078125 606.93359375 c 0,129,130
 153.80859375 631.34765625 153.80859375 631.34765625 188.96484375 649.169921875 c 0,131,132
 224.12109375 666.9921875 224.12109375 666.9921875 271.484375 677.001953125 c 0,133,134
 318.84765625 687.01171875 318.84765625 687.01171875 373.046875 687.01171875 c 0,135,136
 425.78125 687.01171875 425.78125 687.01171875 463.8671875 676.7578125 c 0,137,138
 501.953125 666.50390625 501.953125 666.50390625 526.611328125 647.4609375 c 0,139,140
 551.26953125 628.41796875 551.26953125 628.41796875 563.232421875 601.5625 c 0,141,142
 575.1953125 574.70703125 575.1953125 574.70703125 575.1953125 541.9921875 c 0,0,1
EndSplineSet
EndChar

StartChar: four
Encoding: 23 52 23
Width: 598
VWidth: 488
Flags: W
LayerCount: 2
Fore
SplineSet
549.8046875 199.21875 m 0,0,-1
 457.03125 199.21875 l 0,1,-1
 413.0859375 -26.85546875 l 0,2,-1
 276.85546875 -26.85546875 l 0,3,-1
 321.77734375 199.21875 l 0,4,-1
 20.99609375 199.21875 l 0,5,-1
 34.1796875 270.99609375 l 0,6,-1
 440.91796875 687.01171875 l 0,7,-1
 554.19921875 687.01171875 l 0,8,-1
 474.12109375 276.85546875 l 0,9,-1
 564.94140625 276.85546875 l 0,10,-1
 549.8046875 199.21875 l 0,0,-1
181.15234375 276.85546875 m 0,11,-1
 337.890625 276.85546875 l 0,12,-1
 377.9296875 479.00390625 l 0,13,-1
 181.15234375 276.85546875 l 0,11,-1
EndSplineSet
EndChar

StartChar: five
Encoding: 24 53 24
Width: 598
VWidth: 488
Flags: W
LayerCount: 2
Fore
SplineSet
567.87109375 581.0546875 m 0,0,-1
 276.85546875 581.0546875 l 0,1,-1
 242.1875 408.203125 l 0,2,3
 257.8125 411.1328125 257.8125 411.1328125 277.587890625 413.0859375 c 0,4,5
 297.36328125 415.0390625 297.36328125 415.0390625 320.80078125 415.0390625 c 0,6,7
 364.2578125 415.0390625 364.2578125 415.0390625 402.587890625 405.76171875 c 0,8,9
 440.91796875 396.484375 440.91796875 396.484375 469.482421875 376.708984375 c 0,10,11
 498.046875 356.93359375 498.046875 356.93359375 514.404296875 325.68359375 c 0,12,13
 530.76171875 294.43359375 530.76171875 294.43359375 530.76171875 250 c 0,14,15
 530.76171875 198.2421875 530.76171875 198.2421875 506.591796875 150.146484375 c 0,16,17
 482.421875 102.05078125 482.421875 102.05078125 438.4765625 65.185546875 c 0,18,19
 394.53125 28.3203125 394.53125 28.3203125 333.251953125 6.103515625 c 0,20,21
 271.97265625 -16.11328125 271.97265625 -16.11328125 198.2421875 -16.11328125 c 0,22,23
 149.90234375 -16.11328125 149.90234375 -16.11328125 114.2578125 -8.7890625 c 0,24,25
 78.61328125 -1.46484375 78.61328125 -1.46484375 55.419921875 11.71875 c 0,26,27
 32.2265625 24.90234375 32.2265625 24.90234375 20.99609375 42.724609375 c 0,28,29
 9.765625 60.546875 9.765625 60.546875 9.765625 81.0546875 c 0,30,31
 9.765625 94.23828125 9.765625 94.23828125 16.11328125 107.666015625 c 0,32,33
 22.4609375 121.09375 22.4609375 121.09375 33.447265625 131.591796875 c 0,34,35
 44.43359375 142.08984375 44.43359375 142.08984375 59.5703125 148.92578125 c 0,36,37
 74.70703125 155.76171875 74.70703125 155.76171875 92.7734375 155.76171875 c 0,38,39
 100.09765625 155.76171875 100.09765625 155.76171875 106.201171875 153.80859375 c 0,40,41
 112.3046875 151.85546875 112.3046875 151.85546875 117.919921875 149.169921875 c 0,42,43
 123.53515625 146.484375 123.53515625 146.484375 128.90625 143.798828125 c 0,44,45
 134.27734375 141.11328125 134.27734375 141.11328125 140.13671875 140.13671875 c 0,46,-1
 166.9921875 55.17578125 l 0,47,48
 169.921875 54.19921875 169.921875 54.19921875 177.001953125 52.734375 c 0,49,50
 184.08203125 51.26953125 184.08203125 51.26953125 192.138671875 49.31640625 c 0,51,52
 200.1953125 47.36328125 200.1953125 47.36328125 208.251953125 46.142578125 c 0,53,54
 216.30859375 44.921875 216.30859375 44.921875 221.19140625 44.921875 c 0,55,56
 249.0234375 44.921875 249.0234375 44.921875 277.587890625 58.837890625 c 0,57,58
 306.15234375 72.75390625 306.15234375 72.75390625 329.58984375 97.16796875 c 0,59,60
 353.02734375 121.58203125 353.02734375 121.58203125 367.919921875 154.296875 c 0,61,62
 382.8125 187.01171875 382.8125 187.01171875 382.8125 225.09765625 c 0,63,64
 382.8125 263.18359375 382.8125 263.18359375 368.408203125 286.62109375 c 0,65,66
 354.00390625 310.05859375 354.00390625 310.05859375 332.51953125 322.998046875 c 0,67,68
 311.03515625 335.9375 311.03515625 335.9375 285.400390625 340.576171875 c 0,69,70
 259.765625 345.21484375 259.765625 345.21484375 237.79296875 345.21484375 c 0,71,72
 227.5390625 345.21484375 227.5390625 345.21484375 209.228515625 343.75 c 0,73,74
 190.91796875 342.28515625 190.91796875 342.28515625 171.38671875 340.576171875 c 0,75,76
 151.85546875 338.8671875 151.85546875 338.8671875 134.033203125 336.9140625 c 0,77,78
 116.2109375 334.9609375 116.2109375 334.9609375 106.93359375 333.984375 c 0,79,-1
 176.7578125 670.8984375 l 0,80,-1
 584.9609375 670.8984375 l 0,81,-1
 567.87109375 581.0546875 l 0,0,-1
EndSplineSet
EndChar

StartChar: six
Encoding: 25 54 25
Width: 598
VWidth: 488
Flags: W
LayerCount: 2
Fore
SplineSet
561.03515625 271.97265625 m 0,0,1
 561.03515625 234.86328125 561.03515625 234.86328125 551.7578125 198.974609375 c 0,2,3
 542.48046875 163.0859375 542.48046875 163.0859375 524.658203125 131.103515625 c 0,4,5
 506.8359375 99.12109375 506.8359375 99.12109375 481.201171875 72.021484375 c 0,6,7
 455.56640625 44.921875 455.56640625 44.921875 422.8515625 25.390625 c 0,8,9
 390.13671875 5.859375 390.13671875 5.859375 350.830078125 -5.126953125 c 0,10,11
 311.5234375 -16.11328125 311.5234375 -16.11328125 267.08984375 -16.11328125 c 0,12,13
 222.16796875 -16.11328125 222.16796875 -16.11328125 180.419921875 -4.8828125 c 0,14,15
 138.671875 6.34765625 138.671875 6.34765625 105.95703125 33.203125 c 0,16,17
 73.2421875 60.05859375 73.2421875 60.05859375 53.7109375 104.98046875 c 0,18,19
 34.1796875 149.90234375 34.1796875 149.90234375 34.1796875 216.796875 c 0,20,21
 34.1796875 276.3671875 34.1796875 276.3671875 49.072265625 334.47265625 c 0,22,23
 63.96484375 392.578125 63.96484375 392.578125 93.26171875 445.556640625 c 0,24,25
 122.55859375 498.53515625 122.55859375 498.53515625 165.771484375 544.677734375 c 0,26,27
 208.984375 590.8203125 208.984375 590.8203125 266.11328125 626.708984375 c 0,28,29
 323.2421875 662.59765625 323.2421875 662.59765625 393.798828125 686.5234375 c 0,30,31
 464.35546875 710.44921875 464.35546875 710.44921875 547.8515625 719.23828125 c 0,32,-1
 548.828125 653.80859375 l 0,33,34
 489.74609375 647.4609375 489.74609375 647.4609375 438.4765625 628.41796875 c 0,35,36
 387.20703125 609.375 387.20703125 609.375 345.947265625 580.078125 c 0,37,38
 304.6875 550.78125 304.6875 550.78125 274.4140625 512.451171875 c 0,39,40
 244.140625 474.12109375 244.140625 474.12109375 227.05078125 430.17578125 c 0,41,42
 254.39453125 441.89453125 254.39453125 441.89453125 286.62109375 448.974609375 c 0,43,44
 318.84765625 456.0546875 318.84765625 456.0546875 356.93359375 456.0546875 c 0,45,46
 406.73828125 456.0546875 406.73828125 456.0546875 445.068359375 442.3828125 c 0,47,48
 483.3984375 428.7109375 483.3984375 428.7109375 509.033203125 404.296875 c 0,49,50
 534.66796875 379.8828125 534.66796875 379.8828125 547.8515625 346.19140625 c 0,51,52
 561.03515625 312.5 561.03515625 312.5 561.03515625 271.97265625 c 0,0,1
413.0859375 247.0703125 m 0,53,54
 413.0859375 280.76171875 413.0859375 280.76171875 405.517578125 305.908203125 c 0,55,56
 397.94921875 331.0546875 397.94921875 331.0546875 384.521484375 347.900390625 c 0,57,58
 371.09375 364.74609375 371.09375 364.74609375 353.02734375 373.291015625 c 0,59,60
 334.9609375 381.8359375 334.9609375 381.8359375 313.96484375 381.8359375 c 0,61,62
 306.15234375 381.8359375 306.15234375 381.8359375 295.166015625 380.126953125 c 0,63,64
 284.1796875 378.41796875 284.1796875 378.41796875 270.263671875 373.291015625 c 0,65,66
 256.34765625 368.1640625 256.34765625 368.1640625 239.2578125 359.130859375 c 0,67,68
 222.16796875 350.09765625 222.16796875 350.09765625 202.1484375 334.9609375 c 0,69,70
 200.68359375 329.58984375 200.68359375 329.58984375 197.265625 315.185546875 c 0,71,72
 193.84765625 300.78125 193.84765625 300.78125 190.673828125 282.2265625 c 0,73,74
 187.5 263.671875 187.5 263.671875 184.814453125 243.408203125 c 0,75,76
 182.12890625 223.14453125 182.12890625 223.14453125 182.12890625 206.0546875 c 0,77,78
 182.12890625 181.640625 182.12890625 181.640625 183.59375 153.3203125 c 0,79,80
 185.05859375 125 185.05859375 125 193.603515625 100.5859375 c 0,81,82
 202.1484375 76.171875 202.1484375 76.171875 220.458984375 60.05859375 c 0,83,84
 238.76953125 43.9453125 238.76953125 43.9453125 271.97265625 43.9453125 c 0,85,86
 293.45703125 43.9453125 293.45703125 43.9453125 318.115234375 59.326171875 c 0,87,88
 342.7734375 74.70703125 342.7734375 74.70703125 364.013671875 101.806640625 c 0,89,90
 385.25390625 128.90625 385.25390625 128.90625 399.169921875 166.259765625 c 0,91,92
 413.0859375 203.61328125 413.0859375 203.61328125 413.0859375 247.0703125 c 0,53,54
EndSplineSet
EndChar

StartChar: seven
Encoding: 26 55 26
Width: 598
VWidth: 488
Flags: W
LayerCount: 2
Fore
SplineSet
638.18359375 623.046875 m 0,0,-1
 183.10546875 -8.7890625 l 0,1,-1
 175.78125 -37.109375 l 0,2,-1
 32.2265625 -37.109375 l 0,3,-1
 478.02734375 581.0546875 l 0,4,-1
 206.0546875 581.0546875 l 0,5,-1
 173.828125 492.1875 l 0,6,-1
 92.7734375 492.1875 l 0,7,-1
 128.90625 670.8984375 l 0,8,-1
 646.97265625 670.8984375 l 0,9,-1
 638.18359375 623.046875 l 0,0,-1
EndSplineSet
EndChar

StartChar: eight
Encoding: 27 56 27
Width: 598
VWidth: 488
Flags: W
LayerCount: 2
Fore
SplineSet
571.77734375 542.96875 m 0,0,1
 571.77734375 504.8828125 571.77734375 504.8828125 560.05859375 476.07421875 c 0,2,3
 548.33984375 447.265625 548.33984375 447.265625 528.3203125 425.29296875 c 0,4,5
 508.30078125 403.3203125 508.30078125 403.3203125 481.4453125 386.474609375 c 0,6,7
 454.58984375 369.62890625 454.58984375 369.62890625 424.8046875 355.95703125 c 0,8,9
 444.82421875 347.16796875 444.82421875 347.16796875 466.30859375 334.47265625 c 0,10,11
 487.79296875 321.77734375 487.79296875 321.77734375 505.859375 304.19921875 c 0,12,13
 523.92578125 286.62109375 523.92578125 286.62109375 535.400390625 263.671875 c 0,14,15
 546.875 240.72265625 546.875 240.72265625 546.875 210.9375 c 0,16,17
 546.875 166.015625 546.875 166.015625 525.87890625 125 c 0,18,19
 504.8828125 83.984375 504.8828125 83.984375 466.064453125 52.734375 c 0,20,21
 427.24609375 21.484375 427.24609375 21.484375 372.314453125 2.685546875 c 0,22,23
 317.3828125 -16.11328125 317.3828125 -16.11328125 249.0234375 -16.11328125 c 0,24,25
 187.98828125 -16.11328125 187.98828125 -16.11328125 144.04296875 -3.173828125 c 0,26,27
 100.09765625 9.765625 100.09765625 9.765625 71.2890625 32.2265625 c 0,28,29
 42.48046875 54.6875 42.48046875 54.6875 28.80859375 85.205078125 c 0,30,31
 15.13671875 115.72265625 15.13671875 115.72265625 15.13671875 150.87890625 c 0,32,33
 15.13671875 174.31640625 15.13671875 174.31640625 23.4375 201.171875 c 0,34,35
 31.73828125 228.02734375 31.73828125 228.02734375 51.025390625 254.638671875 c 0,36,37
 70.3125 281.25 70.3125 281.25 102.294921875 306.884765625 c 0,38,39
 134.27734375 332.51953125 134.27734375 332.51953125 182.12890625 354.00390625 c 0,40,41
 157.2265625 367.67578125 157.2265625 367.67578125 141.845703125 383.30078125 c 0,42,43
 126.46484375 398.92578125 126.46484375 398.92578125 117.919921875 414.794921875 c 0,44,45
 109.375 430.6640625 109.375 430.6640625 106.201171875 446.2890625 c 0,46,47
 103.02734375 461.9140625 103.02734375 461.9140625 103.02734375 476.07421875 c 0,48,49
 103.02734375 515.625 103.02734375 515.625 119.62890625 553.466796875 c 0,50,51
 136.23046875 591.30859375 136.23046875 591.30859375 169.189453125 620.849609375 c 0,52,53
 202.1484375 650.390625 202.1484375 650.390625 251.953125 668.701171875 c 0,54,55
 301.7578125 687.01171875 301.7578125 687.01171875 368.1640625 687.01171875 c 0,56,57
 423.33984375 687.01171875 423.33984375 687.01171875 461.9140625 675.048828125 c 0,58,59
 500.48828125 663.0859375 500.48828125 663.0859375 524.90234375 643.06640625 c 0,60,61
 549.31640625 623.046875 549.31640625 623.046875 560.546875 597.16796875 c 0,62,63
 571.77734375 571.2890625 571.77734375 571.2890625 571.77734375 542.96875 c 0,0,1
435.05859375 534.1796875 m 0,64,65
 435.05859375 555.17578125 435.05859375 555.17578125 431.15234375 572.509765625 c 0,66,67
 427.24609375 589.84375 427.24609375 589.84375 418.212890625 602.294921875 c 0,68,69
 409.1796875 614.74609375 409.1796875 614.74609375 394.53125 621.826171875 c 0,70,71
 379.8828125 628.90625 379.8828125 628.90625 358.88671875 628.90625 c 0,72,73
 340.8203125 628.90625 340.8203125 628.90625 320.80078125 619.384765625 c 0,74,75
 300.78125 609.86328125 300.78125 609.86328125 283.935546875 592.7734375 c 0,76,77
 267.08984375 575.68359375 267.08984375 575.68359375 256.103515625 551.513671875 c 0,78,79
 245.1171875 527.34375 245.1171875 527.34375 245.1171875 498.046875 c 0,80,81
 245.1171875 479.98046875 245.1171875 479.98046875 252.44140625 465.087890625 c 0,82,83
 259.765625 450.1953125 259.765625 450.1953125 273.193359375 437.01171875 c 0,84,85
 286.62109375 423.828125 286.62109375 423.828125 305.908203125 412.109375 c 0,86,87
 325.1953125 400.390625 325.1953125 400.390625 349.12109375 389.16015625 c 0,88,89
 388.18359375 413.0859375 388.18359375 413.0859375 411.62109375 449.462890625 c 0,90,91
 435.05859375 485.83984375 435.05859375 485.83984375 435.05859375 534.1796875 c 0,64,65
397.94921875 184.08203125 m 0,92,93
 397.94921875 204.58984375 397.94921875 204.58984375 385.986328125 222.65625 c 0,94,95
 374.0234375 240.72265625 374.0234375 240.72265625 353.759765625 256.8359375 c 0,96,97
 333.49609375 272.94921875 333.49609375 272.94921875 307.12890625 287.353515625 c 0,98,99
 280.76171875 301.7578125 280.76171875 301.7578125 251.953125 314.94140625 c 0,100,101
 231.4453125 302.734375 231.4453125 302.734375 213.8671875 287.353515625 c 0,102,103
 196.2890625 271.97265625 196.2890625 271.97265625 183.837890625 253.662109375 c 0,104,105
 171.38671875 235.3515625 171.38671875 235.3515625 164.306640625 214.111328125 c 0,106,107
 157.2265625 192.87109375 157.2265625 192.87109375 157.2265625 167.96875 c 0,108,109
 157.2265625 143.06640625 157.2265625 143.06640625 163.330078125 121.337890625 c 0,110,111
 169.43359375 99.609375 169.43359375 99.609375 182.6171875 83.251953125 c 0,112,113
 195.80078125 66.89453125 195.80078125 66.89453125 216.552734375 57.373046875 c 0,114,115
 237.3046875 47.8515625 237.3046875 47.8515625 267.08984375 47.8515625 c 0,116,117
 289.0625 47.8515625 289.0625 47.8515625 312.255859375 58.59375 c 0,118,119
 335.44921875 69.3359375 335.44921875 69.3359375 354.4921875 88.134765625 c 0,120,121
 373.53515625 106.93359375 373.53515625 106.93359375 385.7421875 131.591796875 c 0,122,123
 397.94921875 156.25 397.94921875 156.25 397.94921875 184.08203125 c 0,92,93
EndSplineSet
EndChar

StartChar: nine
Encoding: 28 57 28
Width: 598
VWidth: 488
Flags: W
LayerCount: 2
Fore
SplineSet
599.12109375 475.09765625 m 0,0,1
 599.12109375 402.34375 599.12109375 402.34375 578.125 339.84375 c 0,2,3
 557.12890625 277.34375 557.12890625 277.34375 520.263671875 224.12109375 c 0,4,5
 483.3984375 170.8984375 483.3984375 170.8984375 433.10546875 126.953125 c 0,6,7
 382.8125 83.0078125 382.8125 83.0078125 324.462890625 47.36328125 c 0,8,9
 266.11328125 11.71875 266.11328125 11.71875 201.904296875 -15.625 c 0,10,11
 137.6953125 -42.96875 137.6953125 -42.96875 73.2421875 -62.98828125 c 0,12,-1
 45.8984375 -1.953125 l 0,13,14
 96.6796875 17.578125 96.6796875 17.578125 142.578125 39.306640625 c 0,15,16
 188.4765625 61.03515625 188.4765625 61.03515625 230.46875 89.599609375 c 0,17,18
 272.4609375 118.1640625 272.4609375 118.1640625 310.546875 156.005859375 c 0,19,20
 348.6328125 193.84765625 348.6328125 193.84765625 383.7890625 245.1171875 c 0,21,22
 355.95703125 235.3515625 355.95703125 235.3515625 326.416015625 229.736328125 c 0,23,24
 296.875 224.12109375 296.875 224.12109375 268.06640625 224.12109375 c 0,25,26
 227.05078125 224.12109375 227.05078125 224.12109375 190.185546875 234.619140625 c 0,27,28
 153.3203125 245.1171875 153.3203125 245.1171875 125.48828125 267.08984375 c 0,29,30
 97.65625 289.0625 97.65625 289.0625 81.298828125 322.998046875 c 0,31,32
 64.94140625 356.93359375 64.94140625 356.93359375 64.94140625 403.80859375 c 0,33,34
 64.94140625 459.9609375 64.94140625 459.9609375 86.669921875 511.23046875 c 0,35,36
 108.3984375 562.5 108.3984375 562.5 148.681640625 601.5625 c 0,37,38
 188.96484375 640.625 188.96484375 640.625 246.09375 663.818359375 c 0,39,40
 303.22265625 687.01171875 303.22265625 687.01171875 374.0234375 687.01171875 c 0,41,42
 397.4609375 687.01171875 397.4609375 687.01171875 423.33984375 684.08203125 c 0,43,44
 449.21875 681.15234375 449.21875 681.15234375 474.12109375 672.607421875 c 0,45,46
 499.0234375 664.0625 499.0234375 664.0625 521.728515625 649.4140625 c 0,47,48
 544.43359375 634.765625 544.43359375 634.765625 561.5234375 611.083984375 c 0,49,50
 578.61328125 587.40234375 578.61328125 587.40234375 588.8671875 553.955078125 c 0,51,52
 599.12109375 520.5078125 599.12109375 520.5078125 599.12109375 475.09765625 c 0,0,1
451.171875 474.12109375 m 0,53,54
 451.171875 523.92578125 451.171875 523.92578125 439.453125 554.443359375 c 0,55,56
 427.734375 584.9609375 427.734375 584.9609375 412.109375 601.318359375 c 0,57,58
 396.484375 617.67578125 396.484375 617.67578125 380.859375 623.291015625 c 0,59,60
 365.234375 628.90625 365.234375 628.90625 356.93359375 628.90625 c 0,61,62
 333.984375 628.90625 333.984375 628.90625 309.08203125 613.037109375 c 0,63,64
 284.1796875 597.16796875 284.1796875 597.16796875 263.427734375 569.580078125 c 0,65,66
 242.67578125 541.9921875 242.67578125 541.9921875 229.248046875 504.39453125 c 0,67,68
 215.8203125 466.796875 215.8203125 466.796875 215.8203125 423.828125 c 0,69,70
 215.8203125 386.23046875 215.8203125 386.23046875 227.294921875 361.083984375 c 0,71,72
 238.76953125 335.9375 238.76953125 335.9375 254.638671875 320.80078125 c 0,73,74
 270.5078125 305.6640625 270.5078125 305.6640625 286.865234375 299.31640625 c 0,75,76
 303.22265625 292.96875 303.22265625 292.96875 312.98828125 292.96875 c 0,77,78
 337.40234375 292.96875 337.40234375 292.96875 357.666015625 300.29296875 c 0,79,80
 377.9296875 307.6171875 377.9296875 307.6171875 393.06640625 317.138671875 c 0,81,82
 408.203125 326.66015625 408.203125 326.66015625 418.212890625 335.9375 c 0,83,84
 428.22265625 345.21484375 428.22265625 345.21484375 432.12890625 349.12109375 c 0,85,86
 437.98828125 380.859375 437.98828125 380.859375 444.580078125 411.62109375 c 0,87,88
 451.171875 442.3828125 451.171875 442.3828125 451.171875 474.12109375 c 0,53,54
EndSplineSet
EndChar

StartChar: colon
Encoding: 29 58 29
Width: 317
VWidth: 488
Flags: W
LayerCount: 2
Fore
SplineSet
258.7890625 414.0625 m 0,0,1
 258.7890625 396.97265625 258.7890625 396.97265625 252.44140625 381.8359375 c 0,2,3
 246.09375 366.69921875 246.09375 366.69921875 234.86328125 355.46875 c 0,4,5
 223.6328125 344.23828125 223.6328125 344.23828125 208.49609375 337.646484375 c 0,6,7
 193.359375 331.0546875 193.359375 331.0546875 175.78125 331.0546875 c 0,8,9
 158.69140625 331.0546875 158.69140625 331.0546875 143.310546875 337.646484375 c 0,10,11
 127.9296875 344.23828125 127.9296875 344.23828125 116.455078125 355.46875 c 0,12,13
 104.98046875 366.69921875 104.98046875 366.69921875 98.388671875 381.8359375 c 0,14,15
 91.796875 396.97265625 91.796875 396.97265625 91.796875 414.0625 c 0,16,17
 91.796875 431.15234375 91.796875 431.15234375 98.388671875 446.533203125 c 0,18,19
 104.98046875 461.9140625 104.98046875 461.9140625 116.455078125 473.388671875 c 0,20,21
 127.9296875 484.86328125 127.9296875 484.86328125 143.310546875 491.455078125 c 0,22,23
 158.69140625 498.046875 158.69140625 498.046875 175.78125 498.046875 c 0,24,25
 193.359375 498.046875 193.359375 498.046875 208.49609375 491.455078125 c 0,26,27
 223.6328125 484.86328125 223.6328125 484.86328125 234.86328125 473.388671875 c 0,28,29
 246.09375 461.9140625 246.09375 461.9140625 252.44140625 446.533203125 c 0,30,31
 258.7890625 431.15234375 258.7890625 431.15234375 258.7890625 414.0625 c 0,0,1
190.91796875 70.80078125 m 0,32,33
 190.91796875 53.7109375 190.91796875 53.7109375 184.326171875 38.57421875 c 0,34,35
 177.734375 23.4375 177.734375 23.4375 166.50390625 12.20703125 c 0,36,37
 155.2734375 0.9765625 155.2734375 0.9765625 140.13671875 -5.615234375 c 0,38,39
 125 -12.20703125 125 -12.20703125 107.91015625 -12.20703125 c 0,40,41
 90.8203125 -12.20703125 90.8203125 -12.20703125 75.439453125 -5.615234375 c 0,42,43
 60.05859375 0.9765625 60.05859375 0.9765625 48.583984375 12.20703125 c 0,44,45
 37.109375 23.4375 37.109375 23.4375 30.517578125 38.57421875 c 0,46,47
 23.92578125 53.7109375 23.92578125 53.7109375 23.92578125 70.80078125 c 0,48,49
 23.92578125 88.37890625 23.92578125 88.37890625 30.517578125 103.515625 c 0,50,51
 37.109375 118.65234375 37.109375 118.65234375 48.583984375 130.126953125 c 0,52,53
 60.05859375 141.6015625 60.05859375 141.6015625 75.439453125 148.193359375 c 0,54,55
 90.8203125 154.78515625 90.8203125 154.78515625 107.91015625 154.78515625 c 0,56,57
 125 154.78515625 125 154.78515625 140.13671875 148.193359375 c 0,58,59
 155.2734375 141.6015625 155.2734375 141.6015625 166.50390625 130.126953125 c 0,60,61
 177.734375 118.65234375 177.734375 118.65234375 184.326171875 103.515625 c 0,62,63
 190.91796875 88.37890625 190.91796875 88.37890625 190.91796875 70.80078125 c 0,32,33
EndSplineSet
EndChar

StartChar: semicolon
Encoding: 30 59 30
Width: 317
VWidth: 488
Flags: W
LayerCount: 2
Fore
SplineSet
258.7890625 414.0625 m 0,0,1
 258.7890625 396.97265625 258.7890625 396.97265625 252.44140625 381.8359375 c 0,2,3
 246.09375 366.69921875 246.09375 366.69921875 234.86328125 355.46875 c 0,4,5
 223.6328125 344.23828125 223.6328125 344.23828125 208.49609375 337.646484375 c 0,6,7
 193.359375 331.0546875 193.359375 331.0546875 175.78125 331.0546875 c 0,8,9
 158.69140625 331.0546875 158.69140625 331.0546875 143.310546875 337.646484375 c 0,10,11
 127.9296875 344.23828125 127.9296875 344.23828125 116.455078125 355.46875 c 0,12,13
 104.98046875 366.69921875 104.98046875 366.69921875 98.388671875 381.8359375 c 0,14,15
 91.796875 396.97265625 91.796875 396.97265625 91.796875 414.0625 c 0,16,17
 91.796875 431.15234375 91.796875 431.15234375 98.388671875 446.533203125 c 0,18,19
 104.98046875 461.9140625 104.98046875 461.9140625 116.455078125 473.388671875 c 0,20,21
 127.9296875 484.86328125 127.9296875 484.86328125 143.310546875 491.455078125 c 0,22,23
 158.69140625 498.046875 158.69140625 498.046875 175.78125 498.046875 c 0,24,25
 193.359375 498.046875 193.359375 498.046875 208.49609375 491.455078125 c 0,26,27
 223.6328125 484.86328125 223.6328125 484.86328125 234.86328125 473.388671875 c 0,28,29
 246.09375 461.9140625 246.09375 461.9140625 252.44140625 446.533203125 c 0,30,31
 258.7890625 431.15234375 258.7890625 431.15234375 258.7890625 414.0625 c 0,0,1
200.1953125 83.984375 m 0,32,33
 200.1953125 54.6875 200.1953125 54.6875 189.208984375 24.90234375 c 0,34,35
 178.22265625 -4.8828125 178.22265625 -4.8828125 159.1796875 -33.203125 c 0,36,37
 140.13671875 -61.5234375 140.13671875 -61.5234375 114.990234375 -86.669921875 c 0,38,39
 89.84375 -111.81640625 89.84375 -111.81640625 61.5234375 -130.859375 c 0,40,41
 33.203125 -149.90234375 33.203125 -149.90234375 3.173828125 -161.865234375 c 0,42,43
 -26.85546875 -173.828125 -26.85546875 -173.828125 -55.17578125 -175.78125 c 0,44,-1
 -45.8984375 -126.953125 l 0,45,46
 -18.06640625 -123.046875 -18.06640625 -123.046875 6.591796875 -112.3046875 c 0,47,48
 31.25 -101.5625 31.25 -101.5625 50.78125 -84.716796875 c 0,49,50
 70.3125 -67.87109375 70.3125 -67.87109375 83.49609375 -44.921875 c 0,51,52
 96.6796875 -21.97265625 96.6796875 -21.97265625 101.07421875 6.8359375 c 0,53,-1
 40.0390625 6.8359375 l 0,54,55
 30.2734375 16.11328125 30.2734375 16.11328125 25.146484375 28.3203125 c 0,56,57
 20.01953125 40.52734375 20.01953125 40.52734375 20.01953125 54.19921875 c 0,58,59
 20.01953125 74.21875 20.01953125 74.21875 28.564453125 92.529296875 c 0,60,61
 37.109375 110.83984375 37.109375 110.83984375 51.26953125 124.755859375 c 0,62,63
 65.4296875 138.671875 65.4296875 138.671875 83.984375 146.728515625 c 0,64,65
 102.5390625 154.78515625 102.5390625 154.78515625 123.046875 154.78515625 c 0,66,67
 156.73828125 154.78515625 156.73828125 154.78515625 178.466796875 137.451171875 c 0,68,69
 200.1953125 120.1171875 200.1953125 120.1171875 200.1953125 83.984375 c 0,32,33
EndSplineSet
EndChar

StartChar: less
Encoding: 31 60 31
Width: 1000
VWidth: 488
Flags: W
LayerCount: 2
Fore
SplineSet
200.1953125 269.04296875 m 0,0,-1
 200.1953125 331.0546875 l 0,1,-1
 799.8046875 561.03515625 l 0,2,-1
 799.8046875 499.0234375 l 0,3,-1
 264.16015625 299.8046875 l 0,4,-1
 799.8046875 101.07421875 l 0,5,-1
 799.8046875 39.0625 l 0,6,-1
 200.1953125 269.04296875 l 0,0,-1
EndSplineSet
EndChar

StartChar: equal
Encoding: 32 61 32
Width: 1000
VWidth: 488
Flags: W
LayerCount: 2
Fore
SplineSet
200.1953125 359.86328125 m 0,0,-1
 200.1953125 421.875 l 0,1,-1
 799.8046875 421.875 l 0,2,-1
 799.8046875 359.86328125 l 0,3,-1
 200.1953125 359.86328125 l 0,0,-1
200.1953125 178.22265625 m 0,4,-1
 200.1953125 240.234375 l 0,5,-1
 799.8046875 240.234375 l 0,6,-1
 799.8046875 178.22265625 l 0,7,-1
 200.1953125 178.22265625 l 0,4,-1
EndSplineSet
EndChar

StartChar: greater
Encoding: 33 62 33
Width: 1000
VWidth: 488
Flags: W
LayerCount: 2
Fore
SplineSet
200.1953125 39.0625 m 0,0,-1
 200.1953125 101.07421875 l 0,1,-1
 735.83984375 299.8046875 l 0,2,-1
 200.1953125 499.0234375 l 0,3,-1
 200.1953125 561.03515625 l 0,4,-1
 799.8046875 331.0546875 l 0,5,-1
 799.8046875 269.04296875 l 0,6,-1
 200.1953125 39.0625 l 0,0,-1
EndSplineSet
EndChar

StartChar: question
Encoding: 34 63 34
Width: 535
VWidth: 488
Flags: W
LayerCount: 2
Fore
SplineSet
513.18359375 534.1796875 m 0,0,1
 513.18359375 500 513.18359375 500 502.197265625 469.970703125 c 0,2,3
 491.2109375 439.94140625 491.2109375 439.94140625 471.923828125 414.0625 c 0,4,5
 452.63671875 388.18359375 452.63671875 388.18359375 427.001953125 366.69921875 c 0,6,7
 401.3671875 345.21484375 401.3671875 345.21484375 372.0703125 328.61328125 c 0,8,9
 342.7734375 312.01171875 342.7734375 312.01171875 311.5234375 300.537109375 c 0,10,11
 280.2734375 289.0625 280.2734375 289.0625 250 283.203125 c 0,12,-1
 232.91015625 198.2421875 l 0,13,-1
 165.0390625 198.2421875 l 0,14,-1
 190.91796875 331.0546875 l 0,15,16
 226.07421875 338.37890625 226.07421875 338.37890625 259.033203125 356.4453125 c 0,17,18
 291.9921875 374.51171875 291.9921875 374.51171875 317.3828125 400.87890625 c 0,19,20
 342.7734375 427.24609375 342.7734375 427.24609375 357.91015625 460.205078125 c 0,21,22
 373.046875 493.1640625 373.046875 493.1640625 373.046875 530.76171875 c 0,23,24
 373.046875 556.15234375 373.046875 556.15234375 364.501953125 574.21875 c 0,25,26
 355.95703125 592.28515625 355.95703125 592.28515625 341.30859375 603.759765625 c 0,27,28
 326.66015625 615.234375 326.66015625 615.234375 306.884765625 620.60546875 c 0,29,30
 287.109375 625.9765625 287.109375 625.9765625 264.16015625 625.9765625 c 0,31,-1
 205.078125 511.23046875 l 0,32,33
 204.1015625 510.25390625 204.1015625 510.25390625 200.68359375 509.033203125 c 0,34,35
 197.265625 507.8125 197.265625 507.8125 193.603515625 506.591796875 c 0,36,37
 189.94140625 505.37109375 189.94140625 505.37109375 186.767578125 504.638671875 c 0,38,39
 183.59375 503.90625 183.59375 503.90625 183.10546875 503.90625 c 0,40,41
 170.41015625 503.90625 170.41015625 503.90625 156.982421875 505.615234375 c 0,42,43
 143.5546875 507.32421875 143.5546875 507.32421875 132.568359375 512.6953125 c 0,44,45
 121.58203125 518.06640625 121.58203125 518.06640625 114.2578125 527.83203125 c 0,46,47
 106.93359375 537.59765625 106.93359375 537.59765625 106.93359375 553.22265625 c 0,48,49
 106.93359375 577.63671875 106.93359375 577.63671875 117.1875 596.923828125 c 0,50,51
 127.44140625 616.2109375 127.44140625 616.2109375 144.53125 631.103515625 c 0,52,53
 161.62109375 645.99609375 161.62109375 645.99609375 183.837890625 656.73828125 c 0,54,55
 206.0546875 667.48046875 206.0546875 667.48046875 229.4921875 674.072265625 c 0,56,57
 252.9296875 680.6640625 252.9296875 680.6640625 276.123046875 683.837890625 c 0,58,59
 299.31640625 687.01171875 299.31640625 687.01171875 318.84765625 687.01171875 c 0,60,61
 354.98046875 687.01171875 354.98046875 687.01171875 389.892578125 678.466796875 c 0,62,63
 424.8046875 669.921875 424.8046875 669.921875 452.1484375 651.3671875 c 0,64,65
 479.4921875 632.8125 479.4921875 632.8125 496.337890625 604.00390625 c 0,66,67
 513.18359375 575.1953125 513.18359375 575.1953125 513.18359375 534.1796875 c 0,0,1
259.765625 64.94140625 m 0,68,69
 259.765625 48.33984375 259.765625 48.33984375 253.173828125 34.1796875 c 0,70,71
 246.58203125 20.01953125 246.58203125 20.01953125 235.3515625 9.765625 c 0,72,73
 224.12109375 -0.48828125 224.12109375 -0.48828125 209.47265625 -6.34765625 c 0,74,75
 194.82421875 -12.20703125 194.82421875 -12.20703125 178.22265625 -12.20703125 c 0,76,77
 161.62109375 -12.20703125 161.62109375 -12.20703125 147.705078125 -5.615234375 c 0,78,79
 133.7890625 0.9765625 133.7890625 0.9765625 123.53515625 12.20703125 c 0,80,81
 113.28125 23.4375 113.28125 23.4375 107.666015625 38.0859375 c 0,82,83
 102.05078125 52.734375 102.05078125 52.734375 102.05078125 68.84765625 c 0,84,85
 102.05078125 85.44921875 102.05078125 85.44921875 107.91015625 99.853515625 c 0,86,87
 113.76953125 114.2578125 113.76953125 114.2578125 124.0234375 125.244140625 c 0,88,89
 134.27734375 136.23046875 134.27734375 136.23046875 148.4375 142.578125 c 0,90,91
 162.59765625 148.92578125 162.59765625 148.92578125 179.19921875 148.92578125 c 0,92,93
 196.77734375 148.92578125 196.77734375 148.92578125 211.669921875 142.08984375 c 0,94,95
 226.5625 135.25390625 226.5625 135.25390625 237.060546875 123.779296875 c 0,96,97
 247.55859375 112.3046875 247.55859375 112.3046875 253.662109375 96.923828125 c 0,98,99
 259.765625 81.54296875 259.765625 81.54296875 259.765625 64.94140625 c 0,68,69
EndSplineSet
EndChar

StartChar: at
Encoding: 35 64 35
Width: 936
VWidth: 488
Flags: W
LayerCount: 2
Fore
SplineSet
569.82421875 388.18359375 m 0,0,1
 571.2890625 394.04296875 571.2890625 394.04296875 569.091796875 403.076171875 c 0,2,3
 566.89453125 412.109375 566.89453125 412.109375 561.5234375 420.41015625 c 0,4,5
 556.15234375 428.7109375 556.15234375 428.7109375 546.875 434.814453125 c 0,6,7
 537.59765625 440.91796875 537.59765625 440.91796875 524.90234375 440.91796875 c 0,8,9
 494.62890625 440.91796875 494.62890625 440.91796875 468.017578125 424.8046875 c 0,10,11
 441.40625 408.69140625 441.40625 408.69140625 421.38671875 380.126953125 c 0,12,13
 401.3671875 351.5625 401.3671875 351.5625 389.6484375 312.01171875 c 0,14,15
 377.9296875 272.4609375 377.9296875 272.4609375 377.9296875 226.07421875 c 0,16,17
 377.9296875 197.75390625 377.9296875 197.75390625 383.544921875 177.978515625 c 0,18,19
 389.16015625 158.203125 389.16015625 158.203125 398.4375 145.751953125 c 0,20,21
 407.71484375 133.30078125 407.71484375 133.30078125 418.9453125 127.685546875 c 0,22,23
 430.17578125 122.0703125 430.17578125 122.0703125 441.89453125 122.0703125 c 0,24,25
 458.0078125 122.0703125 458.0078125 122.0703125 470.947265625 128.173828125 c 0,26,27
 483.88671875 134.27734375 483.88671875 134.27734375 494.384765625 143.5546875 c 0,28,29
 504.8828125 152.83203125 504.8828125 152.83203125 513.671875 163.57421875 c 0,30,31
 522.4609375 174.31640625 522.4609375 174.31640625 529.78515625 183.10546875 c 0,32,-1
 569.82421875 388.18359375 l 0,0,1
877.9296875 368.1640625 m 0,33,34
 877.9296875 318.359375 877.9296875 318.359375 866.943359375 275.634765625 c 0,35,36
 855.95703125 232.91015625 855.95703125 232.91015625 837.158203125 197.509765625 c 0,37,38
 818.359375 162.109375 818.359375 162.109375 793.212890625 134.521484375 c 0,39,40
 768.06640625 106.93359375 768.06640625 106.93359375 739.2578125 88.134765625 c 0,41,42
 710.44921875 69.3359375 710.44921875 69.3359375 679.931640625 59.5703125 c 0,43,44
 649.4140625 49.8046875 649.4140625 49.8046875 620.1171875 49.8046875 c 0,45,46
 597.16796875 49.8046875 597.16796875 49.8046875 581.787109375 55.6640625 c 0,47,48
 566.40625 61.5234375 566.40625 61.5234375 556.396484375 71.044921875 c 0,49,50
 546.38671875 80.56640625 546.38671875 80.56640625 541.259765625 93.26171875 c 0,51,52
 536.1328125 105.95703125 536.1328125 105.95703125 534.1796875 120.1171875 c 0,53,54
 518.5546875 106.93359375 518.5546875 106.93359375 502.44140625 94.482421875 c 0,55,56
 486.328125 82.03125 486.328125 82.03125 469.23828125 72.265625 c 0,57,58
 452.1484375 62.5 452.1484375 62.5 434.08203125 56.640625 c 0,59,60
 416.015625 50.78125 416.015625 50.78125 396.97265625 50.78125 c 0,61,62
 362.79296875 50.78125 362.79296875 50.78125 336.9140625 63.232421875 c 0,63,64
 311.03515625 75.68359375 311.03515625 75.68359375 293.45703125 97.900390625 c 0,65,66
 275.87890625 120.1171875 275.87890625 120.1171875 266.845703125 150.390625 c 0,67,68
 257.8125 180.6640625 257.8125 180.6640625 257.8125 216.796875 c 0,69,70
 257.8125 272.94921875 257.8125 272.94921875 278.564453125 322.509765625 c 0,71,72
 299.31640625 372.0703125 299.31640625 372.0703125 334.9609375 409.423828125 c 0,73,74
 370.60546875 446.77734375 370.60546875 446.77734375 418.701171875 468.505859375 c 0,75,76
 466.796875 490.234375 466.796875 490.234375 520.99609375 490.234375 c 0,77,78
 532.71484375 490.234375 532.71484375 490.234375 544.677734375 487.3046875 c 0,79,80
 556.640625 484.375 556.640625 484.375 568.359375 479.736328125 c 0,81,82
 580.078125 475.09765625 580.078125 475.09765625 591.064453125 469.7265625 c 0,83,84
 602.05078125 464.35546875 602.05078125 464.35546875 611.81640625 459.9609375 c 0,85,-1
 625 484.86328125 l 0,86,-1
 708.984375 484.86328125 l 0,87,-1
 704.1015625 466.30859375 l 0,88,89
 700.68359375 451.66015625 700.68359375 451.66015625 695.556640625 430.17578125 c 0,90,91
 690.4296875 408.69140625 690.4296875 408.69140625 684.326171875 382.32421875 c 0,92,93
 678.22265625 355.95703125 678.22265625 355.95703125 671.875 329.1015625 c 0,94,95
 657.2265625 266.11328125 657.2265625 266.11328125 639.16015625 187.98828125 c 0,96,97
 635.25390625 171.38671875 635.25390625 171.38671875 633.30078125 157.71484375 c 0,98,99
 631.34765625 144.04296875 631.34765625 144.04296875 633.30078125 134.27734375 c 0,100,101
 635.25390625 124.51171875 635.25390625 124.51171875 641.845703125 119.140625 c 0,102,103
 648.4375 113.76953125 648.4375 113.76953125 662.109375 113.76953125 c 0,104,105
 671.875 113.76953125 671.875 113.76953125 686.279296875 121.337890625 c 0,106,107
 700.68359375 128.90625 700.68359375 128.90625 716.064453125 143.5546875 c 0,108,109
 731.4453125 158.203125 731.4453125 158.203125 746.58203125 179.931640625 c 0,110,111
 761.71875 201.66015625 761.71875 201.66015625 773.681640625 229.736328125 c 0,112,113
 785.64453125 257.8125 785.64453125 257.8125 793.212890625 292.236328125 c 0,114,115
 800.78125 326.66015625 800.78125 326.66015625 800.78125 367.1875 c 0,116,117
 800.78125 414.55078125 800.78125 414.55078125 789.55078125 452.880859375 c 0,118,119
 778.3203125 491.2109375 778.3203125 491.2109375 759.27734375 520.99609375 c 0,120,121
 740.234375 550.78125 740.234375 550.78125 714.111328125 572.509765625 c 0,122,123
 687.98828125 594.23828125 687.98828125 594.23828125 658.69140625 608.3984375 c 0,124,125
 629.39453125 622.55859375 629.39453125 622.55859375 597.65625 629.39453125 c 0,126,127
 565.91796875 636.23046875 565.91796875 636.23046875 535.15625 636.23046875 c 0,128,129
 482.421875 636.23046875 482.421875 636.23046875 434.326171875 623.291015625 c 0,130,131
 386.23046875 610.3515625 386.23046875 610.3515625 344.482421875 586.669921875 c 0,132,133
 302.734375 562.98828125 302.734375 562.98828125 268.5546875 528.80859375 c 0,134,135
 234.375 494.62890625 234.375 494.62890625 209.9609375 451.904296875 c 0,136,137
 185.546875 409.1796875 185.546875 409.1796875 172.36328125 359.130859375 c 0,138,139
 159.1796875 309.08203125 159.1796875 309.08203125 159.1796875 252.9296875 c 0,140,141
 159.1796875 175.78125 159.1796875 175.78125 183.10546875 111.083984375 c 0,142,143
 207.03125 46.38671875 207.03125 46.38671875 250.9765625 -0.9765625 c 0,144,145
 294.921875 -48.33984375 294.921875 -48.33984375 356.93359375 -74.70703125 c 0,146,147
 418.9453125 -101.07421875 418.9453125 -101.07421875 495.1171875 -101.07421875 c 0,148,149
 534.66796875 -101.07421875 534.66796875 -101.07421875 570.3125 -94.482421875 c 0,150,151
 605.95703125 -87.890625 605.95703125 -87.890625 639.16015625 -76.66015625 c 0,152,153
 672.36328125 -65.4296875 672.36328125 -65.4296875 704.345703125 -50.048828125 c 0,154,155
 736.328125 -34.66796875 736.328125 -34.66796875 768.06640625 -17.08984375 c 0,156,-1
 789.0625 -66.89453125 l 0,157,158
 755.37109375 -84.47265625 755.37109375 -84.47265625 719.23828125 -100.830078125 c 0,159,160
 683.10546875 -117.1875 683.10546875 -117.1875 644.04296875 -129.638671875 c 0,161,162
 604.98046875 -142.08984375 604.98046875 -142.08984375 561.767578125 -149.658203125 c 0,163,164
 518.5546875 -157.2265625 518.5546875 -157.2265625 471.19140625 -157.2265625 c 0,165,166
 412.59765625 -157.2265625 412.59765625 -157.2265625 359.375 -144.775390625 c 0,167,168
 306.15234375 -132.32421875 306.15234375 -132.32421875 260.25390625 -108.3984375 c 0,169,170
 214.35546875 -84.47265625 214.35546875 -84.47265625 177.001953125 -50.29296875 c 0,171,172
 139.6484375 -16.11328125 139.6484375 -16.11328125 113.28125 27.587890625 c 0,173,174
 86.9140625 71.2890625 86.9140625 71.2890625 72.509765625 123.291015625 c 0,175,176
 58.10546875 175.29296875 58.10546875 175.29296875 58.10546875 234.86328125 c 0,177,178
 58.10546875 307.6171875 58.10546875 307.6171875 75.68359375 369.62890625 c 0,179,180
 93.26171875 431.640625 93.26171875 431.640625 124.755859375 481.93359375 c 0,181,182
 156.25 532.2265625 156.25 532.2265625 199.70703125 570.556640625 c 0,183,184
 243.1640625 608.88671875 243.1640625 608.88671875 294.677734375 634.765625 c 0,185,186
 346.19140625 660.64453125 346.19140625 660.64453125 404.052734375 673.828125 c 0,187,188
 461.9140625 687.01171875 461.9140625 687.01171875 521.97265625 687.01171875 c 0,189,190
 603.02734375 687.01171875 603.02734375 687.01171875 668.9453125 665.52734375 c 0,191,192
 734.86328125 644.04296875 734.86328125 644.04296875 781.25 603.271484375 c 0,193,194
 827.63671875 562.5 827.63671875 562.5 852.783203125 503.173828125 c 0,195,196
 877.9296875 443.84765625 877.9296875 443.84765625 877.9296875 368.1640625 c 0,33,34
EndSplineSet
EndChar

StartChar: A
Encoding: 36 65 36
Width: 714
VWidth: 488
Flags: W
LayerCount: 2
Fore
SplineSet
391.11328125 0 m 0,0,-1
 391.11328125 49.8046875 l 0,1,2
 398.92578125 50.78125 398.92578125 50.78125 406.982421875 51.513671875 c 0,3,4
 415.0390625 52.24609375 415.0390625 52.24609375 421.875 53.22265625 c 0,5,6
 429.6875 54.19921875 429.6875 54.19921875 437.01171875 55.17578125 c 0,7,8
 446.77734375 56.15234375 446.77734375 56.15234375 452.1484375 58.59375 c 0,9,10
 457.51953125 61.03515625 457.51953125 61.03515625 456.0546875 69.82421875 c 0,11,-1
 426.7578125 252.9296875 l 0,12,-1
 237.79296875 252.9296875 l 0,13,-1
 139.16015625 69.82421875 l 0,14,15
 134.27734375 62.5 134.27734375 62.5 138.18359375 59.326171875 c 0,16,17
 142.08984375 56.15234375 142.08984375 56.15234375 151.85546875 55.17578125 c 0,18,19
 159.66796875 54.19921875 159.66796875 54.19921875 168.45703125 53.22265625 c 0,20,21
 175.78125 52.24609375 175.78125 52.24609375 185.05859375 51.513671875 c 0,22,23
 194.3359375 50.78125 194.3359375 50.78125 204.1015625 49.8046875 c 0,24,-1
 204.1015625 0 l 0,25,-1
 -53.22265625 0 l 0,26,-1
 -53.22265625 49.8046875 l 0,27,-1
 4.8828125 56.15234375 l 0,28,-1
 375 687.01171875 l 0,29,-1
 493.1640625 687.01171875 l 0,30,-1
 602.05078125 70.80078125 l 0,31,32
 603.515625 61.03515625 603.515625 61.03515625 607.177734375 58.349609375 c 0,33,34
 610.83984375 55.6640625 610.83984375 55.6640625 622.0703125 54.19921875 c 0,35,36
 628.90625 53.7109375 628.90625 53.7109375 636.71875 52.734375 c 0,37,38
 643.5546875 51.7578125 643.5546875 51.7578125 651.611328125 51.26953125 c 0,39,40
 659.66796875 50.78125 659.66796875 50.78125 667.96875 49.8046875 c 0,41,-1
 667.96875 0 l 0,42,-1
 391.11328125 0 l 0,0,-1
382.8125 503.90625 m 0,43,-1
 270.99609375 310.05859375 l 0,44,-1
 416.015625 310.05859375 l 0,45,-1
 382.8125 503.90625 l 0,43,-1
EndSplineSet
EndChar

StartChar: B
Encoding: 37 66 37
Width: 648
VWidth: 488
Flags: W
LayerCount: 2
Fore
SplineSet
462.890625 533.203125 m 0,0,1
 462.890625 557.12890625 462.890625 557.12890625 453.369140625 573.486328125 c 0,2,3
 443.84765625 589.84375 443.84765625 589.84375 427.978515625 599.609375 c 0,4,5
 412.109375 609.375 412.109375 609.375 391.357421875 613.76953125 c 0,6,7
 370.60546875 618.1640625 370.60546875 618.1640625 348.14453125 618.1640625 c 0,8,9
 339.84375 618.1640625 339.84375 618.1640625 331.787109375 617.67578125 c 0,10,11
 323.73046875 617.1875 323.73046875 617.1875 316.89453125 617.1875 c 0,12,-1
 270.01953125 375 l 0,13,14
 278.3203125 374.0234375 278.3203125 374.0234375 285.15625 374.0234375 c 0,15,-1
 294.921875 374.0234375 l 0,16,17
 332.03125 374.0234375 332.03125 374.0234375 363.037109375 385.986328125 c 0,18,19
 394.04296875 397.94921875 394.04296875 397.94921875 416.259765625 419.189453125 c 0,20,21
 438.4765625 440.4296875 438.4765625 440.4296875 450.68359375 469.482421875 c 0,22,23
 462.890625 498.53515625 462.890625 498.53515625 462.890625 533.203125 c 0,0,1
444.82421875 215.8203125 m 0,24,25
 444.82421875 246.58203125 444.82421875 246.58203125 434.08203125 266.6015625 c 0,26,27
 423.33984375 286.62109375 423.33984375 286.62109375 405.029296875 298.583984375 c 0,28,29
 386.71875 310.546875 386.71875 310.546875 363.037109375 315.185546875 c 0,30,31
 339.35546875 319.82421875 339.35546875 319.82421875 312.98828125 319.82421875 c 0,32,33
 286.1328125 319.82421875 286.1328125 319.82421875 257.8125 316.89453125 c 0,34,-1
 207.03125 56.15234375 l 0,35,36
 217.7734375 55.17578125 217.7734375 55.17578125 228.515625 55.17578125 c 0,37,-1
 247.0703125 55.17578125 l 0,38,39
 291.50390625 55.17578125 291.50390625 55.17578125 327.880859375 65.185546875 c 0,40,41
 364.2578125 75.1953125 364.2578125 75.1953125 390.13671875 95.458984375 c 0,42,43
 416.015625 115.72265625 416.015625 115.72265625 430.419921875 145.751953125 c 0,44,45
 444.82421875 175.78125 444.82421875 175.78125 444.82421875 215.8203125 c 0,24,25
616.2109375 540.0390625 m 0,46,47
 616.2109375 503.41796875 616.2109375 503.41796875 604.00390625 475.09765625 c 0,48,49
 591.796875 446.77734375 591.796875 446.77734375 570.556640625 424.8046875 c 0,50,51
 549.31640625 402.83203125 549.31640625 402.83203125 520.5078125 386.474609375 c 0,52,53
 491.69921875 370.1171875 491.69921875 370.1171875 458.0078125 357.91015625 c 0,54,55
 490.72265625 352.05078125 490.72265625 352.05078125 516.357421875 341.796875 c 0,56,57
 541.9921875 331.54296875 541.9921875 331.54296875 559.814453125 315.673828125 c 0,58,59
 577.63671875 299.8046875 577.63671875 299.8046875 586.9140625 277.83203125 c 0,60,61
 596.19140625 255.859375 596.19140625 255.859375 596.19140625 226.07421875 c 0,62,63
 596.19140625 166.50390625 596.19140625 166.50390625 573.73046875 123.53515625 c 0,64,65
 551.26953125 80.56640625 551.26953125 80.56640625 510.009765625 53.22265625 c 0,66,67
 468.75 25.87890625 468.75 25.87890625 410.400390625 12.939453125 c 0,68,69
 352.05078125 0 352.05078125 0 279.78515625 0 c 0,70,-1
 -15.13671875 0 l 0,71,-1
 -15.13671875 49.8046875 l 0,72,73
 -2.9296875 50.78125 -2.9296875 50.78125 8.30078125 51.7578125 c 0,74,75
 19.53125 52.734375 19.53125 52.734375 28.3203125 53.7109375 c 0,76,77
 38.57421875 54.6875 38.57421875 54.6875 47.8515625 55.17578125 c 0,78,79
 56.15234375 55.17578125 56.15234375 55.17578125 60.791015625 57.861328125 c 0,80,81
 65.4296875 60.546875 65.4296875 60.546875 66.89453125 70.80078125 c 0,82,-1
 170.8984375 601.07421875 l 0,83,84
 172.36328125 609.375 172.36328125 609.375 168.212890625 612.3046875 c 0,85,86
 164.0625 615.234375 164.0625 615.234375 154.78515625 616.2109375 c 0,87,88
 145.99609375 616.69921875 145.99609375 616.69921875 136.23046875 617.67578125 c 0,89,90
 127.9296875 618.65234375 127.9296875 618.65234375 117.1875 619.384765625 c 0,91,92
 106.4453125 620.1171875 106.4453125 620.1171875 95.21484375 621.09375 c 0,93,-1
 95.21484375 670.8984375 l 0,94,-1
 396.97265625 670.8984375 l 0,95,96
 460.44921875 670.8984375 460.44921875 670.8984375 502.685546875 660.64453125 c 0,97,98
 544.921875 650.390625 544.921875 650.390625 570.3125 632.8125 c 0,99,100
 595.703125 615.234375 595.703125 615.234375 605.95703125 591.30859375 c 0,101,102
 616.2109375 567.3828125 616.2109375 567.3828125 616.2109375 540.0390625 c 0,46,47
EndSplineSet
EndChar

StartChar: C
Encoding: 38 67 38
Width: 671
VWidth: 488
Flags: W
LayerCount: 2
Fore
SplineSet
655.76171875 469.23828125 m 0,0,-1
 582.03125 469.23828125 l 0,1,-1
 583.0078125 581.0546875 l 0,2,3
 583.984375 586.9140625 583.984375 586.9140625 579.833984375 594.23828125 c 0,4,5
 575.68359375 601.5625 575.68359375 601.5625 567.87109375 604.00390625 c 0,6,7
 563.96484375 605.95703125 563.96484375 605.95703125 553.22265625 609.86328125 c 0,8,9
 542.48046875 613.76953125 542.48046875 613.76953125 529.052734375 617.1875 c 0,10,11
 515.625 620.60546875 515.625 620.60546875 501.46484375 623.291015625 c 0,12,13
 487.3046875 625.9765625 487.3046875 625.9765625 476.07421875 625.9765625 c 0,14,15
 444.3359375 625.9765625 444.3359375 625.9765625 411.1328125 614.74609375 c 0,16,17
 377.9296875 603.515625 377.9296875 603.515625 346.923828125 581.787109375 c 0,18,19
 315.91796875 560.05859375 315.91796875 560.05859375 288.330078125 528.3203125 c 0,20,21
 260.7421875 496.58203125 260.7421875 496.58203125 240.234375 455.56640625 c 0,22,23
 219.7265625 414.55078125 219.7265625 414.55078125 207.763671875 364.74609375 c 0,24,25
 195.80078125 314.94140625 195.80078125 314.94140625 195.80078125 256.8359375 c 0,26,27
 195.80078125 199.70703125 195.80078125 199.70703125 212.40234375 159.66796875 c 0,28,29
 229.00390625 119.62890625 229.00390625 119.62890625 255.615234375 93.994140625 c 0,30,31
 282.2265625 68.359375 282.2265625 68.359375 314.94140625 56.640625 c 0,32,33
 347.65625 44.921875 347.65625 44.921875 379.8828125 44.921875 c 0,34,35
 390.625 44.921875 390.625 44.921875 403.3203125 46.38671875 c 0,36,37
 416.015625 47.8515625 416.015625 47.8515625 427.734375 50.29296875 c 0,38,39
 439.453125 52.734375 439.453125 52.734375 448.974609375 55.17578125 c 0,40,41
 458.49609375 57.6171875 458.49609375 57.6171875 462.890625 60.05859375 c 0,42,43
 470.703125 61.03515625 470.703125 61.03515625 474.609375 65.91796875 c 0,44,45
 478.515625 70.80078125 478.515625 70.80078125 480.95703125 76.171875 c 0,46,-1
 528.80859375 208.0078125 l 0,47,-1
 604.00390625 208.0078125 l 0,48,-1
 573.2421875 26.85546875 l 0,49,50
 554.19921875 20.01953125 554.19921875 20.01953125 529.541015625 12.451171875 c 0,51,52
 504.8828125 4.8828125 504.8828125 4.8828125 476.07421875 -1.46484375 c 0,53,54
 447.265625 -7.8125 447.265625 -7.8125 414.794921875 -11.962890625 c 0,55,56
 382.32421875 -16.11328125 382.32421875 -16.11328125 347.16796875 -16.11328125 c 0,57,58
 291.015625 -16.11328125 291.015625 -16.11328125 246.826171875 -4.638671875 c 0,59,60
 202.63671875 6.8359375 202.63671875 6.8359375 169.43359375 27.099609375 c 0,61,62
 136.23046875 47.36328125 136.23046875 47.36328125 113.037109375 74.70703125 c 0,63,64
 89.84375 102.05078125 89.84375 102.05078125 75.439453125 133.7890625 c 0,65,66
 61.03515625 165.52734375 61.03515625 165.52734375 54.443359375 199.70703125 c 0,67,68
 47.8515625 233.88671875 47.8515625 233.88671875 47.8515625 268.06640625 c 0,69,70
 47.8515625 319.3359375 47.8515625 319.3359375 60.791015625 370.60546875 c 0,71,72
 73.73046875 421.875 73.73046875 421.875 98.6328125 468.26171875 c 0,73,74
 123.53515625 514.6484375 123.53515625 514.6484375 160.15625 554.6875 c 0,75,76
 196.77734375 594.7265625 196.77734375 594.7265625 243.65234375 624.267578125 c 0,77,78
 290.52734375 653.80859375 290.52734375 653.80859375 347.65625 670.41015625 c 0,79,80
 404.78515625 687.01171875 404.78515625 687.01171875 471.19140625 687.01171875 c 0,81,82
 500 687.01171875 500 687.01171875 526.123046875 683.837890625 c 0,83,84
 552.24609375 680.6640625 552.24609375 680.6640625 578.125 675.29296875 c 0,85,86
 604.00390625 669.921875 604.00390625 669.921875 630.615234375 662.109375 c 0,87,88
 657.2265625 654.296875 657.2265625 654.296875 687.01171875 645.01953125 c 0,89,-1
 655.76171875 469.23828125 l 0,0,-1
EndSplineSet
EndChar

StartChar: D
Encoding: 39 68 39
Width: 712
VWidth: 488
Flags: W
LayerCount: 2
Fore
SplineSet
694.82421875 414.0625 m 0,0,1
 694.82421875 324.70703125 694.82421875 324.70703125 663.57421875 248.779296875 c 0,2,3
 632.32421875 172.8515625 632.32421875 172.8515625 573.73046875 117.67578125 c 0,4,5
 515.13671875 62.5 515.13671875 62.5 430.908203125 31.25 c 0,6,7
 346.6796875 0 346.6796875 0 241.2109375 0 c 0,8,-1
 -15.13671875 0 l 0,9,-1
 -15.13671875 49.8046875 l 0,10,11
 -3.90625 50.78125 -3.90625 50.78125 6.8359375 51.7578125 c 0,12,13
 17.578125 52.734375 17.578125 52.734375 25.87890625 53.22265625 c 0,14,15
 35.64453125 53.7109375 35.64453125 53.7109375 44.921875 54.19921875 c 0,16,17
 57.12890625 55.17578125 57.12890625 55.17578125 60.791015625 57.861328125 c 0,18,19
 64.453125 60.546875 64.453125 60.546875 66.89453125 70.80078125 c 0,20,-1
 170.8984375 601.07421875 l 0,21,22
 172.36328125 609.86328125 172.36328125 609.86328125 167.236328125 612.548828125 c 0,23,24
 162.109375 615.234375 162.109375 615.234375 152.83203125 616.2109375 c 0,25,26
 143.5546875 616.69921875 143.5546875 616.69921875 134.27734375 617.67578125 c 0,27,28
 125.9765625 618.65234375 125.9765625 618.65234375 115.72265625 619.384765625 c 0,29,30
 105.46875 620.1171875 105.46875 620.1171875 95.21484375 621.09375 c 0,31,-1
 95.21484375 670.8984375 l 0,32,-1
 354.98046875 670.8984375 l 0,33,34
 432.6171875 670.8984375 432.6171875 670.8984375 495.361328125 656.73828125 c 0,35,36
 558.10546875 642.578125 558.10546875 642.578125 602.5390625 611.572265625 c 0,37,38
 646.97265625 580.56640625 646.97265625 580.56640625 670.8984375 531.73828125 c 0,39,40
 694.82421875 482.91015625 694.82421875 482.91015625 694.82421875 414.0625 c 0,0,1
544.921875 422.8515625 m 0,41,42
 544.921875 463.8671875 544.921875 463.8671875 536.1328125 493.65234375 c 0,43,44
 527.34375 523.4375 527.34375 523.4375 512.20703125 544.189453125 c 0,45,46
 497.0703125 564.94140625 497.0703125 564.94140625 476.318359375 577.63671875 c 0,47,48
 455.56640625 590.33203125 455.56640625 590.33203125 431.640625 597.412109375 c 0,49,50
 407.71484375 604.4921875 407.71484375 604.4921875 381.8359375 607.177734375 c 0,51,52
 355.95703125 609.86328125 355.95703125 609.86328125 330.078125 610.83984375 c 0,53,-1
 315.91796875 610.83984375 l 0,54,-1
 208.0078125 62.01171875 l 0,55,-1
 258.7890625 62.01171875 l 0,56,57
 302.734375 62.5 302.734375 62.5 341.064453125 76.171875 c 0,58,59
 379.39453125 89.84375 379.39453125 89.84375 411.1328125 114.013671875 c 0,60,61
 442.87109375 138.18359375 442.87109375 138.18359375 467.7734375 171.630859375 c 0,62,63
 492.67578125 205.078125 492.67578125 205.078125 509.765625 244.873046875 c 0,64,65
 526.85546875 284.66796875 526.85546875 284.66796875 535.888671875 329.833984375 c 0,66,67
 544.921875 375 544.921875 375 544.921875 422.8515625 c 0,41,42
EndSplineSet
EndChar

StartChar: E
Encoding: 40 69 40
Width: 600
VWidth: 488
Flags: W
LayerCount: 2
Fore
SplineSet
590.8203125 513.18359375 m 0,0,-1
 511.23046875 513.18359375 l 0,1,-1
 511.23046875 598.14453125 l 0,2,3
 511.23046875 605.46875 511.23046875 605.46875 503.662109375 608.154296875 c 0,4,5
 496.09375 610.83984375 496.09375 610.83984375 487.79296875 610.83984375 c 0,6,-1
 315.91796875 610.83984375 l 0,7,-1
 270.99609375 378.90625 l 0,8,-1
 383.7890625 378.90625 l 0,9,10
 391.6015625 378.90625 391.6015625 378.90625 400.634765625 382.568359375 c 0,11,12
 409.66796875 386.23046875 409.66796875 386.23046875 412.109375 394.04296875 c 0,13,-1
 433.10546875 463.8671875 l 0,14,-1
 505.859375 463.8671875 l 0,15,-1
 459.9609375 229.00390625 l 0,16,-1
 386.23046875 229.00390625 l 0,17,-1
 395.99609375 304.19921875 l 0,18,19
 396.484375 307.12890625 396.484375 307.12890625 394.53125 309.5703125 c 0,20,21
 392.578125 312.01171875 392.578125 312.01171875 389.16015625 313.96484375 c 0,22,23
 385.7421875 315.91796875 385.7421875 315.91796875 381.591796875 316.89453125 c 0,24,25
 377.44140625 317.87109375 377.44140625 317.87109375 374.0234375 317.87109375 c 0,26,-1
 258.7890625 317.87109375 l 0,27,-1
 208.984375 60.05859375 l 0,28,-1
 421.875 60.05859375 l 0,29,30
 429.6875 60.05859375 429.6875 60.05859375 438.720703125 63.96484375 c 0,31,32
 447.75390625 67.87109375 447.75390625 67.87109375 450.1953125 74.21875 c 0,33,-1
 481.93359375 173.828125 l 0,34,-1
 561.03515625 173.828125 l 0,35,-1
 525.87890625 0 l 0,36,-1
 -15.13671875 0 l 0,37,-1
 -15.13671875 49.8046875 l 0,38,39
 -3.90625 50.78125 -3.90625 50.78125 7.080078125 51.7578125 c 0,40,41
 18.06640625 52.734375 18.06640625 52.734375 26.3671875 53.7109375 c 0,42,43
 36.1328125 54.6875 36.1328125 54.6875 44.921875 55.17578125 c 0,44,45
 56.15234375 56.15234375 56.15234375 56.15234375 60.791015625 58.59375 c 0,46,47
 65.4296875 61.03515625 65.4296875 61.03515625 66.89453125 70.80078125 c 0,48,-1
 170.8984375 601.07421875 l 0,49,50
 173.33984375 609.86328125 173.33984375 609.86328125 167.96875 612.548828125 c 0,51,52
 162.59765625 615.234375 162.59765625 615.234375 152.83203125 616.2109375 c 0,53,54
 144.04296875 616.69921875 144.04296875 616.69921875 134.765625 617.67578125 c 0,55,56
 126.46484375 618.65234375 126.46484375 618.65234375 116.2109375 619.384765625 c 0,57,58
 105.95703125 620.1171875 105.95703125 620.1171875 96.19140625 621.09375 c 0,59,-1
 96.19140625 670.8984375 l 0,60,-1
 623.046875 670.8984375 l 0,61,-1
 590.8203125 513.18359375 l 0,0,-1
EndSplineSet
EndChar

StartChar: F
Encoding: 41 70 41
Width: 556
VWidth: 488
Flags: W
LayerCount: 2
Fore
SplineSet
579.1015625 501.953125 m 0,0,-1
 498.046875 501.953125 l 0,1,-1
 498.046875 598.14453125 l 0,2,3
 498.046875 605.46875 498.046875 605.46875 490.72265625 608.154296875 c 0,4,5
 483.3984375 610.83984375 483.3984375 610.83984375 475.09765625 610.83984375 c 0,6,-1
 315.91796875 610.83984375 l 0,7,-1
 269.04296875 369.140625 l 0,8,-1
 375 369.140625 l 0,9,10
 382.32421875 369.140625 382.32421875 369.140625 391.357421875 372.314453125 c 0,11,12
 400.390625 375.48828125 400.390625 375.48828125 402.83203125 382.8125 c 0,13,-1
 422.8515625 455.078125 l 0,14,-1
 497.0703125 455.078125 l 0,15,-1
 451.171875 219.23828125 l 0,16,-1
 375.9765625 219.23828125 l 0,17,-1
 387.20703125 293.9453125 l 0,18,19
 387.6953125 300.78125 387.6953125 300.78125 379.638671875 304.443359375 c 0,20,21
 371.58203125 308.10546875 371.58203125 308.10546875 363.76953125 308.10546875 c 0,22,-1
 256.8359375 308.10546875 l 0,23,-1
 209.9609375 69.82421875 l 0,24,25
 208.49609375 61.03515625 208.49609375 61.03515625 213.8671875 58.59375 c 0,26,27
 219.23828125 56.15234375 219.23828125 56.15234375 229.00390625 55.17578125 c 0,28,29
 238.28125 54.6875 238.28125 54.6875 249.0234375 53.7109375 c 0,30,31
 258.30078125 52.734375 258.30078125 52.734375 269.775390625 51.7578125 c 0,32,33
 281.25 50.78125 281.25 50.78125 293.9453125 49.8046875 c 0,34,-1
 293.9453125 0 l 0,35,-1
 -15.13671875 0 l 0,36,-1
 -15.13671875 49.8046875 l 0,37,38
 -4.8828125 50.78125 -4.8828125 50.78125 5.126953125 51.7578125 c 0,39,40
 15.13671875 52.734375 15.13671875 52.734375 23.4375 53.7109375 c 0,41,42
 32.71484375 54.6875 32.71484375 54.6875 41.9921875 55.17578125 c 0,43,44
 53.22265625 56.15234375 53.22265625 56.15234375 58.837890625 58.59375 c 0,45,46
 64.453125 61.03515625 64.453125 61.03515625 66.89453125 70.80078125 c 0,47,-1
 170.8984375 601.07421875 l 0,48,49
 172.36328125 609.86328125 172.36328125 609.86328125 166.9921875 612.548828125 c 0,50,51
 161.62109375 615.234375 161.62109375 615.234375 151.85546875 616.2109375 c 0,52,53
 143.06640625 616.69921875 143.06640625 616.69921875 133.7890625 617.67578125 c 0,54,55
 125.48828125 618.65234375 125.48828125 618.65234375 115.234375 619.384765625 c 0,56,57
 104.98046875 620.1171875 104.98046875 620.1171875 95.21484375 621.09375 c 0,58,-1
 95.21484375 670.8984375 l 0,59,-1
 611.81640625 670.8984375 l 0,60,-1
 579.1015625 501.953125 l 0,0,-1
EndSplineSet
EndChar

StartChar: G
Encoding: 42 71 42
Width: 729
VWidth: 488
Flags: W
LayerCount: 2
Fore
SplineSet
648.92578125 273.92578125 m 0,0,1
 642.08984375 272.94921875 642.08984375 272.94921875 639.404296875 269.287109375 c 0,2,3
 636.71875 265.625 636.71875 265.625 634.765625 258.7890625 c 0,4,-1
 588.8671875 25.87890625 l 0,5,6
 567.87109375 20.01953125 567.87109375 20.01953125 540.52734375 12.6953125 c 0,7,8
 513.18359375 5.37109375 513.18359375 5.37109375 481.93359375 -0.9765625 c 0,9,10
 450.68359375 -7.32421875 450.68359375 -7.32421875 417.724609375 -11.71875 c 0,11,12
 384.765625 -16.11328125 384.765625 -16.11328125 353.02734375 -16.11328125 c 0,13,14
 289.0625 -16.11328125 289.0625 -16.11328125 241.69921875 -2.44140625 c 0,15,16
 194.3359375 11.23046875 194.3359375 11.23046875 160.64453125 34.1796875 c 0,17,18
 126.953125 57.12890625 126.953125 57.12890625 104.98046875 86.669921875 c 0,19,20
 83.0078125 116.2109375 83.0078125 116.2109375 70.3125 147.94921875 c 0,21,22
 57.6171875 179.6875 57.6171875 179.6875 52.734375 211.181640625 c 0,23,24
 47.8515625 242.67578125 47.8515625 242.67578125 47.8515625 269.04296875 c 0,25,26
 47.8515625 331.0546875 47.8515625 331.0546875 64.697265625 386.23046875 c 0,27,28
 81.54296875 441.40625 81.54296875 441.40625 111.572265625 488.037109375 c 0,29,30
 141.6015625 534.66796875 141.6015625 534.66796875 183.349609375 571.533203125 c 0,31,32
 225.09765625 608.3984375 225.09765625 608.3984375 275.390625 634.033203125 c 0,33,34
 325.68359375 659.66796875 325.68359375 659.66796875 382.8125 673.33984375 c 0,35,36
 439.94140625 687.01171875 439.94140625 687.01171875 500 687.01171875 c 0,37,38
 528.3203125 687.01171875 528.3203125 687.01171875 552.978515625 684.814453125 c 0,39,40
 577.63671875 682.6171875 577.63671875 682.6171875 601.806640625 677.978515625 c 0,41,42
 625.9765625 673.33984375 625.9765625 673.33984375 651.3671875 666.259765625 c 0,43,44
 676.7578125 659.1796875 676.7578125 659.1796875 707.03125 649.90234375 c 0,45,-1
 669.921875 467.7734375 l 0,46,-1
 584.9609375 467.7734375 l 0,47,-1
 594.23828125 581.0546875 l 0,48,49
 595.21484375 589.84375 595.21484375 589.84375 586.669921875 594.970703125 c 0,50,51
 578.125 600.09765625 578.125 600.09765625 567.87109375 604.00390625 c 0,52,53
 562.98828125 605.46875 562.98828125 605.46875 554.443359375 608.642578125 c 0,54,55
 545.8984375 611.81640625 545.8984375 611.81640625 534.912109375 614.990234375 c 0,56,57
 523.92578125 618.1640625 523.92578125 618.1640625 511.71875 620.60546875 c 0,58,59
 499.51171875 623.046875 499.51171875 623.046875 487.79296875 623.046875 c 0,60,61
 457.03125 623.046875 457.03125 623.046875 423.828125 611.81640625 c 0,62,63
 390.625 600.5859375 390.625 600.5859375 358.642578125 578.857421875 c 0,64,65
 326.66015625 557.12890625 326.66015625 557.12890625 297.8515625 525.146484375 c 0,66,67
 269.04296875 493.1640625 269.04296875 493.1640625 247.314453125 452.1484375 c 0,68,69
 225.5859375 411.1328125 225.5859375 411.1328125 212.890625 361.328125 c 0,70,71
 200.1953125 311.5234375 200.1953125 311.5234375 200.1953125 253.90625 c 0,72,73
 200.1953125 213.37890625 200.1953125 213.37890625 209.716796875 182.373046875 c 0,74,75
 219.23828125 151.3671875 219.23828125 151.3671875 234.619140625 128.173828125 c 0,76,77
 250 104.98046875 250 104.98046875 269.287109375 89.599609375 c 0,78,79
 288.57421875 74.21875 288.57421875 74.21875 307.861328125 64.697265625 c 0,80,81
 327.1484375 55.17578125 327.1484375 55.17578125 344.23828125 51.025390625 c 0,82,83
 361.328125 46.875 361.328125 46.875 373.046875 46.875 c 0,84,85
 382.8125 46.875 382.8125 46.875 394.04296875 48.33984375 c 0,86,87
 405.2734375 49.8046875 405.2734375 49.8046875 416.015625 52.001953125 c 0,88,89
 426.7578125 54.19921875 426.7578125 54.19921875 436.5234375 56.640625 c 0,90,91
 446.2890625 59.08203125 446.2890625 59.08203125 453.125 61.03515625 c 0,92,-1
 492.1875 258.7890625 l 0,93,94
 493.65234375 268.06640625 493.65234375 268.06640625 489.2578125 270.99609375 c 0,95,96
 484.86328125 273.92578125 484.86328125 273.92578125 473.14453125 274.90234375 c 0,97,98
 464.35546875 274.90234375 464.35546875 274.90234375 455.078125 275.87890625 c 0,99,100
 446.77734375 276.3671875 446.77734375 276.3671875 436.767578125 277.099609375 c 0,101,102
 426.7578125 277.83203125 426.7578125 277.83203125 416.9921875 278.80859375 c 0,103,-1
 416.9921875 330.078125 l 0,104,-1
 716.796875 330.078125 l 0,105,-1
 716.796875 278.80859375 l 0,106,-1
 648.92578125 273.92578125 l 0,0,1
EndSplineSet
EndChar

StartChar: H
Encoding: 43 72 43
Width: 767
VWidth: 488
Flags: W
LayerCount: 2
Fore
SplineSet
745.1171875 615.234375 m 0,0,1
 735.83984375 614.2578125 735.83984375 614.2578125 732.177734375 610.595703125 c 0,2,3
 728.515625 606.93359375 728.515625 606.93359375 727.05078125 600.09765625 c 0,4,-1
 623.046875 69.82421875 l 0,5,6
 621.58203125 61.5234375 621.58203125 61.5234375 625.9765625 58.837890625 c 0,7,8
 630.37109375 56.15234375 630.37109375 56.15234375 640.13671875 55.17578125 c 0,9,10
 648.92578125 54.6875 648.92578125 54.6875 658.69140625 53.7109375 c 0,11,12
 666.9921875 52.734375 666.9921875 52.734375 677.490234375 51.7578125 c 0,13,14
 687.98828125 50.78125 687.98828125 50.78125 699.21875 49.8046875 c 0,15,-1
 699.21875 0 l 0,16,-1
 395.99609375 0 l 0,17,-1
 395.99609375 49.8046875 l 0,18,-1
 418.45703125 51.7578125 l 0,19,20
 429.6875 52.734375 429.6875 52.734375 438.4765625 53.7109375 c 0,21,22
 448.73046875 54.6875 448.73046875 54.6875 458.0078125 55.17578125 c 0,23,24
 467.28515625 56.15234375 467.28515625 56.15234375 472.900390625 59.08203125 c 0,25,26
 478.515625 62.01171875 478.515625 62.01171875 479.98046875 70.80078125 c 0,27,-1
 528.80859375 320.80078125 l 0,28,-1
 258.7890625 320.80078125 l 0,29,-1
 209.9609375 69.82421875 l 0,30,31
 208.49609375 61.03515625 208.49609375 61.03515625 211.9140625 58.59375 c 0,32,33
 215.33203125 56.15234375 215.33203125 56.15234375 228.02734375 55.17578125 c 0,34,35
 236.81640625 54.6875 236.81640625 54.6875 246.58203125 53.7109375 c 0,36,37
 254.8828125 52.734375 254.8828125 52.734375 265.380859375 51.7578125 c 0,38,39
 275.87890625 50.78125 275.87890625 50.78125 287.109375 49.8046875 c 0,40,-1
 287.109375 0 l 0,41,-1
 -15.13671875 0 l 0,42,-1
 -15.13671875 49.8046875 l 0,43,44
 -3.90625 50.78125 -3.90625 50.78125 7.080078125 51.7578125 c 0,45,46
 18.06640625 52.734375 18.06640625 52.734375 26.3671875 53.7109375 c 0,47,48
 36.1328125 54.6875 36.1328125 54.6875 44.921875 55.17578125 c 0,49,50
 55.6640625 56.15234375 55.6640625 56.15234375 60.546875 59.08203125 c 0,51,52
 65.4296875 62.01171875 65.4296875 62.01171875 66.89453125 70.80078125 c 0,53,-1
 170.8984375 601.07421875 l 0,54,55
 172.36328125 609.86328125 172.36328125 609.86328125 167.48046875 612.548828125 c 0,56,57
 162.59765625 615.234375 162.59765625 615.234375 151.85546875 616.2109375 c 0,58,59
 143.06640625 616.69921875 143.06640625 616.69921875 133.7890625 617.67578125 c 0,60,61
 125.48828125 618.65234375 125.48828125 618.65234375 115.478515625 619.384765625 c 0,62,63
 105.46875 620.1171875 105.46875 620.1171875 95.21484375 621.09375 c 0,64,-1
 95.21484375 670.8984375 l 0,65,-1
 396.97265625 670.8984375 l 0,66,-1
 396.97265625 621.09375 l 0,67,68
 385.25390625 620.1171875 385.25390625 620.1171875 374.267578125 619.384765625 c 0,69,70
 363.28125 618.65234375 363.28125 618.65234375 354.4921875 617.67578125 c 0,71,72
 344.23828125 616.69921875 344.23828125 616.69921875 334.9609375 616.2109375 c 0,73,74
 325.1953125 615.234375 325.1953125 615.234375 320.3125 612.060546875 c 0,75,76
 315.4296875 608.88671875 315.4296875 608.88671875 313.96484375 600.09765625 c 0,77,-1
 270.99609375 380.859375 l 0,78,-1
 541.015625 380.859375 l 0,79,-1
 583.984375 601.07421875 l 0,80,81
 585.44921875 609.86328125 585.44921875 609.86328125 580.322265625 613.037109375 c 0,82,83
 575.1953125 616.2109375 575.1953125 616.2109375 562.98828125 617.1875 c 0,84,85
 554.19921875 617.67578125 554.19921875 617.67578125 544.921875 618.1640625 c 0,86,87
 536.62109375 618.65234375 536.62109375 618.65234375 526.611328125 619.384765625 c 0,88,89
 516.6015625 620.1171875 516.6015625 620.1171875 506.8359375 621.09375 c 0,90,-1
 506.8359375 670.8984375 l 0,91,-1
 809.08203125 670.8984375 l 0,92,-1
 809.08203125 621.09375 l 0,93,-1
 745.1171875 615.234375 l 0,0,1
EndSplineSet
EndChar

StartChar: I
Encoding: 44 73 44
Width: 355
VWidth: 488
Flags: W
LayerCount: 2
Fore
SplineSet
329.1015625 616.2109375 m 0,0,1
 321.2890625 615.234375 321.2890625 615.234375 318.359375 611.083984375 c 0,2,3
 315.4296875 606.93359375 315.4296875 606.93359375 313.96484375 600.09765625 c 0,4,-1
 209.9609375 69.82421875 l 0,5,6
 208.49609375 61.5234375 208.49609375 61.5234375 211.9140625 58.837890625 c 0,7,8
 215.33203125 56.15234375 215.33203125 56.15234375 225.09765625 55.17578125 c 0,9,10
 234.375 54.6875 234.375 54.6875 244.62890625 53.7109375 c 0,11,12
 253.41796875 52.734375 253.41796875 52.734375 264.6484375 51.7578125 c 0,13,14
 275.87890625 50.78125 275.87890625 50.78125 288.0859375 49.8046875 c 0,15,-1
 288.0859375 0 l 0,16,-1
 -15.13671875 0 l 0,17,-1
 -15.13671875 49.8046875 l 0,18,19
 -3.90625 50.78125 -3.90625 50.78125 6.591796875 51.26953125 c 0,20,21
 17.08984375 51.7578125 17.08984375 51.7578125 25.390625 52.734375 c 0,22,23
 35.15625 53.7109375 35.15625 53.7109375 43.9453125 54.19921875 c 0,24,25
 55.17578125 55.17578125 55.17578125 55.17578125 60.302734375 57.861328125 c 0,26,27
 65.4296875 60.546875 65.4296875 60.546875 66.89453125 70.80078125 c 0,28,-1
 170.8984375 601.07421875 l 0,29,30
 173.33984375 609.86328125 173.33984375 609.86328125 167.96875 612.548828125 c 0,31,32
 162.59765625 615.234375 162.59765625 615.234375 152.83203125 616.2109375 c 0,33,34
 144.04296875 616.69921875 144.04296875 616.69921875 134.765625 617.67578125 c 0,35,36
 126.46484375 618.65234375 126.46484375 618.65234375 116.2109375 619.384765625 c 0,37,38
 105.95703125 620.1171875 105.95703125 620.1171875 96.19140625 621.09375 c 0,39,-1
 96.19140625 670.8984375 l 0,40,-1
 397.94921875 670.8984375 l 0,41,-1
 397.94921875 621.09375 l 0,42,-1
 329.1015625 616.2109375 l 0,0,1
EndSplineSet
EndChar

StartChar: J
Encoding: 45 74 45
Width: 509
VWidth: 488
Flags: W
LayerCount: 2
Fore
SplineSet
480.95703125 615.234375 m 0,0,1
 474.12109375 615.234375 474.12109375 615.234375 471.435546875 611.083984375 c 0,2,3
 468.75 606.93359375 468.75 606.93359375 466.796875 600.09765625 c 0,4,-1
 402.83203125 256.8359375 l 0,5,6
 392.08984375 197.75390625 392.08984375 197.75390625 376.220703125 147.705078125 c 0,7,8
 360.3515625 97.65625 360.3515625 97.65625 331.0546875 61.279296875 c 0,9,10
 301.7578125 24.90234375 301.7578125 24.90234375 254.150390625 4.39453125 c 0,11,12
 206.54296875 -16.11328125 206.54296875 -16.11328125 132.8125 -16.11328125 c 0,13,14
 99.609375 -16.11328125 99.609375 -16.11328125 73.486328125 -11.71875 c 0,15,16
 47.36328125 -7.32421875 47.36328125 -7.32421875 28.3203125 -1.46484375 c 0,17,18
 9.27734375 4.39453125 9.27734375 4.39453125 -2.685546875 10.009765625 c 0,19,20
 -14.6484375 15.625 -14.6484375 15.625 -20.01953125 18.06640625 c 0,21,-1
 14.16015625 191.89453125 l 0,22,-1
 96.19140625 191.89453125 l 0,23,-1
 96.19140625 65.91796875 l 0,24,25
 96.19140625 62.01171875 96.19140625 62.01171875 100.830078125 58.349609375 c 0,26,27
 105.46875 54.6875 105.46875 54.6875 112.3046875 52.001953125 c 0,28,29
 119.140625 49.31640625 119.140625 49.31640625 126.708984375 47.607421875 c 0,30,31
 134.27734375 45.8984375 134.27734375 45.8984375 140.13671875 45.8984375 c 0,32,33
 183.59375 45.8984375 183.59375 45.8984375 211.42578125 95.947265625 c 0,34,35
 239.2578125 145.99609375 239.2578125 145.99609375 257.8125 249.0234375 c 0,36,-1
 324.21875 601.07421875 l 0,37,38
 325.68359375 609.86328125 325.68359375 609.86328125 320.80078125 612.548828125 c 0,39,40
 315.91796875 615.234375 315.91796875 615.234375 306.15234375 616.2109375 c 0,41,42
 296.875 616.69921875 296.875 616.69921875 287.109375 617.67578125 c 0,43,44
 278.80859375 618.65234375 278.80859375 618.65234375 268.06640625 619.384765625 c 0,45,46
 257.32421875 620.1171875 257.32421875 620.1171875 247.0703125 621.09375 c 0,47,-1
 247.0703125 670.8984375 l 0,48,-1
 548.828125 670.8984375 l 0,49,-1
 548.828125 621.09375 l 0,50,-1
 480.95703125 615.234375 l 0,0,1
EndSplineSet
EndChar

StartChar: K
Encoding: 46 75 46
Width: 698
VWidth: 488
Flags: W
LayerCount: 2
Fore
SplineSet
645.99609375 612.79296875 m 0,0,-1
 388.18359375 367.1875 l 0,1,-1
 526.85546875 103.02734375 l 0,2,3
 535.64453125 86.42578125 535.64453125 86.42578125 541.259765625 76.171875 c 0,4,5
 546.875 65.91796875 546.875 65.91796875 552.734375 59.814453125 c 0,6,7
 558.59375 53.7109375 558.59375 53.7109375 565.91796875 51.513671875 c 0,8,9
 573.2421875 49.31640625 573.2421875 49.31640625 584.9609375 48.828125 c 0,10,11
 588.8671875 48.828125 588.8671875 48.828125 598.6328125 49.560546875 c 0,12,13
 608.3984375 50.29296875 608.3984375 50.29296875 619.140625 51.025390625 c 0,14,15
 629.8828125 51.7578125 629.8828125 51.7578125 638.427734375 52.490234375 c 0,16,17
 646.97265625 53.22265625 646.97265625 53.22265625 647.94921875 53.22265625 c 0,18,-1
 647.94921875 2.9296875 l 0,19,20
 620.60546875 -5.37109375 620.60546875 -5.37109375 590.8203125 -10.7421875 c 0,21,22
 561.03515625 -16.11328125 561.03515625 -16.11328125 533.203125 -16.11328125 c 0,23,24
 502.9296875 -16.11328125 502.9296875 -16.11328125 481.689453125 -11.71875 c 0,25,26
 460.44921875 -7.32421875 460.44921875 -7.32421875 445.068359375 2.197265625 c 0,27,28
 429.6875 11.71875 429.6875 11.71875 418.212890625 26.611328125 c 0,29,30
 406.73828125 41.50390625 406.73828125 41.50390625 395.99609375 62.01171875 c 0,31,-1
 275.87890625 291.015625 l 0,32,-1
 252.9296875 291.015625 l 0,33,-1
 208.984375 69.82421875 l 0,34,35
 207.51953125 60.05859375 207.51953125 60.05859375 212.158203125 57.6171875 c 0,36,37
 216.796875 55.17578125 216.796875 55.17578125 225.09765625 54.19921875 c 0,38,39
 233.3984375 53.7109375 233.3984375 53.7109375 242.1875 52.734375 c 0,40,41
 249.51171875 51.7578125 249.51171875 51.7578125 258.544921875 51.26953125 c 0,42,43
 267.578125 50.78125 267.578125 50.78125 276.85546875 49.8046875 c 0,44,-1
 276.85546875 0 l 0,45,-1
 -16.11328125 0 l 0,46,-1
 -16.11328125 49.8046875 l 0,47,48
 -6.34765625 50.78125 -6.34765625 50.78125 4.39453125 51.26953125 c 0,49,50
 15.13671875 51.7578125 15.13671875 51.7578125 24.90234375 52.734375 c 0,51,52
 36.1328125 53.7109375 36.1328125 53.7109375 46.875 54.19921875 c 0,53,54
 54.6875 54.19921875 54.6875 54.19921875 59.5703125 57.6171875 c 0,55,56
 64.453125 61.03515625 64.453125 61.03515625 65.91796875 70.80078125 c 0,57,-1
 170.8984375 601.07421875 l 0,58,59
 173.33984375 609.86328125 173.33984375 609.86328125 169.43359375 613.037109375 c 0,60,61
 165.52734375 616.2109375 165.52734375 616.2109375 158.203125 617.1875 c 0,62,63
 149.90234375 617.67578125 149.90234375 617.67578125 141.11328125 618.1640625 c 0,64,65
 133.30078125 618.65234375 133.30078125 618.65234375 124.0234375 619.384765625 c 0,66,67
 114.74609375 620.1171875 114.74609375 620.1171875 104.98046875 621.09375 c 0,68,-1
 104.98046875 670.8984375 l 0,69,-1
 388.18359375 670.8984375 l 0,70,-1
 388.18359375 621.09375 l 0,71,72
 377.9296875 620.1171875 377.9296875 620.1171875 367.919921875 619.384765625 c 0,73,74
 357.91015625 618.65234375 357.91015625 618.65234375 350.09765625 618.1640625 c 0,75,76
 341.30859375 617.67578125 341.30859375 617.67578125 333.0078125 617.1875 c 0,77,78
 325.68359375 616.2109375 325.68359375 616.2109375 321.044921875 613.037109375 c 0,79,80
 316.40625 609.86328125 316.40625 609.86328125 313.96484375 600.09765625 c 0,81,-1
 270.99609375 382.8125 l 0,82,-1
 278.80859375 382.8125 l 0,83,-1
 503.90625 602.05078125 l 0,84,85
 511.71875 608.88671875 511.71875 608.88671875 508.544921875 612.548828125 c 0,86,87
 505.37109375 616.2109375 505.37109375 616.2109375 495.1171875 617.1875 c 0,88,89
 486.328125 617.1875 486.328125 617.1875 477.5390625 618.1640625 c 0,90,91
 469.7265625 618.65234375 469.7265625 618.65234375 460.44921875 619.384765625 c 0,92,93
 451.171875 620.1171875 451.171875 620.1171875 442.87109375 621.09375 c 0,94,-1
 442.87109375 670.8984375 l 0,95,-1
 733.88671875 670.8984375 l 0,96,-1
 733.88671875 621.09375 l 0,97,-1
 645.99609375 612.79296875 l 0,0,-1
EndSplineSet
EndChar

StartChar: L
Encoding: 47 76 47
Width: 560
VWidth: 488
Flags: W
LayerCount: 2
Fore
SplineSet
487.79296875 0 m 0,0,-1
 -15.13671875 0 l 0,1,-1
 -15.13671875 49.8046875 l 0,2,3
 -4.8828125 50.78125 -4.8828125 50.78125 5.126953125 51.7578125 c 0,4,5
 15.13671875 52.734375 15.13671875 52.734375 23.4375 53.22265625 c 0,6,-1
 41.9921875 54.19921875 l 0,7,8
 56.15234375 55.6640625 56.15234375 55.6640625 60.791015625 58.349609375 c 0,9,10
 65.4296875 61.03515625 65.4296875 61.03515625 66.89453125 70.80078125 c 0,11,-1
 170.8984375 601.07421875 l 0,12,13
 173.33984375 609.375 173.33984375 609.375 168.212890625 612.3046875 c 0,14,15
 163.0859375 615.234375 163.0859375 615.234375 154.78515625 616.2109375 c 0,16,17
 145.99609375 616.69921875 145.99609375 616.69921875 136.23046875 617.67578125 c 0,18,19
 127.9296875 618.65234375 127.9296875 618.65234375 117.431640625 619.384765625 c 0,20,21
 106.93359375 620.1171875 106.93359375 620.1171875 96.19140625 621.09375 c 0,22,-1
 96.19140625 670.8984375 l 0,23,-1
 397.94921875 670.8984375 l 0,24,-1
 397.94921875 621.09375 l 0,25,26
 385.25390625 620.1171875 385.25390625 620.1171875 373.779296875 619.384765625 c 0,27,28
 362.3046875 618.65234375 362.3046875 618.65234375 353.02734375 617.67578125 c 0,29,30
 342.28515625 616.69921875 342.28515625 616.69921875 333.0078125 616.2109375 c 0,31,32
 326.171875 615.234375 326.171875 615.234375 321.2890625 612.060546875 c 0,33,34
 316.40625 608.88671875 316.40625 608.88671875 313.96484375 600.09765625 c 0,35,-1
 208.0078125 60.05859375 l 0,36,-1
 383.7890625 60.05859375 l 0,37,38
 391.6015625 60.05859375 391.6015625 60.05859375 400.634765625 63.96484375 c 0,39,40
 409.66796875 67.87109375 409.66796875 67.87109375 412.109375 74.21875 c 0,41,-1
 453.125 202.1484375 l 0,42,-1
 527.83203125 202.1484375 l 0,43,-1
 487.79296875 0 l 0,0,-1
EndSplineSet
EndChar

StartChar: M
Encoding: 48 77 48
Width: 903
VWidth: 488
Flags: W
LayerCount: 2
Fore
SplineSet
876.953125 613.76953125 m 0,0,1
 870.1171875 612.79296875 870.1171875 612.79296875 867.431640625 609.86328125 c 0,2,3
 864.74609375 606.93359375 864.74609375 606.93359375 862.79296875 600.09765625 c 0,4,-1
 759.765625 69.82421875 l 0,5,6
 758.30078125 61.03515625 758.30078125 61.03515625 763.18359375 58.59375 c 0,7,8
 768.06640625 56.15234375 768.06640625 56.15234375 777.83203125 55.17578125 c 0,9,10
 786.62109375 54.6875 786.62109375 54.6875 796.38671875 53.7109375 c 0,11,12
 804.6875 52.734375 804.6875 52.734375 814.94140625 51.7578125 c 0,13,14
 825.1953125 50.78125 825.1953125 50.78125 835.9375 49.8046875 c 0,15,-1
 835.9375 0 l 0,16,-1
 534.1796875 0 l 0,17,-1
 534.1796875 49.8046875 l 0,18,19
 545.41015625 50.78125 545.41015625 50.78125 556.15234375 51.7578125 c 0,20,21
 566.89453125 52.734375 566.89453125 52.734375 575.68359375 53.7109375 c 0,22,23
 585.9375 54.6875 585.9375 54.6875 595.21484375 55.17578125 c 0,24,25
 603.515625 55.17578125 603.515625 55.17578125 609.619140625 58.59375 c 0,26,27
 615.72265625 62.01171875 615.72265625 62.01171875 617.1875 70.80078125 c 0,28,-1
 691.89453125 457.03125 l 0,29,-1
 432.12890625 0 l 0,30,-1
 333.984375 0 l 0,31,-1
 252.9296875 450.1953125 l 0,32,-1
 182.12890625 69.82421875 l 0,33,34
 179.6875 61.5234375 179.6875 61.5234375 184.326171875 58.837890625 c 0,35,36
 188.96484375 56.15234375 188.96484375 56.15234375 195.80078125 55.17578125 c 0,37,38
 205.078125 54.6875 205.078125 54.6875 214.84375 53.7109375 c 0,39,40
 223.14453125 52.734375 223.14453125 52.734375 234.130859375 51.7578125 c 0,41,42
 245.1171875 50.78125 245.1171875 50.78125 256.8359375 49.8046875 c 0,43,-1
 256.8359375 0 l 0,44,-1
 -14.16015625 0 l 0,45,-1
 -14.16015625 49.8046875 l 0,46,47
 -3.90625 50.78125 -3.90625 50.78125 5.859375 51.7578125 c 0,48,49
 15.625 52.734375 15.625 52.734375 23.92578125 53.7109375 c 0,50,51
 33.203125 54.6875 33.203125 54.6875 41.9921875 55.17578125 c 0,52,53
 52.734375 56.15234375 52.734375 56.15234375 59.08203125 58.59375 c 0,54,55
 65.4296875 61.03515625 65.4296875 61.03515625 67.87109375 70.80078125 c 0,56,-1
 170.8984375 601.07421875 l 0,57,58
 172.36328125 609.86328125 172.36328125 609.86328125 167.48046875 612.548828125 c 0,59,60
 162.59765625 615.234375 162.59765625 615.234375 152.83203125 616.2109375 c 0,61,62
 143.5546875 616.69921875 143.5546875 616.69921875 134.27734375 617.67578125 c 0,63,64
 125.9765625 618.65234375 125.9765625 618.65234375 115.72265625 619.384765625 c 0,65,66
 105.46875 620.1171875 105.46875 620.1171875 95.21484375 621.09375 c 0,67,-1
 95.21484375 670.8984375 l 0,68,-1
 360.83984375 670.8984375 l 0,69,-1
 360.83984375 638.18359375 l 0,70,-1
 437.01171875 217.7734375 l 0,71,-1
 671.875 633.7890625 l 0,72,-1
 671.875 670.8984375 l 0,73,-1
 944.82421875 670.8984375 l 0,74,-1
 944.82421875 621.09375 l 0,75,-1
 876.953125 613.76953125 l 0,0,1
EndSplineSet
EndChar

StartChar: N
Encoding: 49 78 49
Width: 752
VWidth: 488
Flags: W
LayerCount: 2
Fore
SplineSet
731.93359375 615.234375 m 0,0,1
 717.7734375 612.79296875 717.7734375 612.79296875 714.84375 600.09765625 c 0,2,-1
 596.19140625 0 l 0,3,-1
 484.86328125 0 l 0,4,-1
 261.23046875 464.84375 l 0,5,-1
 184.08203125 69.82421875 l 0,6,7
 182.6171875 61.03515625 182.6171875 61.03515625 187.01171875 58.59375 c 0,8,9
 191.40625 56.15234375 191.40625 56.15234375 202.1484375 55.17578125 c 0,10,11
 210.9375 54.6875 210.9375 54.6875 220.21484375 53.7109375 c 0,12,13
 228.515625 52.734375 228.515625 52.734375 238.525390625 51.7578125 c 0,14,15
 248.53515625 50.78125 248.53515625 50.78125 259.765625 49.8046875 c 0,16,-1
 259.765625 0 l 0,17,-1
 -14.16015625 0 l 0,18,-1
 -14.16015625 49.8046875 l 0,19,20
 -3.41796875 50.78125 -3.41796875 50.78125 6.591796875 51.7578125 c 0,21,22
 16.6015625 52.734375 16.6015625 52.734375 24.90234375 53.7109375 c 0,23,24
 34.1796875 54.6875 34.1796875 54.6875 42.96875 55.17578125 c 0,25,26
 53.7109375 56.15234375 53.7109375 56.15234375 59.5703125 58.59375 c 0,27,28
 65.4296875 61.03515625 65.4296875 61.03515625 67.87109375 70.80078125 c 0,29,-1
 170.8984375 601.07421875 l 0,30,31
 173.33984375 609.86328125 173.33984375 609.86328125 167.96875 612.548828125 c 0,32,33
 162.59765625 615.234375 162.59765625 615.234375 152.83203125 616.2109375 c 0,34,35
 144.04296875 616.69921875 144.04296875 616.69921875 134.765625 617.67578125 c 0,36,37
 126.46484375 618.65234375 126.46484375 618.65234375 116.455078125 619.384765625 c 0,38,39
 106.4453125 620.1171875 106.4453125 620.1171875 96.19140625 621.09375 c 0,40,-1
 96.19140625 670.8984375 l 0,41,-1
 331.0546875 670.8984375 l 0,42,-1
 331.0546875 640.13671875 l 0,43,-1
 525.87890625 232.91015625 l 0,44,-1
 599.12109375 601.07421875 l 0,45,46
 601.5625 609.86328125 601.5625 609.86328125 595.21484375 612.548828125 c 0,47,48
 588.8671875 615.234375 588.8671875 615.234375 580.078125 616.2109375 c 0,49,50
 570.80078125 616.69921875 570.80078125 616.69921875 561.5234375 617.67578125 c 0,51,52
 553.22265625 618.65234375 553.22265625 618.65234375 542.96875 619.384765625 c 0,53,54
 532.71484375 620.1171875 532.71484375 620.1171875 522.94921875 621.09375 c 0,55,-1
 522.94921875 670.8984375 l 0,56,-1
 796.875 670.8984375 l 0,57,-1
 796.875 621.09375 l 0,58,-1
 731.93359375 615.234375 l 0,0,1
EndSplineSet
EndChar

StartChar: O
Encoding: 50 79 50
Width: 751
VWidth: 488
Flags: W
LayerCount: 2
Fore
SplineSet
732.91015625 416.9921875 m 0,0,1
 732.91015625 365.72265625 732.91015625 365.72265625 722.16796875 313.720703125 c 0,2,3
 711.42578125 261.71875 711.42578125 261.71875 689.697265625 213.623046875 c 0,4,5
 667.96875 165.52734375 667.96875 165.52734375 635.25390625 123.53515625 c 0,6,7
 602.5390625 81.54296875 602.5390625 81.54296875 559.08203125 50.537109375 c 0,8,9
 515.625 19.53125 515.625 19.53125 460.9375 1.708984375 c 0,10,11
 406.25 -16.11328125 406.25 -16.11328125 340.8203125 -16.11328125 c 0,12,13
 270.99609375 -16.11328125 270.99609375 -16.11328125 216.552734375 4.638671875 c 0,14,15
 162.109375 25.390625 162.109375 25.390625 124.51171875 62.744140625 c 0,16,17
 86.9140625 100.09765625 86.9140625 100.09765625 67.3828125 151.123046875 c 0,18,19
 47.8515625 202.1484375 47.8515625 202.1484375 47.8515625 263.18359375 c 0,20,21
 47.8515625 314.94140625 47.8515625 314.94140625 59.814453125 366.69921875 c 0,22,23
 71.77734375 418.45703125 71.77734375 418.45703125 94.970703125 465.576171875 c 0,24,25
 118.1640625 512.6953125 118.1640625 512.6953125 151.85546875 553.22265625 c 0,26,27
 185.546875 593.75 185.546875 593.75 229.248046875 623.53515625 c 0,28,29
 272.94921875 653.3203125 272.94921875 653.3203125 326.171875 670.166015625 c 0,30,31
 379.39453125 687.01171875 379.39453125 687.01171875 440.91796875 687.01171875 c 0,32,33
 513.18359375 687.01171875 513.18359375 687.01171875 567.87109375 664.794921875 c 0,34,35
 622.55859375 642.578125 622.55859375 642.578125 659.1796875 605.224609375 c 0,36,37
 695.80078125 567.87109375 695.80078125 567.87109375 714.35546875 519.04296875 c 0,38,39
 732.91015625 470.21484375 732.91015625 470.21484375 732.91015625 416.9921875 c 0,0,1
577.1484375 416.9921875 m 0,40,41
 577.1484375 467.28515625 577.1484375 467.28515625 564.208984375 506.34765625 c 0,42,43
 551.26953125 545.41015625 551.26953125 545.41015625 530.517578125 572.265625 c 0,44,45
 509.765625 599.12109375 509.765625 599.12109375 483.88671875 613.037109375 c 0,46,47
 458.0078125 626.953125 458.0078125 626.953125 432.12890625 626.953125 c 0,48,49
 402.34375 626.953125 402.34375 626.953125 373.779296875 611.81640625 c 0,50,51
 345.21484375 596.6796875 345.21484375 596.6796875 319.82421875 570.556640625 c 0,52,53
 294.43359375 544.43359375 294.43359375 544.43359375 272.94921875 508.544921875 c 0,54,55
 251.46484375 472.65625 251.46484375 472.65625 236.083984375 431.396484375 c 0,56,57
 220.703125 390.13671875 220.703125 390.13671875 211.9140625 344.970703125 c 0,58,59
 203.125 299.8046875 203.125 299.8046875 203.125 254.8828125 c 0,60,61
 203.125 203.125 203.125 203.125 216.552734375 164.0625 c 0,62,63
 229.98046875 125 229.98046875 125 250.9765625 98.6328125 c 0,64,65
 271.97265625 72.265625 271.97265625 72.265625 297.607421875 59.08203125 c 0,66,67
 323.2421875 45.8984375 323.2421875 45.8984375 348.14453125 45.8984375 c 0,68,69
 377.44140625 45.8984375 377.44140625 45.8984375 406.005859375 61.279296875 c 0,70,71
 434.5703125 76.66015625 434.5703125 76.66015625 459.9609375 103.515625 c 0,72,73
 485.3515625 130.37109375 485.3515625 130.37109375 506.8359375 166.259765625 c 0,74,75
 528.3203125 202.1484375 528.3203125 202.1484375 543.9453125 243.408203125 c 0,76,77
 559.5703125 284.66796875 559.5703125 284.66796875 568.359375 329.1015625 c 0,78,79
 577.1484375 373.53515625 577.1484375 373.53515625 577.1484375 416.9921875 c 0,40,41
EndSplineSet
EndChar

StartChar: P
Encoding: 51 80 51
Width: 607
VWidth: 488
Flags: W
LayerCount: 2
Fore
SplineSet
466.796875 492.1875 m 0,0,1
 466.796875 551.26953125 466.796875 551.26953125 433.10546875 582.51953125 c 0,2,3
 399.4140625 613.76953125 399.4140625 613.76953125 333.0078125 613.76953125 c 0,4,-1
 315.91796875 613.76953125 l 0,5,-1
 254.8828125 308.10546875 l 0,6,7
 284.1796875 307.12890625 284.1796875 307.12890625 317.138671875 313.232421875 c 0,8,9
 350.09765625 319.3359375 350.09765625 319.3359375 380.859375 337.890625 c 0,10,11
 398.92578125 348.6328125 398.92578125 348.6328125 414.55078125 363.28125 c 0,12,13
 430.17578125 377.9296875 430.17578125 377.9296875 441.89453125 396.97265625 c 0,14,15
 453.61328125 416.015625 453.61328125 416.015625 460.205078125 439.697265625 c 0,16,17
 466.796875 463.37890625 466.796875 463.37890625 466.796875 492.1875 c 0,0,1
612.79296875 507.8125 m 0,18,19
 612.79296875 449.21875 612.79296875 449.21875 590.087890625 401.3671875 c 0,20,21
 567.3828125 353.515625 567.3828125 353.515625 524.90234375 319.091796875 c 0,22,23
 482.421875 284.66796875 482.421875 284.66796875 422.119140625 265.869140625 c 0,24,25
 361.81640625 247.0703125 361.81640625 247.0703125 287.109375 247.0703125 c 0,26,-1
 266.6015625 247.0703125 l 0,27,28
 254.39453125 247.0703125 254.39453125 247.0703125 244.140625 248.046875 c 0,29,-1
 208.0078125 69.82421875 l 0,30,31
 206.54296875 61.03515625 206.54296875 61.03515625 210.9375 58.59375 c 0,32,33
 215.33203125 56.15234375 215.33203125 56.15234375 226.07421875 55.17578125 c 0,34,35
 234.86328125 54.6875 234.86328125 54.6875 244.62890625 53.7109375 c 0,36,37
 252.9296875 52.734375 252.9296875 52.734375 263.427734375 51.7578125 c 0,38,39
 273.92578125 50.78125 273.92578125 50.78125 285.15625 49.8046875 c 0,40,-1
 285.15625 0 l 0,41,-1
 -17.08984375 0 l 0,42,-1
 -17.08984375 49.8046875 l 0,43,44
 -6.34765625 50.78125 -6.34765625 50.78125 3.90625 51.7578125 c 0,45,46
 14.16015625 52.734375 14.16015625 52.734375 22.4609375 53.7109375 c 0,47,48
 31.73828125 54.6875 31.73828125 54.6875 41.015625 55.17578125 c 0,49,50
 50.78125 56.15234375 50.78125 56.15234375 56.640625 58.59375 c 0,51,52
 62.5 61.03515625 62.5 61.03515625 64.94140625 70.80078125 c 0,53,-1
 169.921875 601.07421875 l 0,54,55
 171.38671875 609.86328125 171.38671875 609.86328125 165.771484375 612.548828125 c 0,56,57
 160.15625 615.234375 160.15625 615.234375 150.87890625 616.2109375 c 0,58,59
 142.08984375 616.69921875 142.08984375 616.69921875 132.8125 617.67578125 c 0,60,61
 124.51171875 618.65234375 124.51171875 618.65234375 114.2578125 619.384765625 c 0,62,63
 104.00390625 620.1171875 104.00390625 620.1171875 94.23828125 621.09375 c 0,64,-1
 94.23828125 670.8984375 l 0,65,-1
 363.76953125 670.8984375 l 0,66,67
 434.5703125 670.8984375 434.5703125 670.8984375 482.421875 657.958984375 c 0,68,69
 530.2734375 645.01953125 530.2734375 645.01953125 559.326171875 622.802734375 c 0,70,71
 588.37890625 600.5859375 588.37890625 600.5859375 600.5859375 571.044921875 c 0,72,73
 612.79296875 541.50390625 612.79296875 541.50390625 612.79296875 507.8125 c 0,18,19
EndSplineSet
EndChar

StartChar: Q
Encoding: 52 81 52
Width: 751
VWidth: 488
Flags: W
LayerCount: 2
Fore
SplineSet
764.16015625 -107.91015625 m 0,0,1
 757.32421875 -111.328125 757.32421875 -111.328125 737.3046875 -119.873046875 c 0,2,3
 717.28515625 -128.41796875 717.28515625 -128.41796875 690.4296875 -137.451171875 c 0,4,5
 663.57421875 -146.484375 663.57421875 -146.484375 632.8125 -153.3203125 c 0,6,7
 602.05078125 -160.15625 602.05078125 -160.15625 574.21875 -160.15625 c 0,8,9
 527.83203125 -160.15625 527.83203125 -160.15625 494.873046875 -148.193359375 c 0,10,11
 461.9140625 -136.23046875 461.9140625 -136.23046875 438.4765625 -116.455078125 c 0,12,13
 415.0390625 -96.6796875 415.0390625 -96.6796875 399.169921875 -70.556640625 c 0,14,15
 383.30078125 -44.43359375 383.30078125 -44.43359375 370.1171875 -16.11328125 c 0,16,17
 363.28125 -17.08984375 363.28125 -17.08984375 355.224609375 -17.578125 c 0,18,19
 347.16796875 -18.06640625 347.16796875 -18.06640625 337.890625 -18.06640625 c 0,20,21
 272.94921875 -18.06640625 272.94921875 -18.06640625 219.23828125 1.220703125 c 0,22,23
 165.52734375 20.5078125 165.52734375 20.5078125 126.953125 56.640625 c 0,24,25
 88.37890625 92.7734375 88.37890625 92.7734375 67.138671875 143.798828125 c 0,26,27
 45.8984375 194.82421875 45.8984375 194.82421875 45.8984375 258.7890625 c 0,28,29
 45.8984375 308.59375 45.8984375 308.59375 57.861328125 359.86328125 c 0,30,31
 69.82421875 411.1328125 69.82421875 411.1328125 93.26171875 458.740234375 c 0,32,33
 116.69921875 506.34765625 116.69921875 506.34765625 150.634765625 547.8515625 c 0,34,35
 184.5703125 589.35546875 184.5703125 589.35546875 228.515625 620.361328125 c 0,36,37
 272.4609375 651.3671875 272.4609375 651.3671875 325.927734375 669.189453125 c 0,38,39
 379.39453125 687.01171875 379.39453125 687.01171875 441.89453125 687.01171875 c 0,40,41
 513.18359375 687.01171875 513.18359375 687.01171875 567.3828125 665.52734375 c 0,42,43
 621.58203125 644.04296875 621.58203125 644.04296875 658.203125 606.93359375 c 0,44,45
 694.82421875 569.82421875 694.82421875 569.82421875 713.37890625 520.751953125 c 0,46,47
 731.93359375 471.6796875 731.93359375 471.6796875 731.93359375 416.015625 c 0,48,49
 731.93359375 389.6484375 731.93359375 389.6484375 728.759765625 357.421875 c 0,50,51
 725.5859375 325.1953125 725.5859375 325.1953125 716.552734375 290.283203125 c 0,52,53
 707.51953125 255.37109375 707.51953125 255.37109375 692.138671875 218.994140625 c 0,54,55
 676.7578125 182.6171875 676.7578125 182.6171875 652.587890625 147.705078125 c 0,56,57
 628.41796875 112.79296875 628.41796875 112.79296875 593.994140625 80.56640625 c 0,58,59
 559.5703125 48.33984375 559.5703125 48.33984375 513.18359375 21.97265625 c 0,60,61
 527.34375 -3.41796875 527.34375 -3.41796875 538.0859375 -24.4140625 c 0,62,63
 548.828125 -45.41015625 548.828125 -45.41015625 561.03515625 -60.302734375 c 0,64,65
 573.2421875 -75.1953125 573.2421875 -75.1953125 588.8671875 -83.49609375 c 0,66,67
 604.4921875 -91.796875 604.4921875 -91.796875 627.9296875 -91.796875 c 0,68,69
 641.11328125 -91.796875 641.11328125 -91.796875 654.78515625 -88.623046875 c 0,70,71
 668.45703125 -85.44921875 668.45703125 -85.44921875 684.5703125 -79.58984375 c 0,72,73
 700.68359375 -73.73046875 700.68359375 -73.73046875 719.970703125 -64.94140625 c 0,74,75
 739.2578125 -56.15234375 739.2578125 -56.15234375 764.16015625 -44.921875 c 0,76,-1
 764.16015625 -107.91015625 l 0,0,1
577.1484375 416.015625 m 0,77,78
 577.1484375 464.35546875 577.1484375 464.35546875 564.94140625 503.173828125 c 0,79,80
 552.734375 541.9921875 552.734375 541.9921875 532.958984375 569.3359375 c 0,81,82
 513.18359375 596.6796875 513.18359375 596.6796875 488.037109375 611.328125 c 0,83,84
 462.890625 625.9765625 462.890625 625.9765625 437.01171875 625.9765625 c 0,85,86
 406.73828125 625.9765625 406.73828125 625.9765625 377.44140625 611.572265625 c 0,87,88
 348.14453125 597.16796875 348.14453125 597.16796875 321.77734375 571.533203125 c 0,89,90
 295.41015625 545.8984375 295.41015625 545.8984375 273.193359375 510.7421875 c 0,91,92
 250.9765625 475.5859375 250.9765625 475.5859375 234.619140625 434.326171875 c 0,93,94
 218.26171875 393.06640625 218.26171875 393.06640625 209.228515625 347.16796875 c 0,95,96
 200.1953125 301.26953125 200.1953125 301.26953125 200.1953125 253.90625 c 0,97,98
 200.1953125 206.0546875 200.1953125 206.0546875 212.40234375 167.236328125 c 0,99,100
 224.609375 128.41796875 224.609375 128.41796875 244.873046875 101.07421875 c 0,101,102
 265.13671875 73.73046875 265.13671875 73.73046875 291.748046875 58.837890625 c 0,103,104
 318.359375 43.9453125 318.359375 43.9453125 347.16796875 43.9453125 c 0,105,106
 375.9765625 43.9453125 375.9765625 43.9453125 404.296875 59.08203125 c 0,107,108
 432.6171875 74.21875 432.6171875 74.21875 458.251953125 100.830078125 c 0,109,110
 483.88671875 127.44140625 483.88671875 127.44140625 505.615234375 163.330078125 c 0,111,112
 527.34375 199.21875 527.34375 199.21875 543.212890625 240.72265625 c 0,113,114
 559.08203125 282.2265625 559.08203125 282.2265625 568.115234375 326.904296875 c 0,115,116
 577.1484375 371.58203125 577.1484375 371.58203125 577.1484375 416.015625 c 0,77,78
EndSplineSet
EndChar

StartChar: R
Encoding: 53 82 53
Width: 683
VWidth: 488
Flags: W
LayerCount: 2
Fore
SplineSet
467.7734375 505.859375 m 0,0,1
 467.7734375 530.2734375 467.7734375 530.2734375 460.44921875 547.8515625 c 0,2,3
 453.125 565.4296875 453.125 565.4296875 441.650390625 577.392578125 c 0,4,5
 430.17578125 589.35546875 430.17578125 589.35546875 416.015625 596.6796875 c 0,6,7
 401.85546875 604.00390625 401.85546875 604.00390625 387.6953125 607.666015625 c 0,8,9
 373.53515625 611.328125 373.53515625 611.328125 361.083984375 612.3046875 c 0,10,11
 348.6328125 613.28125 348.6328125 613.28125 340.8203125 612.79296875 c 0,12,-1
 315.91796875 610.83984375 l 0,13,-1
 267.08984375 352.05078125 l 0,14,-1
 273.92578125 352.05078125 l 0,15,16
 278.3203125 352.05078125 278.3203125 352.05078125 282.2265625 352.5390625 c 0,17,18
 287.109375 352.5390625 287.109375 352.5390625 291.9921875 353.02734375 c 0,19,20
 311.03515625 353.515625 311.03515625 353.515625 331.54296875 357.421875 c 0,21,22
 352.05078125 361.328125 352.05078125 361.328125 371.58203125 368.65234375 c 0,23,24
 391.11328125 375.9765625 391.11328125 375.9765625 408.447265625 387.6953125 c 0,25,26
 425.78125 399.4140625 425.78125 399.4140625 438.96484375 416.259765625 c 0,27,28
 452.1484375 433.10546875 452.1484375 433.10546875 459.9609375 455.322265625 c 0,29,30
 467.7734375 477.5390625 467.7734375 477.5390625 467.7734375 505.859375 c 0,0,1
657.2265625 2.9296875 m 0,31,32
 634.27734375 -6.8359375 634.27734375 -6.8359375 612.3046875 -11.474609375 c 0,33,34
 590.33203125 -16.11328125 590.33203125 -16.11328125 562.98828125 -16.11328125 c 0,35,36
 516.6015625 -16.11328125 516.6015625 -16.11328125 486.81640625 -5.37109375 c 0,37,38
 457.03125 5.37109375 457.03125 5.37109375 437.98828125 26.123046875 c 0,39,40
 418.9453125 46.875 418.9453125 46.875 408.203125 77.1484375 c 0,41,42
 397.4609375 107.421875 397.4609375 107.421875 389.16015625 146.97265625 c 0,43,44
 385.7421875 161.62109375 385.7421875 161.62109375 382.080078125 177.978515625 c 0,45,46
 378.41796875 194.3359375 378.41796875 194.3359375 373.291015625 210.44921875 c 0,47,48
 368.1640625 226.5625 368.1640625 226.5625 361.083984375 241.2109375 c 0,49,50
 354.00390625 255.859375 354.00390625 255.859375 343.505859375 267.333984375 c 0,51,52
 333.0078125 278.80859375 333.0078125 278.80859375 319.091796875 285.400390625 c 0,53,54
 305.17578125 291.9921875 305.17578125 291.9921875 286.1328125 291.9921875 c 0,55,56
 279.78515625 291.9921875 279.78515625 291.9921875 270.99609375 291.50390625 c 0,57,58
 262.20703125 291.015625 262.20703125 291.015625 253.90625 291.015625 c 0,59,-1
 211.9140625 69.82421875 l 0,60,61
 210.44921875 61.5234375 210.44921875 61.5234375 214.35546875 58.837890625 c 0,62,63
 218.26171875 56.15234375 218.26171875 56.15234375 228.02734375 55.17578125 c 0,64,65
 236.81640625 54.19921875 236.81640625 54.19921875 247.0703125 53.22265625 c 0,66,67
 255.37109375 52.24609375 255.37109375 52.24609375 266.6015625 51.513671875 c 0,68,69
 277.83203125 50.78125 277.83203125 50.78125 289.0625 49.8046875 c 0,70,-1
 289.0625 0 l 0,71,-1
 -13.18359375 0 l 0,72,-1
 -13.18359375 49.8046875 l 0,73,74
 -1.953125 50.78125 -1.953125 50.78125 8.544921875 51.26953125 c 0,75,76
 19.04296875 51.7578125 19.04296875 51.7578125 27.34375 52.734375 c 0,77,78
 37.109375 53.7109375 37.109375 53.7109375 45.8984375 54.19921875 c 0,79,80
 55.17578125 55.17578125 55.17578125 55.17578125 60.791015625 58.10546875 c 0,81,82
 66.40625 61.03515625 66.40625 61.03515625 68.84765625 70.80078125 c 0,83,-1
 170.8984375 601.07421875 l 0,84,85
 173.33984375 609.375 173.33984375 609.375 168.45703125 612.3046875 c 0,86,87
 163.57421875 615.234375 163.57421875 615.234375 153.80859375 616.2109375 c 0,88,89
 144.53125 616.69921875 144.53125 616.69921875 135.25390625 617.67578125 c 0,90,91
 126.953125 618.65234375 126.953125 618.65234375 116.69921875 619.384765625 c 0,92,93
 106.4453125 620.1171875 106.4453125 620.1171875 96.19140625 621.09375 c 0,94,-1
 96.19140625 670.8984375 l 0,95,-1
 384.765625 670.8984375 l 0,96,97
 435.05859375 670.8984375 435.05859375 670.8984375 478.515625 663.0859375 c 0,98,99
 521.97265625 655.2734375 521.97265625 655.2734375 554.19921875 637.451171875 c 0,100,101
 586.42578125 619.62890625 586.42578125 619.62890625 604.736328125 591.064453125 c 0,102,103
 623.046875 562.5 623.046875 562.5 623.046875 520.99609375 c 0,104,105
 623.046875 481.4453125 623.046875 481.4453125 607.666015625 449.462890625 c 0,106,107
 592.28515625 417.48046875 592.28515625 417.48046875 565.4296875 392.08984375 c 0,108,109
 538.57421875 366.69921875 538.57421875 366.69921875 501.953125 347.900390625 c 0,110,111
 465.33203125 329.1015625 465.33203125 329.1015625 422.8515625 316.89453125 c 0,112,113
 451.66015625 303.7109375 451.66015625 303.7109375 469.23828125 287.841796875 c 0,114,115
 486.81640625 271.97265625 486.81640625 271.97265625 497.55859375 252.197265625 c 0,116,117
 508.30078125 232.421875 508.30078125 232.421875 514.892578125 208.740234375 c 0,118,119
 521.484375 185.05859375 521.484375 185.05859375 528.80859375 157.2265625 c 0,120,121
 535.64453125 130.859375 535.64453125 130.859375 542.236328125 110.83984375 c 0,122,123
 548.828125 90.8203125 548.828125 90.8203125 561.767578125 77.1484375 c 0,124,125
 574.70703125 63.4765625 574.70703125 63.4765625 596.923828125 56.640625 c 0,126,127
 619.140625 49.8046875 619.140625 49.8046875 657.2265625 49.8046875 c 0,128,-1
 657.2265625 2.9296875 l 0,31,32
EndSplineSet
EndChar

StartChar: S
Encoding: 54 83 54
Width: 562
VWidth: 488
Flags: W
LayerCount: 2
Fore
SplineSet
521.97265625 491.2109375 m 0,0,-1
 445.80078125 491.2109375 l 0,1,-1
 450.1953125 595.21484375 l 0,2,3
 450.1953125 597.65625 450.1953125 597.65625 440.91796875 603.02734375 c 0,4,5
 431.640625 608.3984375 431.640625 608.3984375 417.48046875 614.013671875 c 0,6,7
 403.3203125 619.62890625 403.3203125 619.62890625 386.962890625 623.779296875 c 0,8,9
 370.60546875 627.9296875 370.60546875 627.9296875 356.93359375 627.9296875 c 0,10,11
 337.40234375 627.9296875 337.40234375 627.9296875 314.94140625 619.140625 c 0,12,13
 292.48046875 610.3515625 292.48046875 610.3515625 273.193359375 593.75 c 0,14,15
 253.90625 577.1484375 253.90625 577.1484375 240.966796875 553.22265625 c 0,16,17
 228.02734375 529.296875 228.02734375 529.296875 228.02734375 499.0234375 c 0,18,19
 228.02734375 472.65625 228.02734375 472.65625 242.431640625 452.880859375 c 0,20,21
 256.8359375 433.10546875 256.8359375 433.10546875 278.076171875 418.212890625 c 0,22,23
 299.31640625 403.3203125 299.31640625 403.3203125 323.486328125 391.845703125 c 0,24,25
 347.65625 380.37109375 347.65625 380.37109375 367.1875 371.09375 c 0,26,27
 394.04296875 357.421875 394.04296875 357.421875 419.677734375 342.28515625 c 0,28,29
 445.3125 327.1484375 445.3125 327.1484375 465.087890625 308.10546875 c 0,30,31
 484.86328125 289.0625 484.86328125 289.0625 496.826171875 264.404296875 c 0,32,33
 508.7890625 239.74609375 508.7890625 239.74609375 508.7890625 207.03125 c 0,34,35
 508.7890625 184.08203125 508.7890625 184.08203125 502.44140625 158.935546875 c 0,36,37
 496.09375 133.7890625 496.09375 133.7890625 481.93359375 108.88671875 c 0,38,39
 467.7734375 83.984375 467.7734375 83.984375 444.82421875 61.279296875 c 0,40,41
 421.875 38.57421875 421.875 38.57421875 388.427734375 21.484375 c 0,42,43
 354.98046875 4.39453125 354.98046875 4.39453125 310.302734375 -5.859375 c 0,44,45
 265.625 -16.11328125 265.625 -16.11328125 208.0078125 -16.11328125 c 0,46,47
 166.9921875 -16.11328125 166.9921875 -16.11328125 131.103515625 -9.033203125 c 0,48,49
 95.21484375 -1.953125 95.21484375 -1.953125 67.138671875 7.568359375 c 0,50,51
 39.0625 17.08984375 39.0625 17.08984375 20.5078125 26.3671875 c 0,52,53
 1.953125 35.64453125 1.953125 35.64453125 -4.8828125 40.0390625 c 0,54,-1
 29.78515625 204.1015625 l 0,55,-1
 115.234375 204.1015625 l 0,56,-1
 104.00390625 84.9609375 l 0,57,58
 103.515625 82.03125 103.515625 82.03125 117.1875 75.439453125 c 0,59,60
 130.859375 68.84765625 130.859375 68.84765625 149.90234375 62.255859375 c 0,61,62
 168.9453125 55.6640625 168.9453125 55.6640625 189.208984375 50.78125 c 0,63,64
 209.47265625 45.8984375 209.47265625 45.8984375 222.16796875 45.8984375 c 0,65,66
 244.62890625 45.8984375 244.62890625 45.8984375 269.53125 54.443359375 c 0,67,68
 294.43359375 62.98828125 294.43359375 62.98828125 315.185546875 80.322265625 c 0,69,70
 335.9375 97.65625 335.9375 97.65625 349.365234375 123.779296875 c 0,71,72
 362.79296875 149.90234375 362.79296875 149.90234375 362.79296875 185.05859375 c 0,73,74
 362.79296875 209.47265625 362.79296875 209.47265625 347.900390625 228.515625 c 0,75,76
 333.0078125 247.55859375 333.0078125 247.55859375 311.767578125 262.451171875 c 0,77,78
 290.52734375 277.34375 290.52734375 277.34375 266.357421875 289.0625 c 0,79,80
 242.1875 300.78125 242.1875 300.78125 224.12109375 310.05859375 c 0,81,82
 197.265625 323.73046875 197.265625 323.73046875 172.119140625 338.623046875 c 0,83,84
 146.97265625 353.515625 146.97265625 353.515625 127.44140625 371.826171875 c 0,85,86
 107.91015625 390.13671875 107.91015625 390.13671875 95.947265625 413.0859375 c 0,87,88
 83.984375 436.03515625 83.984375 436.03515625 83.984375 465.8203125 c 0,89,90
 83.984375 514.16015625 83.984375 514.16015625 103.271484375 554.6875 c 0,91,92
 122.55859375 595.21484375 122.55859375 595.21484375 158.935546875 624.51171875 c 0,93,94
 195.3125 653.80859375 195.3125 653.80859375 247.314453125 670.41015625 c 0,95,96
 299.31640625 687.01171875 299.31640625 687.01171875 365.234375 687.01171875 c 0,97,98
 398.92578125 687.01171875 398.92578125 687.01171875 427.24609375 683.349609375 c 0,99,100
 455.56640625 679.6875 455.56640625 679.6875 479.248046875 673.828125 c 0,101,102
 502.9296875 667.96875 502.9296875 667.96875 521.97265625 660.888671875 c 0,103,104
 541.015625 653.80859375 541.015625 653.80859375 556.15234375 646.97265625 c 0,105,-1
 521.97265625 491.2109375 l 0,0,-1
EndSplineSet
EndChar

StartChar: T
Encoding: 55 84 55
Width: 627
VWidth: 488
Flags: W
LayerCount: 2
Fore
SplineSet
655.76171875 496.09375 m 0,0,-1
 578.125 496.09375 l 0,1,-1
 583.0078125 603.02734375 l 0,2,3
 583.49609375 609.375 583.49609375 609.375 575.927734375 612.79296875 c 0,4,5
 568.359375 616.2109375 568.359375 616.2109375 561.03515625 616.2109375 c 0,6,-1
 452.1484375 616.2109375 l 0,7,-1
 349.12109375 69.82421875 l 0,8,9
 347.65625 61.03515625 347.65625 61.03515625 353.271484375 58.59375 c 0,10,11
 358.88671875 56.15234375 358.88671875 56.15234375 368.1640625 55.17578125 c 0,12,13
 376.953125 54.6875 376.953125 54.6875 386.71875 53.7109375 c 0,14,15
 395.01953125 52.734375 395.01953125 52.734375 405.2734375 51.7578125 c 0,16,-1
 425.78125 49.8046875 l 0,17,-1
 425.78125 0 l 0,18,-1
 124.0234375 0 l 0,19,-1
 124.0234375 49.8046875 l 0,20,21
 133.7890625 50.78125 133.7890625 50.78125 143.310546875 51.26953125 c 0,22,23
 152.83203125 51.7578125 152.83203125 51.7578125 161.1328125 52.734375 c 0,24,25
 170.41015625 53.7109375 170.41015625 53.7109375 179.19921875 54.19921875 c 0,26,27
 189.453125 55.17578125 189.453125 55.17578125 197.021484375 58.10546875 c 0,28,29
 204.58984375 61.03515625 204.58984375 61.03515625 206.0546875 70.80078125 c 0,30,-1
 309.08203125 616.2109375 l 0,31,-1
 206.0546875 616.2109375 l 0,32,33
 202.63671875 616.2109375 202.63671875 616.2109375 198.2421875 615.234375 c 0,34,35
 193.84765625 614.2578125 193.84765625 614.2578125 189.697265625 612.3046875 c 0,36,37
 185.546875 610.3515625 185.546875 610.3515625 182.373046875 607.91015625 c 0,38,39
 179.19921875 605.46875 179.19921875 605.46875 178.22265625 602.05078125 c 0,40,-1
 140.13671875 496.09375 l 0,41,-1
 62.01171875 496.09375 l 0,42,-1
 96.19140625 670.8984375 l 0,43,-1
 691.89453125 670.8984375 l 0,44,-1
 655.76171875 496.09375 l 0,0,-1
EndSplineSet
EndChar

StartChar: U
Encoding: 56 85 56
Width: 749
VWidth: 488
Flags: W
LayerCount: 2
Fore
SplineSet
725.09765625 616.2109375 m 0,0,1
 718.26171875 615.234375 718.26171875 615.234375 714.35546875 611.083984375 c 0,2,3
 710.44921875 606.93359375 710.44921875 606.93359375 708.984375 600.09765625 c 0,4,-1
 631.8359375 214.84375 l 0,5,6
 621.58203125 162.59765625 621.58203125 162.59765625 599.365234375 120.1171875 c 0,7,8
 577.1484375 77.63671875 577.1484375 77.63671875 540.771484375 47.36328125 c 0,9,10
 504.39453125 17.08984375 504.39453125 17.08984375 452.63671875 0.48828125 c 0,11,12
 400.87890625 -16.11328125 400.87890625 -16.11328125 332.03125 -16.11328125 c 0,13,14
 276.3671875 -16.11328125 276.3671875 -16.11328125 231.93359375 -5.615234375 c 0,15,16
 187.5 4.8828125 187.5 4.8828125 156.494140625 26.611328125 c 0,17,18
 125.48828125 48.33984375 125.48828125 48.33984375 108.642578125 82.03125 c 0,19,20
 91.796875 115.72265625 91.796875 115.72265625 91.796875 162.109375 c 0,21,22
 91.796875 176.26953125 91.796875 176.26953125 94.970703125 203.857421875 c 0,23,24
 98.14453125 231.4453125 98.14453125 231.4453125 104.98046875 265.13671875 c 0,25,-1
 174.8046875 601.07421875 l 0,26,27
 176.26953125 609.86328125 176.26953125 609.86328125 170.8984375 612.548828125 c 0,28,29
 165.52734375 615.234375 165.52734375 615.234375 154.78515625 616.2109375 c 0,30,31
 146.484375 616.69921875 146.484375 616.69921875 137.20703125 617.67578125 c 0,32,33
 128.90625 618.65234375 128.90625 618.65234375 118.896484375 619.384765625 c 0,34,35
 108.88671875 620.1171875 108.88671875 620.1171875 99.12109375 621.09375 c 0,36,-1
 99.12109375 670.8984375 l 0,37,-1
 400.87890625 670.8984375 l 0,38,-1
 400.87890625 621.09375 l 0,39,40
 389.16015625 620.1171875 389.16015625 620.1171875 378.173828125 619.384765625 c 0,41,42
 367.1875 618.65234375 367.1875 618.65234375 358.3984375 617.67578125 c 0,43,44
 348.14453125 616.69921875 348.14453125 616.69921875 338.8671875 616.2109375 c 0,45,46
 330.078125 615.234375 330.078125 615.234375 324.70703125 612.060546875 c 0,47,48
 319.3359375 608.88671875 319.3359375 608.88671875 317.87109375 600.09765625 c 0,49,-1
 249.0234375 265.13671875 l 0,50,51
 243.1640625 236.328125 243.1640625 236.328125 240.478515625 213.37890625 c 0,52,53
 237.79296875 190.4296875 237.79296875 190.4296875 237.79296875 176.7578125 c 0,54,55
 237.79296875 145.01953125 237.79296875 145.01953125 248.046875 122.55859375 c 0,56,57
 258.30078125 100.09765625 258.30078125 100.09765625 275.146484375 85.9375 c 0,58,59
 291.9921875 71.77734375 291.9921875 71.77734375 313.720703125 65.4296875 c 0,60,61
 335.44921875 59.08203125 335.44921875 59.08203125 357.91015625 59.08203125 c 0,62,63
 396.97265625 59.08203125 396.97265625 59.08203125 425.537109375 73.486328125 c 0,64,65
 454.1015625 87.890625 454.1015625 87.890625 474.12109375 113.28125 c 0,66,67
 494.140625 138.671875 494.140625 138.671875 507.32421875 173.828125 c 0,68,69
 520.5078125 208.984375 520.5078125 208.984375 528.80859375 250 c 0,70,-1
 599.12109375 601.07421875 l 0,71,72
 600.5859375 609.86328125 600.5859375 609.86328125 596.435546875 612.548828125 c 0,73,74
 592.28515625 615.234375 592.28515625 615.234375 580.078125 616.2109375 c 0,75,76
 570.80078125 616.69921875 570.80078125 616.69921875 561.5234375 617.67578125 c 0,77,78
 553.22265625 618.65234375 553.22265625 618.65234375 542.96875 619.384765625 c 0,79,80
 532.71484375 620.1171875 532.71484375 620.1171875 522.94921875 621.09375 c 0,81,-1
 522.94921875 670.8984375 l 0,82,-1
 791.015625 670.8984375 l 0,83,-1
 791.015625 621.09375 l 0,84,-1
 725.09765625 616.2109375 l 0,0,1
EndSplineSet
EndChar

StartChar: V
Encoding: 57 86 57
Width: 685
VWidth: 488
Flags: W
LayerCount: 2
Fore
SplineSet
703.125 615.234375 m 0,0,-1
 357.91015625 -16.11328125 l 0,1,-1
 243.1640625 -16.11328125 l 0,2,-1
 145.01953125 603.02734375 l 0,3,4
 143.5546875 612.79296875 143.5546875 612.79296875 136.962890625 615.478515625 c 0,5,6
 130.37109375 618.1640625 130.37109375 618.1640625 122.0703125 618.1640625 c 0,7,8
 115.72265625 618.1640625 115.72265625 618.1640625 108.88671875 618.65234375 c 0,9,10
 103.02734375 619.140625 103.02734375 619.140625 96.19140625 619.384765625 c 0,11,12
 89.35546875 619.62890625 89.35546875 619.62890625 83.0078125 620.1171875 c 0,13,-1
 83.0078125 670.8984375 l 0,14,-1
 352.05078125 670.8984375 l 0,15,-1
 352.05078125 620.1171875 l 0,16,17
 343.75 619.62890625 343.75 619.62890625 336.181640625 619.384765625 c 0,18,19
 328.61328125 619.140625 328.61328125 619.140625 321.77734375 619.140625 c 0,20,-1
 307.12890625 619.140625 l 0,21,22
 298.828125 619.140625 298.828125 619.140625 293.212890625 616.2109375 c 0,23,24
 287.59765625 613.28125 287.59765625 613.28125 289.0625 604.00390625 c 0,25,-1
 354.00390625 187.01171875 l 0,26,-1
 576.171875 604.00390625 l 0,27,28
 578.125 608.88671875 578.125 608.88671875 577.392578125 611.81640625 c 0,29,30
 576.66015625 614.74609375 576.66015625 614.74609375 574.21875 616.2109375 c 0,31,32
 571.77734375 617.67578125 571.77734375 617.67578125 568.359375 618.1640625 c 0,33,34
 564.94140625 618.65234375 564.94140625 618.65234375 562.01171875 619.140625 c 0,35,-1
 545.8984375 619.140625 l 0,36,37
 538.57421875 619.140625 538.57421875 619.140625 529.541015625 619.384765625 c 0,38,39
 520.5078125 619.62890625 520.5078125 619.62890625 512.20703125 620.1171875 c 0,40,-1
 512.20703125 670.8984375 l 0,41,-1
 757.8125 670.8984375 l 0,42,-1
 757.8125 621.09375 l 0,43,-1
 703.125 615.234375 l 0,0,-1
EndSplineSet
EndChar

StartChar: W
Encoding: 58 87 58
Width: 969
VWidth: 488
Flags: W
LayerCount: 2
Fore
SplineSet
980.95703125 615.234375 m 0,0,-1
 680.17578125 -16.11328125 l 0,1,-1
 578.125 -16.11328125 l 0,2,-1
 526.85546875 442.87109375 l 0,3,-1
 309.08203125 -16.11328125 l 0,4,-1
 200.1953125 -16.11328125 l 0,5,-1
 148.92578125 603.02734375 l 0,6,7
 147.94921875 612.79296875 147.94921875 612.79296875 142.822265625 614.990234375 c 0,8,9
 137.6953125 617.1875 137.6953125 617.1875 125 618.1640625 c 0,10,11
 118.65234375 618.1640625 118.65234375 618.1640625 111.328125 618.65234375 c 0,12,13
 104.98046875 619.140625 104.98046875 619.140625 97.412109375 619.384765625 c 0,14,15
 89.84375 619.62890625 89.84375 619.62890625 83.0078125 620.1171875 c 0,16,-1
 83.0078125 670.8984375 l 0,17,-1
 355.95703125 670.8984375 l 0,18,-1
 355.95703125 620.1171875 l 0,19,20
 347.16796875 619.62890625 347.16796875 619.62890625 338.623046875 619.384765625 c 0,21,22
 330.078125 619.140625 330.078125 619.140625 323.2421875 618.65234375 c 0,23,24
 314.94140625 618.1640625 314.94140625 618.1640625 308.10546875 618.1640625 c 0,25,26
 301.7578125 618.1640625 301.7578125 618.1640625 296.38671875 615.72265625 c 0,27,28
 291.015625 613.28125 291.015625 613.28125 291.9921875 604.00390625 c 0,29,-1
 320.80078125 250.9765625 l 0,30,-1
 521.97265625 670.8984375 l 0,31,-1
 642.08984375 670.8984375 l 0,32,-1
 686.03515625 242.1875 l 0,33,-1
 854.98046875 604.00390625 l 0,34,35
 856.93359375 608.88671875 856.93359375 608.88671875 856.4453125 611.81640625 c 0,36,37
 855.95703125 614.74609375 855.95703125 614.74609375 853.271484375 616.2109375 c 0,38,39
 850.5859375 617.67578125 850.5859375 617.67578125 846.19140625 618.1640625 c 0,40,41
 841.796875 618.65234375 841.796875 618.65234375 835.9375 619.140625 c 0,42,-1
 820.80078125 619.140625 l 0,43,44
 813.96484375 619.140625 813.96484375 619.140625 806.15234375 619.384765625 c 0,45,46
 798.33984375 619.62890625 798.33984375 619.62890625 791.015625 620.1171875 c 0,47,-1
 791.015625 670.8984375 l 0,48,-1
 1041.9921875 670.8984375 l 0,49,-1
 1041.9921875 621.09375 l 0,50,-1
 980.95703125 615.234375 l 0,0,-1
EndSplineSet
EndChar

StartChar: X
Encoding: 59 88 59
Width: 674
VWidth: 488
Flags: W
LayerCount: 2
Fore
SplineSet
658.203125 616.2109375 m 0,0,1
 647.4609375 615.234375 647.4609375 615.234375 642.333984375 611.083984375 c 0,2,3
 637.20703125 606.93359375 637.20703125 606.93359375 634.765625 604.00390625 c 0,4,-1
 416.015625 358.88671875 l 0,5,-1
 546.875 65.91796875 l 0,6,7
 550.78125 58.59375 550.78125 58.59375 554.931640625 56.884765625 c 0,8,9
 559.08203125 55.17578125 559.08203125 55.17578125 564.94140625 54.19921875 c 0,10,11
 573.2421875 53.7109375 573.2421875 53.7109375 582.03125 53.22265625 c 0,12,13
 589.84375 52.734375 589.84375 52.734375 599.853515625 51.7578125 c 0,14,15
 609.86328125 50.78125 609.86328125 50.78125 621.09375 49.8046875 c 0,16,-1
 621.09375 0 l 0,17,-1
 320.80078125 0 l 0,18,-1
 320.80078125 49.8046875 l 0,19,20
 330.56640625 50.78125 330.56640625 50.78125 340.8203125 51.26953125 c 0,21,22
 351.07421875 51.7578125 351.07421875 51.7578125 359.375 52.734375 c 0,23,24
 368.65234375 53.7109375 368.65234375 53.7109375 377.9296875 54.19921875 c 0,25,26
 383.7890625 54.6875 383.7890625 54.6875 388.427734375 55.17578125 c 0,27,28
 393.06640625 55.6640625 393.06640625 55.6640625 396.240234375 57.12890625 c 0,29,30
 399.4140625 58.59375 399.4140625 58.59375 400.146484375 61.279296875 c 0,31,32
 400.87890625 63.96484375 400.87890625 63.96484375 398.92578125 68.84765625 c 0,33,-1
 321.77734375 245.1171875 l 0,34,-1
 161.1328125 68.84765625 l 0,35,36
 157.2265625 64.94140625 157.2265625 64.94140625 158.447265625 60.05859375 c 0,37,38
 159.66796875 55.17578125 159.66796875 55.17578125 167.96875 54.19921875 c 0,39,-1
 230.95703125 49.8046875 l 0,40,-1
 230.95703125 0 l 0,41,-1
 -43.9453125 0 l 0,42,-1
 -43.9453125 49.8046875 l 0,43,44
 -37.109375 50.78125 -37.109375 50.78125 -29.541015625 51.26953125 c 0,45,46
 -21.97265625 51.7578125 -21.97265625 51.7578125 -16.11328125 52.734375 c 0,47,48
 -9.27734375 53.7109375 -9.27734375 53.7109375 -2.9296875 54.19921875 c 0,49,50
 3.41796875 54.6875 3.41796875 54.6875 7.8125 54.931640625 c 0,51,52
 12.20703125 55.17578125 12.20703125 55.17578125 15.625 56.396484375 c 0,53,54
 19.04296875 57.6171875 19.04296875 57.6171875 21.97265625 59.814453125 c 0,55,56
 24.90234375 62.01171875 24.90234375 62.01171875 28.80859375 65.91796875 c 0,57,-1
 276.85546875 339.84375 l 0,58,-1
 157.2265625 604.98046875 l 0,59,60
 153.3203125 613.28125 153.3203125 613.28125 148.681640625 614.74609375 c 0,61,62
 144.04296875 616.2109375 144.04296875 616.2109375 132.8125 617.1875 c 0,63,64
 125 617.1875 125 617.1875 116.69921875 618.1640625 c 0,65,66
 109.86328125 618.65234375 109.86328125 618.65234375 100.830078125 619.384765625 c 0,67,68
 91.796875 620.1171875 91.796875 620.1171875 83.0078125 621.09375 c 0,69,-1
 83.0078125 670.8984375 l 0,70,-1
 384.765625 670.8984375 l 0,71,-1
 384.765625 621.09375 l 0,72,73
 372.55859375 620.1171875 372.55859375 620.1171875 361.083984375 619.384765625 c 0,74,75
 349.609375 618.65234375 349.609375 618.65234375 339.84375 618.1640625 c 0,76,77
 328.61328125 617.67578125 328.61328125 617.67578125 318.84765625 617.1875 c 0,78,79
 312.01171875 617.1875 312.01171875 617.1875 306.640625 614.013671875 c 0,80,81
 301.26953125 610.83984375 301.26953125 610.83984375 305.17578125 602.05078125 c 0,82,-1
 373.046875 449.21875 l 0,83,-1
 509.765625 602.05078125 l 0,84,85
 513.671875 605.95703125 513.671875 605.95703125 514.6484375 610.595703125 c 0,86,87
 515.625 615.234375 515.625 615.234375 505.859375 616.2109375 c 0,88,-1
 452.1484375 621.09375 l 0,89,-1
 452.1484375 670.8984375 l 0,90,-1
 720.21484375 670.8984375 l 0,91,-1
 720.21484375 621.09375 l 0,92,-1
 658.203125 616.2109375 l 0,0,1
EndSplineSet
EndChar

StartChar: Y
Encoding: 60 89 60
Width: 681
VWidth: 488
Flags: W
LayerCount: 2
Fore
SplineSet
688.96484375 616.2109375 m 0,0,1
 683.59375 615.234375 683.59375 615.234375 678.466796875 611.083984375 c 0,2,3
 673.33984375 606.93359375 673.33984375 606.93359375 670.8984375 604.00390625 c 0,4,-1
 416.9921875 280.76171875 l 0,5,-1
 375 69.82421875 l 0,6,7
 372.55859375 61.03515625 372.55859375 61.03515625 377.44140625 58.59375 c 0,8,9
 382.32421875 56.15234375 382.32421875 56.15234375 393.06640625 55.17578125 c 0,10,11
 401.85546875 54.6875 401.85546875 54.6875 411.1328125 53.7109375 c 0,12,13
 419.43359375 52.734375 419.43359375 52.734375 429.443359375 51.7578125 c 0,14,15
 439.453125 50.78125 439.453125 50.78125 450.1953125 49.8046875 c 0,16,-1
 450.1953125 0 l 0,17,-1
 147.94921875 0 l 0,18,-1
 147.94921875 49.8046875 l 0,19,20
 157.71484375 50.78125 157.71484375 50.78125 167.96875 51.7578125 c 0,21,22
 178.22265625 52.734375 178.22265625 52.734375 186.5234375 53.7109375 c 0,23,24
 195.80078125 54.6875 195.80078125 54.6875 205.078125 55.17578125 c 0,25,26
 214.84375 56.15234375 214.84375 56.15234375 221.19140625 58.59375 c 0,27,28
 227.5390625 61.03515625 227.5390625 61.03515625 229.98046875 70.80078125 c 0,29,-1
 270.99609375 272.94921875 l 0,30,-1
 159.1796875 604.98046875 l 0,31,32
 156.73828125 613.28125 156.73828125 613.28125 149.90234375 614.74609375 c 0,33,34
 143.06640625 616.2109375 143.06640625 616.2109375 133.7890625 617.1875 c 0,35,36
 126.46484375 617.1875 126.46484375 617.1875 117.67578125 618.1640625 c 0,37,38
 110.3515625 618.65234375 110.3515625 618.65234375 101.318359375 619.384765625 c 0,39,40
 92.28515625 620.1171875 92.28515625 620.1171875 83.984375 621.09375 c 0,41,-1
 83.984375 670.8984375 l 0,42,-1
 384.765625 670.8984375 l 0,43,-1
 384.765625 621.09375 l 0,44,45
 373.53515625 620.1171875 373.53515625 620.1171875 362.548828125 619.384765625 c 0,46,47
 351.5625 618.65234375 351.5625 618.65234375 342.7734375 618.1640625 c 0,48,49
 332.51953125 617.1875 332.51953125 617.1875 323.2421875 617.1875 c 0,50,51
 314.94140625 617.1875 314.94140625 617.1875 309.08203125 614.013671875 c 0,52,53
 303.22265625 610.83984375 303.22265625 610.83984375 307.12890625 601.07421875 c 0,54,-1
 375.9765625 383.7890625 l 0,55,-1
 541.015625 602.05078125 l 0,56,57
 543.9453125 605.95703125 543.9453125 605.95703125 541.9921875 611.083984375 c 0,58,59
 540.0390625 616.2109375 540.0390625 616.2109375 528.80859375 617.1875 c 0,60,-1
 470.21484375 621.09375 l 0,61,-1
 470.21484375 670.8984375 l 0,62,-1
 752.9296875 670.8984375 l 0,63,-1
 752.9296875 621.09375 l 0,64,-1
 688.96484375 616.2109375 l 0,0,1
EndSplineSet
EndChar

StartChar: Z
Encoding: 61 90 61
Width: 604
VWidth: 488
Flags: W
LayerCount: 2
Fore
SplineSet
627.9296875 621.09375 m 0,0,-1
 162.109375 62.01171875 l 0,1,-1
 408.203125 62.01171875 l 0,2,3
 415.52734375 62.01171875 415.52734375 62.01171875 424.560546875 66.162109375 c 0,4,5
 433.59375 70.3125 433.59375 70.3125 436.03515625 77.1484375 c 0,6,-1
 472.16796875 207.03125 l 0,7,-1
 556.15234375 207.03125 l 0,8,-1
 516.11328125 0 l 0,9,-1
 -20.99609375 0 l 0,10,-1
 -11.23046875 48.828125 l 0,11,-1
 453.125 608.88671875 l 0,12,-1
 245.1171875 608.88671875 l 0,13,14
 237.3046875 608.88671875 237.3046875 608.88671875 228.271484375 605.712890625 c 0,15,16
 219.23828125 602.5390625 219.23828125 602.5390625 216.796875 595.21484375 c 0,17,-1
 185.05859375 488.76953125 l 0,18,-1
 101.07421875 488.76953125 l 0,19,-1
 137.20703125 670.8984375 l 0,20,-1
 638.18359375 670.8984375 l 0,21,-1
 627.9296875 621.09375 l 0,0,-1
EndSplineSet
EndChar

StartChar: bracketleft
Encoding: 62 91 62
Width: 448
VWidth: 488
Flags: W
LayerCount: 2
Fore
SplineSet
485.83984375 647.94921875 m 0,0,-1
 333.0078125 647.94921875 l 0,1,-1
 188.96484375 -74.21875 l 0,2,-1
 342.7734375 -74.21875 l 0,3,-1
 331.0546875 -131.8359375 l 0,4,-1
 54.19921875 -131.8359375 l 0,5,-1
 220.21484375 708.0078125 l 0,6,-1
 498.046875 708.0078125 l 0,7,-1
 485.83984375 647.94921875 l 0,0,-1
EndSplineSet
EndChar

StartChar: backslash
Encoding: 63 92 63
Width: 494
VWidth: 488
Flags: W
LayerCount: 2
Fore
SplineSet
416.015625 -92.7734375 m 0,0,-1
 0 670.8984375 l 0,1,-1
 78.125 670.8984375 l 0,2,-1
 494.140625 -92.7734375 l 0,3,-1
 416.015625 -92.7734375 l 0,0,-1
EndSplineSet
EndChar

StartChar: bracketright
Encoding: 64 93 64
Width: 448
VWidth: 488
Flags: W
LayerCount: 2
Fore
SplineSet
236.81640625 -131.8359375 m 0,0,-1
 -41.015625 -131.8359375 l 0,1,-1
 -28.80859375 -74.21875 l 0,2,-1
 125 -74.21875 l 0,3,-1
 268.06640625 647.94921875 l 0,4,-1
 113.76953125 647.94921875 l 0,5,-1
 125.9765625 708.0078125 l 0,6,-1
 402.83203125 708.0078125 l 0,7,-1
 236.81640625 -131.8359375 l 0,0,-1
EndSplineSet
EndChar

StartChar: asciicircum
Encoding: 65 94 65
Width: 339
Flags: W
LayerCount: 2
Fore
SplineSet
312 550 m 1,0,-1
 246 645 l 1,1,-1
 141 550 l 1,2,-1
 58 550 l 1,3,-1
 203 721 l 1,4,-1
 320 721 l 1,5,-1
 397 550 l 1,6,-1
 312 550 l 1,0,-1
EndSplineSet
Refer: 360 770 N 1 0 0 1 440.918 0 2
EndChar

StartChar: underscore
Encoding: 66 95 66
Width: 341
VWidth: 488
Flags: W
LayerCount: 2
Fore
SplineSet
262.20703125 -166.015625 m 0,0,-1
 -79.58984375 -166.015625 l 0,1,-1
 -63.4765625 -85.44921875 l 0,2,-1
 278.3203125 -85.44921875 l 0,3,-1
 262.20703125 -166.015625 l 0,0,-1
EndSplineSet
EndChar

StartChar: grave
Encoding: 67 96 67
Width: 423
Flags: W
LayerCount: 2
Fore
SplineSet
271 550 m 1,0,-1
 109 638 l 2,1,2
 104 640 104 640 100 645 c 128,-1,3
 96 650 96 650 93 655.5 c 128,-1,4
 90 661 90 661 88.5 667 c 128,-1,5
 87 673 87 673 87 677 c 0,6,7
 87 685 87 685 89.5 694.5 c 128,-1,8
 92 704 92 704 98.5 711.5 c 128,-1,9
 105 719 105 719 115.5 723.5 c 128,-1,10
 126 728 126 728 142 728 c 0,11,12
 152 728 152 728 159.5 727 c 128,-1,13
 167 726 167 726 174 722.5 c 128,-1,14
 181 719 181 719 188 713 c 128,-1,15
 195 707 195 707 203 698 c 2,16,-1
 339 547 l 1,17,-1
 271 550 l 1,0,-1
EndSplineSet
Refer: 358 768 N 1 0 0 1 446.289 0 2
EndChar

StartChar: a
Encoding: 68 97 68
Width: 567
VWidth: 488
Flags: W
LayerCount: 2
Fore
SplineSet
564.94140625 29.78515625 m 0,0,1
 547.8515625 22.94921875 547.8515625 22.94921875 529.052734375 15.625 c 0,2,3
 510.25390625 8.30078125 510.25390625 8.30078125 490.72265625 2.197265625 c 0,4,5
 471.19140625 -3.90625 471.19140625 -3.90625 451.66015625 -8.056640625 c 0,6,7
 432.12890625 -12.20703125 432.12890625 -12.20703125 413.0859375 -12.20703125 c 0,8,9
 381.34765625 -12.20703125 381.34765625 -12.20703125 360.107421875 -0.48828125 c 0,10,11
 338.8671875 11.23046875 338.8671875 11.23046875 329.1015625 33.203125 c 0,12,13
 315.91796875 24.4140625 315.91796875 24.4140625 300.78125 16.11328125 c 0,14,15
 285.64453125 7.8125 285.64453125 7.8125 269.04296875 1.708984375 c 0,16,17
 252.44140625 -4.39453125 252.44140625 -4.39453125 234.86328125 -8.30078125 c 0,18,19
 217.28515625 -12.20703125 217.28515625 -12.20703125 199.21875 -12.20703125 c 0,20,21
 168.45703125 -12.20703125 168.45703125 -12.20703125 144.04296875 -3.90625 c 0,22,23
 119.62890625 4.39453125 119.62890625 4.39453125 101.07421875 18.5546875 c 0,24,25
 82.51953125 32.71484375 82.51953125 32.71484375 69.580078125 51.26953125 c 0,26,27
 56.640625 69.82421875 56.640625 69.82421875 48.33984375 90.087890625 c 0,28,29
 40.0390625 110.3515625 40.0390625 110.3515625 36.1328125 131.34765625 c 0,30,31
 32.2265625 152.34375 32.2265625 152.34375 32.2265625 170.8984375 c 0,32,33
 32.2265625 208.0078125 32.2265625 208.0078125 40.283203125 246.826171875 c 0,34,35
 48.33984375 285.64453125 48.33984375 285.64453125 65.185546875 322.265625 c 0,36,37
 82.03125 358.88671875 82.03125 358.88671875 107.421875 391.357421875 c 0,38,39
 132.8125 423.828125 132.8125 423.828125 167.48046875 447.998046875 c 0,40,41
 202.1484375 472.16796875 202.1484375 472.16796875 246.337890625 486.083984375 c 0,42,43
 290.52734375 500 290.52734375 500 344.23828125 500 c 0,44,45
 366.2109375 500 366.2109375 500 387.939453125 494.140625 c 0,46,47
 409.66796875 488.28125 409.66796875 488.28125 426.7578125 479.00390625 c 0,48,-1
 434.08203125 487.79296875 l 0,49,-1
 541.015625 487.79296875 l 0,50,51
 538.57421875 480.46875 538.57421875 480.46875 534.66796875 471.19140625 c 0,52,53
 530.76171875 461.9140625 530.76171875 461.9140625 526.85546875 453.125 c 0,54,55
 522.94921875 444.3359375 522.94921875 444.3359375 519.775390625 437.255859375 c 0,56,57
 516.6015625 430.17578125 516.6015625 430.17578125 516.11328125 426.7578125 c 0,58,-1
 451.171875 97.16796875 l 0,59,60
 451.171875 85.9375 451.171875 85.9375 451.904296875 78.125 c 0,61,62
 452.63671875 70.3125 452.63671875 70.3125 455.56640625 65.673828125 c 0,63,64
 458.49609375 61.03515625 458.49609375 61.03515625 463.8671875 59.08203125 c 0,65,66
 469.23828125 57.12890625 469.23828125 57.12890625 478.02734375 57.12890625 c 0,67,68
 479.98046875 57.12890625 479.98046875 57.12890625 492.431640625 60.05859375 c 0,69,70
 504.8828125 62.98828125 504.8828125 62.98828125 519.775390625 66.89453125 c 0,71,72
 534.66796875 70.80078125 534.66796875 70.80078125 547.8515625 73.974609375 c 0,73,74
 561.03515625 77.1484375 561.03515625 77.1484375 564.94140625 78.125 c 0,75,-1
 564.94140625 29.78515625 l 0,0,1
375 394.04296875 m 0,76,77
 375.48828125 395.99609375 375.48828125 395.99609375 374.755859375 403.80859375 c 0,78,79
 374.0234375 411.62109375 374.0234375 411.62109375 371.826171875 420.166015625 c 0,80,81
 369.62890625 428.7109375 369.62890625 428.7109375 366.455078125 435.302734375 c 0,82,83
 363.28125 441.89453125 363.28125 441.89453125 358.88671875 441.89453125 c 0,84,85
 326.66015625 441.89453125 326.66015625 441.89453125 300.537109375 430.17578125 c 0,86,87
 274.4140625 418.45703125 274.4140625 418.45703125 253.662109375 398.4375 c 0,88,89
 232.91015625 378.41796875 232.91015625 378.41796875 217.7734375 352.05078125 c 0,90,91
 202.63671875 325.68359375 202.63671875 325.68359375 192.626953125 296.142578125 c 0,92,93
 182.6171875 266.6015625 182.6171875 266.6015625 177.734375 235.83984375 c 0,94,95
 172.8515625 205.078125 172.8515625 205.078125 172.8515625 176.7578125 c 0,96,97
 172.8515625 156.73828125 172.8515625 156.73828125 173.583984375 136.71875 c 0,98,99
 174.31640625 116.69921875 174.31640625 116.69921875 179.443359375 100.09765625 c 0,100,101
 184.5703125 83.49609375 184.5703125 83.49609375 196.533203125 73.2421875 c 0,102,103
 208.49609375 62.98828125 208.49609375 62.98828125 230.95703125 62.98828125 c 0,104,105
 247.0703125 62.98828125 247.0703125 62.98828125 261.474609375 70.3125 c 0,106,107
 275.87890625 77.63671875 275.87890625 77.63671875 287.841796875 87.158203125 c 0,108,109
 299.8046875 96.6796875 299.8046875 96.6796875 308.837890625 106.4453125 c 0,110,111
 317.87109375 116.2109375 317.87109375 116.2109375 323.2421875 121.09375 c 0,112,113
 326.66015625 141.11328125 326.66015625 141.11328125 328.857421875 152.099609375 c 0,114,115
 331.0546875 163.0859375 331.0546875 163.0859375 332.763671875 173.095703125 c 0,116,117
 334.47265625 183.10546875 334.47265625 183.10546875 336.9140625 195.80078125 c 0,118,119
 339.35546875 208.49609375 339.35546875 208.49609375 343.994140625 232.177734375 c 0,120,121
 348.6328125 255.859375 348.6328125 255.859375 355.95703125 294.189453125 c 0,122,123
 363.28125 332.51953125 363.28125 332.51953125 375 394.04296875 c 0,76,77
EndSplineSet
EndChar

StartChar: b
Encoding: 69 98 69
Width: 532
VWidth: 488
Flags: W
LayerCount: 2
Fore
SplineSet
500.9765625 311.03515625 m 0,0,1
 500.9765625 281.25 500.9765625 281.25 494.62890625 245.60546875 c 0,2,3
 488.28125 209.9609375 488.28125 209.9609375 473.6328125 174.072265625 c 0,4,5
 458.984375 138.18359375 458.984375 138.18359375 435.791015625 104.736328125 c 0,6,7
 412.59765625 71.2890625 412.59765625 71.2890625 379.150390625 45.166015625 c 0,8,9
 345.703125 19.04296875 345.703125 19.04296875 301.025390625 3.41796875 c 0,10,11
 256.34765625 -12.20703125 256.34765625 -12.20703125 199.21875 -12.20703125 c 0,12,13
 144.53125 -12.20703125 144.53125 -12.20703125 99.365234375 1.220703125 c 0,14,15
 54.19921875 14.6484375 54.19921875 14.6484375 18.06640625 38.0859375 c 0,16,-1
 134.765625 661.1328125 l 0,17,-1
 46.875 668.9453125 l 0,18,-1
 46.875 705.078125 l 0,19,-1
 215.8203125 736.81640625 l 0,20,-1
 284.1796875 736.81640625 l 0,21,-1
 231.93359375 467.7734375 l 0,22,23
 259.27734375 481.93359375 259.27734375 481.93359375 287.841796875 490.966796875 c 0,24,25
 316.40625 500 316.40625 500 342.7734375 500 c 0,26,27
 382.8125 500 382.8125 500 412.59765625 482.177734375 c 0,28,29
 442.3828125 464.35546875 442.3828125 464.35546875 462.158203125 437.01171875 c 0,30,31
 481.93359375 409.66796875 481.93359375 409.66796875 491.455078125 375.9765625 c 0,32,33
 500.9765625 342.28515625 500.9765625 342.28515625 500.9765625 311.03515625 c 0,0,1
361.81640625 307.12890625 m 0,34,35
 361.81640625 338.37890625 361.81640625 338.37890625 356.93359375 360.595703125 c 0,36,37
 352.05078125 382.8125 352.05078125 382.8125 344.482421875 396.97265625 c 0,38,39
 336.9140625 411.1328125 336.9140625 411.1328125 327.880859375 417.48046875 c 0,40,41
 318.84765625 423.828125 318.84765625 423.828125 310.05859375 423.828125 c 0,42,43
 289.0625 423.828125 289.0625 423.828125 263.427734375 410.64453125 c 0,44,45
 237.79296875 397.4609375 237.79296875 397.4609375 214.84375 377.9296875 c 0,46,-1
 159.1796875 79.1015625 l 0,47,48
 166.9921875 66.40625 166.9921875 66.40625 181.884765625 55.17578125 c 0,49,50
 196.77734375 43.9453125 196.77734375 43.9453125 220.21484375 43.9453125 c 0,51,52
 236.81640625 43.9453125 236.81640625 43.9453125 253.662109375 54.931640625 c 0,53,54
 270.5078125 65.91796875 270.5078125 65.91796875 286.1328125 84.716796875 c 0,55,56
 301.7578125 103.515625 301.7578125 103.515625 315.673828125 128.90625 c 0,57,58
 329.58984375 154.296875 329.58984375 154.296875 339.84375 183.59375 c 0,59,60
 350.09765625 212.890625 350.09765625 212.890625 355.95703125 244.384765625 c 0,61,62
 361.81640625 275.87890625 361.81640625 275.87890625 361.81640625 307.12890625 c 0,34,35
EndSplineSet
EndChar

StartChar: c
Encoding: 70 99 70
Width: 480
VWidth: 488
Flags: W
LayerCount: 2
Fore
SplineSet
450.1953125 425.78125 m 0,0,1
 450.1953125 416.9921875 450.1953125 416.9921875 445.80078125 403.80859375 c 0,2,3
 441.40625 390.625 441.40625 390.625 430.419921875 378.41796875 c 0,4,5
 419.43359375 366.2109375 419.43359375 366.2109375 400.87890625 357.666015625 c 0,6,7
 382.32421875 349.12109375 382.32421875 349.12109375 354.00390625 349.12109375 c 0,8,-1
 298.828125 426.7578125 l 0,9,10
 270.5078125 420.41015625 270.5078125 420.41015625 250 403.3203125 c 0,11,12
 229.4921875 386.23046875 229.4921875 386.23046875 215.33203125 363.28125 c 0,13,14
 201.171875 340.33203125 201.171875 340.33203125 192.138671875 313.96484375 c 0,15,16
 183.10546875 287.59765625 183.10546875 287.59765625 178.22265625 263.18359375 c 0,17,18
 173.33984375 238.76953125 173.33984375 238.76953125 171.630859375 218.994140625 c 0,19,20
 169.921875 199.21875 169.921875 199.21875 169.921875 188.96484375 c 0,21,22
 169.921875 166.015625 169.921875 166.015625 171.875 143.310546875 c 0,23,24
 173.828125 120.60546875 173.828125 120.60546875 180.908203125 102.5390625 c 0,25,26
 187.98828125 84.47265625 187.98828125 84.47265625 201.904296875 73.2421875 c 0,27,28
 215.8203125 62.01171875 215.8203125 62.01171875 240.234375 62.01171875 c 0,29,30
 258.7890625 62.01171875 258.7890625 62.01171875 277.83203125 67.3828125 c 0,31,32
 296.875 72.75390625 296.875 72.75390625 319.091796875 87.40234375 c 0,33,34
 341.30859375 102.05078125 341.30859375 102.05078125 367.919921875 127.685546875 c 0,35,36
 394.53125 153.3203125 394.53125 153.3203125 428.22265625 193.84765625 c 0,37,-1
 428.22265625 94.23828125 l 0,38,39
 407.71484375 69.82421875 407.71484375 69.82421875 384.27734375 50.29296875 c 0,40,41
 360.83984375 30.76171875 360.83984375 30.76171875 333.740234375 16.845703125 c 0,42,43
 306.640625 2.9296875 306.640625 2.9296875 275.634765625 -4.638671875 c 0,44,45
 244.62890625 -12.20703125 244.62890625 -12.20703125 208.984375 -12.20703125 c 0,46,47
 163.0859375 -12.20703125 163.0859375 -12.20703125 129.8828125 1.46484375 c 0,48,49
 96.6796875 15.13671875 96.6796875 15.13671875 75.1953125 40.0390625 c 0,50,51
 53.7109375 64.94140625 53.7109375 64.94140625 43.45703125 100.09765625 c 0,52,53
 33.203125 135.25390625 33.203125 135.25390625 33.203125 178.22265625 c 0,54,55
 33.203125 243.1640625 33.203125 243.1640625 53.466796875 301.513671875 c 0,56,57
 73.73046875 359.86328125 73.73046875 359.86328125 112.548828125 404.052734375 c 0,58,59
 151.3671875 448.2421875 151.3671875 448.2421875 207.275390625 474.12109375 c 0,60,61
 263.18359375 500 263.18359375 500 334.9609375 500 c 0,62,63
 364.74609375 500 364.74609375 500 386.474609375 492.919921875 c 0,64,65
 408.203125 485.83984375 408.203125 485.83984375 422.36328125 474.853515625 c 0,66,67
 436.5234375 463.8671875 436.5234375 463.8671875 443.359375 450.927734375 c 0,68,69
 450.1953125 437.98828125 450.1953125 437.98828125 450.1953125 425.78125 c 0,0,1
EndSplineSet
EndChar

StartChar: d
Encoding: 71 100 71
Width: 565
VWidth: 488
Flags: W
LayerCount: 2
Fore
SplineSet
455.078125 89.84375 m 0,0,1
 452.63671875 77.63671875 452.63671875 77.63671875 453.857421875 69.580078125 c 0,2,3
 455.078125 61.5234375 455.078125 61.5234375 457.763671875 56.884765625 c 0,4,5
 460.44921875 52.24609375 460.44921875 52.24609375 464.35546875 50.537109375 c 0,6,7
 468.26171875 48.828125 468.26171875 48.828125 471.19140625 48.828125 c 0,8,9
 481.4453125 48.828125 481.4453125 48.828125 494.140625 52.001953125 c 0,10,11
 506.8359375 55.17578125 506.8359375 55.17578125 519.775390625 59.814453125 c 0,12,13
 532.71484375 64.453125 532.71484375 64.453125 544.189453125 69.580078125 c 0,14,15
 555.6640625 74.70703125 555.6640625 74.70703125 563.96484375 79.1015625 c 0,16,-1
 563.96484375 29.78515625 l 0,17,18
 551.26953125 22.4609375 551.26953125 22.4609375 533.203125 14.892578125 c 0,19,20
 515.13671875 7.32421875 515.13671875 7.32421875 494.62890625 1.220703125 c 0,21,22
 474.12109375 -4.8828125 474.12109375 -4.8828125 452.880859375 -8.544921875 c 0,23,24
 431.640625 -12.20703125 431.640625 -12.20703125 412.109375 -12.20703125 c 0,25,26
 374.0234375 -12.20703125 374.0234375 -12.20703125 352.05078125 0.48828125 c 0,27,28
 330.078125 13.18359375 330.078125 13.18359375 321.77734375 36.1328125 c 0,29,30
 308.59375 25.87890625 308.59375 25.87890625 293.212890625 17.08984375 c 0,31,32
 277.83203125 8.30078125 277.83203125 8.30078125 261.474609375 1.708984375 c 0,33,34
 245.1171875 -4.8828125 245.1171875 -4.8828125 228.515625 -8.544921875 c 0,35,36
 211.9140625 -12.20703125 211.9140625 -12.20703125 195.80078125 -12.20703125 c 0,37,38
 152.34375 -12.20703125 152.34375 -12.20703125 121.337890625 3.90625 c 0,39,40
 90.33203125 20.01953125 90.33203125 20.01953125 70.556640625 46.142578125 c 0,41,42
 50.78125 72.265625 50.78125 72.265625 41.50390625 104.4921875 c 0,43,44
 32.2265625 136.71875 32.2265625 136.71875 32.2265625 168.9453125 c 0,45,46
 32.2265625 207.03125 32.2265625 207.03125 40.52734375 246.58203125 c 0,47,48
 48.828125 286.1328125 48.828125 286.1328125 65.673828125 322.75390625 c 0,49,50
 82.51953125 359.375 82.51953125 359.375 107.666015625 391.845703125 c 0,51,52
 132.8125 424.31640625 132.8125 424.31640625 166.50390625 448.2421875 c 0,53,54
 200.1953125 472.16796875 200.1953125 472.16796875 242.431640625 486.083984375 c 0,55,56
 284.66796875 500 284.66796875 500 334.9609375 500 c 0,57,58
 353.515625 500 353.515625 500 368.408203125 495.60546875 c 0,59,60
 383.30078125 491.2109375 383.30078125 491.2109375 393.06640625 487.79296875 c 0,61,-1
 422.8515625 661.1328125 l 0,62,-1
 333.0078125 668.9453125 l 0,63,-1
 333.0078125 705.078125 l 0,64,-1
 501.953125 736.81640625 l 0,65,-1
 569.82421875 736.81640625 l 0,66,-1
 455.078125 89.84375 l 0,0,1
375.9765625 394.04296875 m 0,67,68
 376.46484375 395.99609375 376.46484375 395.99609375 373.046875 403.80859375 c 0,69,70
 369.62890625 411.62109375 369.62890625 411.62109375 363.76953125 420.41015625 c 0,71,72
 357.91015625 429.19921875 357.91015625 429.19921875 349.853515625 436.03515625 c 0,73,74
 341.796875 442.87109375 341.796875 442.87109375 333.0078125 442.87109375 c 0,75,76
 306.640625 442.87109375 306.640625 442.87109375 278.076171875 423.33984375 c 0,77,78
 249.51171875 403.80859375 249.51171875 403.80859375 225.341796875 368.408203125 c 0,79,80
 201.171875 333.0078125 201.171875 333.0078125 185.546875 283.69140625 c 0,81,82
 169.921875 234.375 169.921875 234.375 169.921875 174.8046875 c 0,83,84
 169.921875 114.2578125 169.921875 114.2578125 184.5703125 86.669921875 c 0,85,86
 199.21875 59.08203125 199.21875 59.08203125 227.05078125 59.08203125 c 0,87,88
 239.74609375 59.08203125 239.74609375 59.08203125 252.685546875 65.4296875 c 0,89,90
 265.625 71.77734375 265.625 71.77734375 278.564453125 82.51953125 c 0,91,92
 291.50390625 93.26171875 291.50390625 93.26171875 304.443359375 106.689453125 c 0,93,94
 317.3828125 120.1171875 317.3828125 120.1171875 330.078125 134.765625 c 0,95,-1
 375.9765625 394.04296875 l 0,67,68
EndSplineSet
EndChar

StartChar: e
Encoding: 72 101 72
Width: 479
VWidth: 488
Flags: W
LayerCount: 2
Fore
SplineSet
462.890625 395.01953125 m 0,0,1
 462.890625 368.65234375 462.890625 368.65234375 450.927734375 346.19140625 c 0,2,3
 438.96484375 323.73046875 438.96484375 323.73046875 417.96875 305.17578125 c 0,4,5
 396.97265625 286.62109375 396.97265625 286.62109375 368.896484375 271.728515625 c 0,6,7
 340.8203125 256.8359375 340.8203125 256.8359375 308.837890625 246.09375 c 0,8,9
 276.85546875 235.3515625 276.85546875 235.3515625 242.431640625 228.515625 c 0,10,11
 208.0078125 221.6796875 208.0078125 221.6796875 174.8046875 219.23828125 c 0,12,13
 173.828125 209.9609375 173.828125 209.9609375 172.8515625 198.2421875 c 0,14,15
 171.875 186.5234375 171.875 186.5234375 171.875 178.22265625 c 0,16,17
 171.875 152.34375 171.875 152.34375 175.78125 130.37109375 c 0,18,19
 179.6875 108.3984375 179.6875 108.3984375 188.4765625 92.28515625 c 0,20,21
 197.265625 76.171875 197.265625 76.171875 211.669921875 67.138671875 c 0,22,23
 226.07421875 58.10546875 226.07421875 58.10546875 247.0703125 58.10546875 c 0,24,25
 263.18359375 58.10546875 263.18359375 58.10546875 279.78515625 64.453125 c 0,26,27
 296.38671875 70.80078125 296.38671875 70.80078125 318.359375 85.693359375 c 0,28,29
 340.33203125 100.5859375 340.33203125 100.5859375 369.62890625 125 c 0,30,31
 398.92578125 149.4140625 398.92578125 149.4140625 439.94140625 185.05859375 c 0,32,-1
 439.94140625 89.84375 l 0,33,34
 425.29296875 75.68359375 425.29296875 75.68359375 401.85546875 57.861328125 c 0,35,36
 378.41796875 40.0390625 378.41796875 40.0390625 348.6328125 24.4140625 c 0,37,38
 318.84765625 8.7890625 318.84765625 8.7890625 284.66796875 -1.708984375 c 0,39,40
 250.48828125 -12.20703125 250.48828125 -12.20703125 213.8671875 -12.20703125 c 0,41,42
 181.15234375 -12.20703125 181.15234375 -12.20703125 148.92578125 -3.90625 c 0,43,44
 116.69921875 4.39453125 116.69921875 4.39453125 91.064453125 25.390625 c 0,45,46
 65.4296875 46.38671875 65.4296875 46.38671875 49.31640625 82.275390625 c 0,47,48
 33.203125 118.1640625 33.203125 118.1640625 33.203125 173.828125 c 0,49,50
 33.203125 211.9140625 33.203125 211.9140625 42.724609375 250.9765625 c 0,51,52
 52.24609375 290.0390625 52.24609375 290.0390625 69.82421875 326.171875 c 0,53,54
 87.40234375 362.3046875 87.40234375 362.3046875 112.79296875 394.04296875 c 0,55,56
 138.18359375 425.78125 138.18359375 425.78125 170.166015625 449.21875 c 0,57,58
 202.1484375 472.65625 202.1484375 472.65625 240.234375 486.328125 c 0,59,60
 278.3203125 500 278.3203125 500 320.80078125 500 c 0,61,62
 357.421875 500 357.421875 500 384.27734375 487.79296875 c 0,63,64
 411.1328125 475.5859375 411.1328125 475.5859375 428.7109375 458.740234375 c 0,65,66
 446.2890625 441.89453125 446.2890625 441.89453125 454.58984375 424.072265625 c 0,67,68
 462.890625 406.25 462.890625 406.25 462.890625 395.01953125 c 0,0,1
333.0078125 395.99609375 m 0,69,70
 333.0078125 404.78515625 333.0078125 404.78515625 331.787109375 413.330078125 c 0,71,72
 330.56640625 421.875 330.56640625 421.875 326.904296875 428.7109375 c 0,73,74
 323.2421875 435.546875 323.2421875 435.546875 316.162109375 439.697265625 c 0,75,76
 309.08203125 443.84765625 309.08203125 443.84765625 297.8515625 443.84765625 c 0,77,78
 274.4140625 443.84765625 274.4140625 443.84765625 256.103515625 427.24609375 c 0,79,80
 237.79296875 410.64453125 237.79296875 410.64453125 223.6328125 385.009765625 c 0,81,82
 209.47265625 359.375 209.47265625 359.375 199.21875 328.857421875 c 0,83,84
 188.96484375 298.33984375 188.96484375 298.33984375 182.12890625 270.99609375 c 0,85,86
 208.0078125 276.85546875 208.0078125 276.85546875 234.86328125 288.57421875 c 0,87,88
 261.71875 300.29296875 261.71875 300.29296875 283.447265625 316.650390625 c 0,89,90
 305.17578125 333.0078125 305.17578125 333.0078125 319.091796875 353.02734375 c 0,91,92
 333.0078125 373.046875 333.0078125 373.046875 333.0078125 395.99609375 c 0,69,70
EndSplineSet
EndChar

StartChar: f
Encoding: 73 102 73
Width: 361
VWidth: 488
Flags: W
LayerCount: 2
Fore
SplineSet
481.93359375 669.921875 m 0,0,1
 481.93359375 658.69140625 481.93359375 658.69140625 478.515625 647.705078125 c 0,2,3
 475.09765625 636.71875 475.09765625 636.71875 465.576171875 627.44140625 c 0,4,5
 456.0546875 618.1640625 456.0546875 618.1640625 439.208984375 610.83984375 c 0,6,7
 422.36328125 603.515625 422.36328125 603.515625 395.99609375 600.09765625 c 0,8,-1
 333.984375 659.1796875 l 0,9,10
 313.4765625 641.11328125 313.4765625 641.11328125 301.025390625 614.2578125 c 0,11,12
 288.57421875 587.40234375 288.57421875 587.40234375 281.25 558.837890625 c 0,13,14
 273.92578125 530.2734375 273.92578125 530.2734375 270.5078125 503.662109375 c 0,15,16
 267.08984375 477.05078125 267.08984375 477.05078125 264.16015625 458.984375 c 0,17,-1
 386.23046875 458.984375 l 0,18,-1
 386.23046875 399.90234375 l 0,19,-1
 253.90625 399.90234375 l 0,20,21
 251.953125 385.7421875 251.953125 385.7421875 248.046875 357.666015625 c 0,22,23
 244.140625 329.58984375 244.140625 329.58984375 239.013671875 293.701171875 c 0,24,25
 233.88671875 257.8125 233.88671875 257.8125 227.783203125 217.7734375 c 0,26,27
 221.6796875 177.734375 221.6796875 177.734375 215.8203125 140.625 c 0,28,29
 209.9609375 103.515625 209.9609375 103.515625 204.58984375 72.509765625 c 0,30,31
 199.21875 41.50390625 199.21875 41.50390625 194.82421875 23.92578125 c 0,32,33
 188.4765625 -2.44140625 188.4765625 -2.44140625 176.7578125 -31.494140625 c 0,34,35
 165.0390625 -60.546875 165.0390625 -60.546875 148.4375 -88.623046875 c 0,36,37
 131.8359375 -116.69921875 131.8359375 -116.69921875 111.083984375 -142.08984375 c 0,38,39
 90.33203125 -167.48046875 90.33203125 -167.48046875 65.673828125 -186.767578125 c 0,40,41
 41.015625 -206.0546875 41.015625 -206.0546875 12.6953125 -217.529296875 c 0,42,43
 -15.625 -229.00390625 -15.625 -229.00390625 -46.875 -229.00390625 c 0,44,45
 -68.359375 -229.00390625 -68.359375 -229.00390625 -83.984375 -221.435546875 c 0,46,47
 -99.609375 -213.8671875 -99.609375 -213.8671875 -109.86328125 -203.125 c 0,48,49
 -120.1171875 -192.3828125 -120.1171875 -192.3828125 -125 -180.17578125 c 0,50,51
 -129.8828125 -167.96875 -129.8828125 -167.96875 -129.8828125 -159.1796875 c 0,52,53
 -129.8828125 -139.16015625 -129.8828125 -139.16015625 -117.1875 -119.140625 c 0,54,55
 -104.4921875 -99.12109375 -104.4921875 -99.12109375 -83.984375 -84.9609375 c 0,56,-1
 5.859375 -142.08984375 l 0,57,58
 17.578125 -125.48828125 17.578125 -125.48828125 27.34375 -103.271484375 c 0,59,60
 37.109375 -81.0546875 37.109375 -81.0546875 45.166015625 -54.443359375 c 0,61,62
 53.22265625 -27.83203125 53.22265625 -27.83203125 60.302734375 2.197265625 c 0,63,64
 67.3828125 32.2265625 67.3828125 32.2265625 73.2421875 63.96484375 c 0,65,66
 85.9375 133.30078125 85.9375 133.30078125 95.947265625 217.28515625 c 0,67,68
 105.95703125 301.26953125 105.95703125 301.26953125 120.1171875 396.97265625 c 0,69,-1
 43.9453125 389.16015625 l 0,70,-1
 45.8984375 436.03515625 l 0,71,-1
 131.8359375 465.8203125 l 0,72,73
 136.71875 490.72265625 136.71875 490.72265625 145.01953125 520.263671875 c 0,74,75
 153.3203125 549.8046875 153.3203125 549.8046875 166.50390625 580.078125 c 0,76,77
 179.6875 610.3515625 179.6875 610.3515625 197.75390625 638.427734375 c 0,78,79
 215.8203125 666.50390625 215.8203125 666.50390625 240.72265625 688.4765625 c 0,80,81
 265.625 710.44921875 265.625 710.44921875 297.607421875 723.6328125 c 0,82,83
 329.58984375 736.81640625 329.58984375 736.81640625 370.1171875 736.81640625 c 0,84,85
 397.94921875 736.81640625 397.94921875 736.81640625 418.701171875 729.98046875 c 0,86,87
 439.453125 723.14453125 439.453125 723.14453125 453.61328125 713.134765625 c 0,88,89
 467.7734375 703.125 467.7734375 703.125 474.853515625 691.40625 c 0,90,91
 481.93359375 679.6875 481.93359375 679.6875 481.93359375 669.921875 c 0,0,1
EndSplineSet
EndChar

